M48
; DRILL file {KiCad 8.0.5} date 2024-12-07T09:48:28-0500
; FORMAT={-:-/ absolute / inch / decimal}
; #@! TF.CreationDate,2024-12-07T09:48:28-05:00
; #@! TF.GenerationSoftware,Kicad,Pcbnew,8.0.5
; #@! TF.FileFunction,Plated,1,2,PTH
FMAT,2
INCH
; #@! TA.AperFunction,Plated,PTH,ViaDrill
T1C0.0100
; #@! TA.AperFunction,Plated,PTH,ViaDrill
T2C0.0118
; #@! TA.AperFunction,Plated,PTH,ViaDrill
T3C0.0150
; #@! TA.AperFunction,Plated,PTH,ComponentDrill
T4C0.0197
; #@! TA.AperFunction,Plated,PTH,ComponentDrill
T5C0.0394
; #@! TA.AperFunction,Plated,PTH,ComponentDrill
T6C0.1260
%
G90
G05
T1
X4.137Y-3.166
X4.147Y-3.291
X4.3972Y-3.4185
X4.5606Y-3.4476
X4.5953Y-3.6555
X4.6709Y-3.9559
X4.7484Y-3.7882
X4.7591Y-3.9563
X4.7622Y-3.6906
X4.7819Y-3.6118
X4.8061Y-3.6345
X4.8098Y-3.5205
X4.823Y-3.92
X4.8264Y-3.7602
X4.8282Y-3.7908
X4.8496Y-3.3555
X4.8634Y-3.5437
X4.888Y-3.956
X4.9319Y-3.8031
X4.9368Y-3.7514
X4.9402Y-3.6902
X4.9411Y-3.6254
X4.9539Y-3.41
X5.006Y-3.633
X5.0854Y-3.5638
X5.0947Y-4.0152
X5.1035Y-3.7748
X5.1138Y-4.2772
X5.1153Y-4.2429
X5.1217Y-4.037
X5.122Y-3.355
X5.1311Y-3.8937
X5.139Y-3.5728
X5.1445Y-4.0071
X5.1579Y-4.0386
X5.1677Y-3.8122
X5.1705Y-3.5776
X5.195Y-3.44
X5.1994Y-3.5809
X5.212Y-4.0142
X5.2161Y-4.2445
X5.23Y-3.5814
X5.2583Y-4.0193
X5.2598Y-4.2687
X5.261Y-3.7811
X5.263Y-3.7378
X5.29Y-3.49
X5.292Y-3.383
X5.295Y-3.4171
X5.295Y-3.445
X5.3843Y-3.7931
X5.3846Y-3.5776
X5.3925Y-3.4375
X5.395Y-3.34
X5.395Y-3.4
X5.397Y-3.61
X5.4013Y-4.0907
X5.4071Y-3.7713
X5.4225Y-3.4575
X5.44Y-3.8996
X5.458Y-3.619
X5.4635Y-3.6545
X5.48Y-3.475
X5.5713Y-3.6307
X5.6825Y-3.4225
T2
X5.42Y-3.25
T3
X4.4823Y-4.211
X4.4854Y-4.287
X4.6327Y-4.135
X4.6405Y-4.0772
X4.645Y-3.279
X4.689Y-3.208
X4.7866Y-3.1925
X4.8606Y-3.1661
X5.0303Y-3.1949
X5.1748Y-3.1638
X5.3315Y-3.161
X5.428Y-3.97
X5.4697Y-4.1492
X5.6386Y-3.8512
X5.65Y-3.09
X5.715Y-3.634
T4
X4.2655Y-3.6953
X4.3155Y-3.6957
T5
X4.0Y-3.6333
X4.0Y-3.7333
X4.0Y-3.929
X4.0Y-4.029
X4.0039Y-3.3498
X4.0039Y-3.4498
X4.787Y-4.4035
X4.787Y-4.5035
X4.8201Y-2.9
X4.8201Y-3.0
X4.887Y-4.4035
X4.887Y-4.5035
X4.9201Y-2.9
X4.9201Y-3.0
X4.987Y-4.4035
X4.987Y-4.5035
X5.0201Y-2.9
X5.0201Y-3.0
X5.087Y-4.4035
X5.087Y-4.5035
X5.1201Y-2.9
X5.1201Y-3.0
X5.187Y-4.4035
X5.187Y-4.5035
X5.2201Y-2.9
X5.2201Y-3.0
X5.287Y-4.4035
X5.287Y-4.5035
X5.3201Y-2.9
X5.3201Y-3.0
X5.387Y-4.4035
X5.387Y-4.5035
X5.4201Y-2.9
X5.4201Y-3.0
X5.9429Y-3.4004
X5.9429Y-3.5004
X5.9429Y-3.6004
X5.9429Y-3.7004
X5.9429Y-3.8004
X5.9429Y-3.9004
X5.9429Y-4.0004
X6.0429Y-3.4004
X6.0429Y-3.5004
X6.0429Y-3.6004
X6.0429Y-3.7004
X6.0429Y-3.8004
X6.0429Y-3.9004
X6.0429Y-4.0004
T6
X4.01Y-3.0
X4.01Y-4.43
X5.99Y-3.0
X5.99Y-4.4291
M30
