%TF.GenerationSoftware,KiCad,Pcbnew,8.0.5*%
%TF.CreationDate,2024-12-07T09:48:31-05:00*%
%TF.ProjectId,stm32_lqfp64_test_board,73746d33-325f-46c7-9166-7036345f7465,1.1*%
%TF.SameCoordinates,Original*%
%TF.FileFunction,Legend,Top*%
%TF.FilePolarity,Positive*%
%FSLAX46Y46*%
G04 Gerber Fmt 4.6, Leading zero omitted, Abs format (unit mm)*
G04 Created by KiCad (PCBNEW 8.0.5) date 2024-12-07 09:48:31*
%MOMM*%
%LPD*%
G01*
G04 APERTURE LIST*
%ADD10C,0.101600*%
%ADD11C,0.152400*%
%ADD12C,0.150000*%
%ADD13C,0.120000*%
G04 APERTURE END LIST*
D10*
X131155032Y-117011004D02*
X131155032Y-116376004D01*
X131155032Y-116376004D02*
X131396937Y-116376004D01*
X131396937Y-116376004D02*
X131457413Y-116406242D01*
X131457413Y-116406242D02*
X131487651Y-116436480D01*
X131487651Y-116436480D02*
X131517889Y-116496956D01*
X131517889Y-116496956D02*
X131517889Y-116587670D01*
X131517889Y-116587670D02*
X131487651Y-116648146D01*
X131487651Y-116648146D02*
X131457413Y-116678385D01*
X131457413Y-116678385D02*
X131396937Y-116708623D01*
X131396937Y-116708623D02*
X131155032Y-116708623D01*
X132152889Y-116950527D02*
X132122651Y-116980766D01*
X132122651Y-116980766D02*
X132031937Y-117011004D01*
X132031937Y-117011004D02*
X131971461Y-117011004D01*
X131971461Y-117011004D02*
X131880746Y-116980766D01*
X131880746Y-116980766D02*
X131820270Y-116920289D01*
X131820270Y-116920289D02*
X131790032Y-116859813D01*
X131790032Y-116859813D02*
X131759794Y-116738861D01*
X131759794Y-116738861D02*
X131759794Y-116648146D01*
X131759794Y-116648146D02*
X131790032Y-116527194D01*
X131790032Y-116527194D02*
X131820270Y-116466718D01*
X131820270Y-116466718D02*
X131880746Y-116406242D01*
X131880746Y-116406242D02*
X131971461Y-116376004D01*
X131971461Y-116376004D02*
X132031937Y-116376004D01*
X132031937Y-116376004D02*
X132122651Y-116406242D01*
X132122651Y-116406242D02*
X132152889Y-116436480D01*
X132697175Y-116587670D02*
X132697175Y-117011004D01*
X132545984Y-116345766D02*
X132394794Y-116799337D01*
X132394794Y-116799337D02*
X132787889Y-116799337D01*
X98291633Y-99739004D02*
X98079966Y-99436623D01*
X97928776Y-99739004D02*
X97928776Y-99104004D01*
X97928776Y-99104004D02*
X98170681Y-99104004D01*
X98170681Y-99104004D02*
X98231157Y-99134242D01*
X98231157Y-99134242D02*
X98261395Y-99164480D01*
X98261395Y-99164480D02*
X98291633Y-99224956D01*
X98291633Y-99224956D02*
X98291633Y-99315670D01*
X98291633Y-99315670D02*
X98261395Y-99376146D01*
X98261395Y-99376146D02*
X98231157Y-99406385D01*
X98231157Y-99406385D02*
X98170681Y-99436623D01*
X98170681Y-99436623D02*
X97928776Y-99436623D01*
X98533538Y-99708766D02*
X98624252Y-99739004D01*
X98624252Y-99739004D02*
X98775443Y-99739004D01*
X98775443Y-99739004D02*
X98835919Y-99708766D01*
X98835919Y-99708766D02*
X98866157Y-99678527D01*
X98866157Y-99678527D02*
X98896395Y-99618051D01*
X98896395Y-99618051D02*
X98896395Y-99557575D01*
X98896395Y-99557575D02*
X98866157Y-99497099D01*
X98866157Y-99497099D02*
X98835919Y-99466861D01*
X98835919Y-99466861D02*
X98775443Y-99436623D01*
X98775443Y-99436623D02*
X98654490Y-99406385D01*
X98654490Y-99406385D02*
X98594014Y-99376146D01*
X98594014Y-99376146D02*
X98563776Y-99345908D01*
X98563776Y-99345908D02*
X98533538Y-99285432D01*
X98533538Y-99285432D02*
X98533538Y-99224956D01*
X98533538Y-99224956D02*
X98563776Y-99164480D01*
X98563776Y-99164480D02*
X98594014Y-99134242D01*
X98594014Y-99134242D02*
X98654490Y-99104004D01*
X98654490Y-99104004D02*
X98805681Y-99104004D01*
X98805681Y-99104004D02*
X98896395Y-99134242D01*
X99077824Y-99104004D02*
X99440681Y-99104004D01*
X99259252Y-99739004D02*
X99259252Y-99104004D01*
X149167404Y-89621767D02*
X148532404Y-89621767D01*
X148532404Y-89621767D02*
X148532404Y-89379862D01*
X148532404Y-89379862D02*
X148562642Y-89319386D01*
X148562642Y-89319386D02*
X148592880Y-89289148D01*
X148592880Y-89289148D02*
X148653356Y-89258910D01*
X148653356Y-89258910D02*
X148744070Y-89258910D01*
X148744070Y-89258910D02*
X148804546Y-89289148D01*
X148804546Y-89289148D02*
X148834785Y-89319386D01*
X148834785Y-89319386D02*
X148865023Y-89379862D01*
X148865023Y-89379862D02*
X148865023Y-89621767D01*
X148985975Y-89017005D02*
X148985975Y-88714624D01*
X149167404Y-89077481D02*
X148532404Y-88865815D01*
X148532404Y-88865815D02*
X149167404Y-88654148D01*
X149167404Y-88109862D02*
X149167404Y-88472719D01*
X149167404Y-88291291D02*
X148532404Y-88291291D01*
X148532404Y-88291291D02*
X148623118Y-88351767D01*
X148623118Y-88351767D02*
X148683594Y-88412243D01*
X148683594Y-88412243D02*
X148713832Y-88472719D01*
X128361032Y-109899004D02*
X128361032Y-109264004D01*
X128361032Y-109264004D02*
X128602937Y-109264004D01*
X128602937Y-109264004D02*
X128663413Y-109294242D01*
X128663413Y-109294242D02*
X128693651Y-109324480D01*
X128693651Y-109324480D02*
X128723889Y-109384956D01*
X128723889Y-109384956D02*
X128723889Y-109475670D01*
X128723889Y-109475670D02*
X128693651Y-109536146D01*
X128693651Y-109536146D02*
X128663413Y-109566385D01*
X128663413Y-109566385D02*
X128602937Y-109596623D01*
X128602937Y-109596623D02*
X128361032Y-109596623D01*
X129358889Y-109838527D02*
X129328651Y-109868766D01*
X129328651Y-109868766D02*
X129237937Y-109899004D01*
X129237937Y-109899004D02*
X129177461Y-109899004D01*
X129177461Y-109899004D02*
X129086746Y-109868766D01*
X129086746Y-109868766D02*
X129026270Y-109808289D01*
X129026270Y-109808289D02*
X128996032Y-109747813D01*
X128996032Y-109747813D02*
X128965794Y-109626861D01*
X128965794Y-109626861D02*
X128965794Y-109536146D01*
X128965794Y-109536146D02*
X128996032Y-109415194D01*
X128996032Y-109415194D02*
X129026270Y-109354718D01*
X129026270Y-109354718D02*
X129086746Y-109294242D01*
X129086746Y-109294242D02*
X129177461Y-109264004D01*
X129177461Y-109264004D02*
X129237937Y-109264004D01*
X129237937Y-109264004D02*
X129328651Y-109294242D01*
X129328651Y-109294242D02*
X129358889Y-109324480D01*
X129963651Y-109899004D02*
X129600794Y-109899004D01*
X129782222Y-109899004D02*
X129782222Y-109264004D01*
X129782222Y-109264004D02*
X129721746Y-109354718D01*
X129721746Y-109354718D02*
X129661270Y-109415194D01*
X129661270Y-109415194D02*
X129600794Y-109445432D01*
X130356746Y-109264004D02*
X130417223Y-109264004D01*
X130417223Y-109264004D02*
X130477699Y-109294242D01*
X130477699Y-109294242D02*
X130507937Y-109324480D01*
X130507937Y-109324480D02*
X130538175Y-109384956D01*
X130538175Y-109384956D02*
X130568413Y-109505908D01*
X130568413Y-109505908D02*
X130568413Y-109657099D01*
X130568413Y-109657099D02*
X130538175Y-109778051D01*
X130538175Y-109778051D02*
X130507937Y-109838527D01*
X130507937Y-109838527D02*
X130477699Y-109868766D01*
X130477699Y-109868766D02*
X130417223Y-109899004D01*
X130417223Y-109899004D02*
X130356746Y-109899004D01*
X130356746Y-109899004D02*
X130296270Y-109868766D01*
X130296270Y-109868766D02*
X130266032Y-109838527D01*
X130266032Y-109838527D02*
X130235794Y-109778051D01*
X130235794Y-109778051D02*
X130205556Y-109657099D01*
X130205556Y-109657099D02*
X130205556Y-109505908D01*
X130205556Y-109505908D02*
X130235794Y-109384956D01*
X130235794Y-109384956D02*
X130266032Y-109324480D01*
X130266032Y-109324480D02*
X130296270Y-109294242D01*
X130296270Y-109294242D02*
X130356746Y-109264004D01*
X134457032Y-71799004D02*
X134457032Y-71164004D01*
X134457032Y-71164004D02*
X134698937Y-71164004D01*
X134698937Y-71164004D02*
X134759413Y-71194242D01*
X134759413Y-71194242D02*
X134789651Y-71224480D01*
X134789651Y-71224480D02*
X134819889Y-71284956D01*
X134819889Y-71284956D02*
X134819889Y-71375670D01*
X134819889Y-71375670D02*
X134789651Y-71436146D01*
X134789651Y-71436146D02*
X134759413Y-71466385D01*
X134759413Y-71466385D02*
X134698937Y-71496623D01*
X134698937Y-71496623D02*
X134457032Y-71496623D01*
X135303699Y-71466385D02*
X135394413Y-71496623D01*
X135394413Y-71496623D02*
X135424651Y-71526861D01*
X135424651Y-71526861D02*
X135454889Y-71587337D01*
X135454889Y-71587337D02*
X135454889Y-71678051D01*
X135454889Y-71678051D02*
X135424651Y-71738527D01*
X135424651Y-71738527D02*
X135394413Y-71768766D01*
X135394413Y-71768766D02*
X135333937Y-71799004D01*
X135333937Y-71799004D02*
X135092032Y-71799004D01*
X135092032Y-71799004D02*
X135092032Y-71164004D01*
X135092032Y-71164004D02*
X135303699Y-71164004D01*
X135303699Y-71164004D02*
X135364175Y-71194242D01*
X135364175Y-71194242D02*
X135394413Y-71224480D01*
X135394413Y-71224480D02*
X135424651Y-71284956D01*
X135424651Y-71284956D02*
X135424651Y-71345432D01*
X135424651Y-71345432D02*
X135394413Y-71405908D01*
X135394413Y-71405908D02*
X135364175Y-71436146D01*
X135364175Y-71436146D02*
X135303699Y-71466385D01*
X135303699Y-71466385D02*
X135092032Y-71466385D01*
X136059651Y-71799004D02*
X135696794Y-71799004D01*
X135878222Y-71799004D02*
X135878222Y-71164004D01*
X135878222Y-71164004D02*
X135817746Y-71254718D01*
X135817746Y-71254718D02*
X135757270Y-71315194D01*
X135757270Y-71315194D02*
X135696794Y-71345432D01*
X97354252Y-101644004D02*
X97565918Y-102279004D01*
X97565918Y-102279004D02*
X97777585Y-101644004D01*
X98200919Y-101946385D02*
X98291633Y-101976623D01*
X98291633Y-101976623D02*
X98321871Y-102006861D01*
X98321871Y-102006861D02*
X98352109Y-102067337D01*
X98352109Y-102067337D02*
X98352109Y-102158051D01*
X98352109Y-102158051D02*
X98321871Y-102218527D01*
X98321871Y-102218527D02*
X98291633Y-102248766D01*
X98291633Y-102248766D02*
X98231157Y-102279004D01*
X98231157Y-102279004D02*
X97989252Y-102279004D01*
X97989252Y-102279004D02*
X97989252Y-101644004D01*
X97989252Y-101644004D02*
X98200919Y-101644004D01*
X98200919Y-101644004D02*
X98261395Y-101674242D01*
X98261395Y-101674242D02*
X98291633Y-101704480D01*
X98291633Y-101704480D02*
X98321871Y-101764956D01*
X98321871Y-101764956D02*
X98321871Y-101825432D01*
X98321871Y-101825432D02*
X98291633Y-101885908D01*
X98291633Y-101885908D02*
X98261395Y-101916146D01*
X98261395Y-101916146D02*
X98200919Y-101946385D01*
X98200919Y-101946385D02*
X97989252Y-101946385D01*
X98594014Y-102097575D02*
X98896395Y-102097575D01*
X98533538Y-102279004D02*
X98745204Y-101644004D01*
X98745204Y-101644004D02*
X98956871Y-102279004D01*
X99077824Y-101644004D02*
X99440681Y-101644004D01*
X99259252Y-102279004D02*
X99259252Y-101644004D01*
X129504032Y-71799004D02*
X129504032Y-71164004D01*
X129504032Y-71164004D02*
X129745937Y-71164004D01*
X129745937Y-71164004D02*
X129806413Y-71194242D01*
X129806413Y-71194242D02*
X129836651Y-71224480D01*
X129836651Y-71224480D02*
X129866889Y-71284956D01*
X129866889Y-71284956D02*
X129866889Y-71375670D01*
X129866889Y-71375670D02*
X129836651Y-71436146D01*
X129836651Y-71436146D02*
X129806413Y-71466385D01*
X129806413Y-71466385D02*
X129745937Y-71496623D01*
X129745937Y-71496623D02*
X129504032Y-71496623D01*
X130350699Y-71466385D02*
X130441413Y-71496623D01*
X130441413Y-71496623D02*
X130471651Y-71526861D01*
X130471651Y-71526861D02*
X130501889Y-71587337D01*
X130501889Y-71587337D02*
X130501889Y-71678051D01*
X130501889Y-71678051D02*
X130471651Y-71738527D01*
X130471651Y-71738527D02*
X130441413Y-71768766D01*
X130441413Y-71768766D02*
X130380937Y-71799004D01*
X130380937Y-71799004D02*
X130139032Y-71799004D01*
X130139032Y-71799004D02*
X130139032Y-71164004D01*
X130139032Y-71164004D02*
X130350699Y-71164004D01*
X130350699Y-71164004D02*
X130411175Y-71194242D01*
X130411175Y-71194242D02*
X130441413Y-71224480D01*
X130441413Y-71224480D02*
X130471651Y-71284956D01*
X130471651Y-71284956D02*
X130471651Y-71345432D01*
X130471651Y-71345432D02*
X130441413Y-71405908D01*
X130441413Y-71405908D02*
X130411175Y-71436146D01*
X130411175Y-71436146D02*
X130350699Y-71466385D01*
X130350699Y-71466385D02*
X130139032Y-71466385D01*
X131046175Y-71375670D02*
X131046175Y-71799004D01*
X130894984Y-71133766D02*
X130743794Y-71587337D01*
X130743794Y-71587337D02*
X131136889Y-71587337D01*
X149167404Y-97241767D02*
X148532404Y-97241767D01*
X148532404Y-97241767D02*
X148532404Y-96999862D01*
X148532404Y-96999862D02*
X148562642Y-96939386D01*
X148562642Y-96939386D02*
X148592880Y-96909148D01*
X148592880Y-96909148D02*
X148653356Y-96878910D01*
X148653356Y-96878910D02*
X148744070Y-96878910D01*
X148744070Y-96878910D02*
X148804546Y-96909148D01*
X148804546Y-96909148D02*
X148834785Y-96939386D01*
X148834785Y-96939386D02*
X148865023Y-96999862D01*
X148865023Y-96999862D02*
X148865023Y-97241767D01*
X148985975Y-96637005D02*
X148985975Y-96334624D01*
X149167404Y-96697481D02*
X148532404Y-96485815D01*
X148532404Y-96485815D02*
X149167404Y-96274148D01*
X148744070Y-95790338D02*
X149167404Y-95790338D01*
X148502166Y-95941529D02*
X148955737Y-96092719D01*
X148955737Y-96092719D02*
X148955737Y-95699624D01*
X131663032Y-78657004D02*
X131663032Y-78022004D01*
X131663032Y-78022004D02*
X131904937Y-78022004D01*
X131904937Y-78022004D02*
X131965413Y-78052242D01*
X131965413Y-78052242D02*
X131995651Y-78082480D01*
X131995651Y-78082480D02*
X132025889Y-78142956D01*
X132025889Y-78142956D02*
X132025889Y-78233670D01*
X132025889Y-78233670D02*
X131995651Y-78294146D01*
X131995651Y-78294146D02*
X131965413Y-78324385D01*
X131965413Y-78324385D02*
X131904937Y-78354623D01*
X131904937Y-78354623D02*
X131663032Y-78354623D01*
X132509699Y-78324385D02*
X132600413Y-78354623D01*
X132600413Y-78354623D02*
X132630651Y-78384861D01*
X132630651Y-78384861D02*
X132660889Y-78445337D01*
X132660889Y-78445337D02*
X132660889Y-78536051D01*
X132660889Y-78536051D02*
X132630651Y-78596527D01*
X132630651Y-78596527D02*
X132600413Y-78626766D01*
X132600413Y-78626766D02*
X132539937Y-78657004D01*
X132539937Y-78657004D02*
X132298032Y-78657004D01*
X132298032Y-78657004D02*
X132298032Y-78022004D01*
X132298032Y-78022004D02*
X132509699Y-78022004D01*
X132509699Y-78022004D02*
X132570175Y-78052242D01*
X132570175Y-78052242D02*
X132600413Y-78082480D01*
X132600413Y-78082480D02*
X132630651Y-78142956D01*
X132630651Y-78142956D02*
X132630651Y-78203432D01*
X132630651Y-78203432D02*
X132600413Y-78263908D01*
X132600413Y-78263908D02*
X132570175Y-78294146D01*
X132570175Y-78294146D02*
X132509699Y-78324385D01*
X132509699Y-78324385D02*
X132298032Y-78324385D01*
X133265651Y-78657004D02*
X132902794Y-78657004D01*
X133084222Y-78657004D02*
X133084222Y-78022004D01*
X133084222Y-78022004D02*
X133023746Y-78112718D01*
X133023746Y-78112718D02*
X132963270Y-78173194D01*
X132963270Y-78173194D02*
X132902794Y-78203432D01*
X133507556Y-78082480D02*
X133537794Y-78052242D01*
X133537794Y-78052242D02*
X133598270Y-78022004D01*
X133598270Y-78022004D02*
X133749461Y-78022004D01*
X133749461Y-78022004D02*
X133809937Y-78052242D01*
X133809937Y-78052242D02*
X133840175Y-78082480D01*
X133840175Y-78082480D02*
X133870413Y-78142956D01*
X133870413Y-78142956D02*
X133870413Y-78203432D01*
X133870413Y-78203432D02*
X133840175Y-78294146D01*
X133840175Y-78294146D02*
X133477318Y-78657004D01*
X133477318Y-78657004D02*
X133870413Y-78657004D01*
X121884032Y-71799004D02*
X121884032Y-71164004D01*
X121884032Y-71164004D02*
X122125937Y-71164004D01*
X122125937Y-71164004D02*
X122186413Y-71194242D01*
X122186413Y-71194242D02*
X122216651Y-71224480D01*
X122216651Y-71224480D02*
X122246889Y-71284956D01*
X122246889Y-71284956D02*
X122246889Y-71375670D01*
X122246889Y-71375670D02*
X122216651Y-71436146D01*
X122216651Y-71436146D02*
X122186413Y-71466385D01*
X122186413Y-71466385D02*
X122125937Y-71496623D01*
X122125937Y-71496623D02*
X121884032Y-71496623D01*
X122730699Y-71466385D02*
X122821413Y-71496623D01*
X122821413Y-71496623D02*
X122851651Y-71526861D01*
X122851651Y-71526861D02*
X122881889Y-71587337D01*
X122881889Y-71587337D02*
X122881889Y-71678051D01*
X122881889Y-71678051D02*
X122851651Y-71738527D01*
X122851651Y-71738527D02*
X122821413Y-71768766D01*
X122821413Y-71768766D02*
X122760937Y-71799004D01*
X122760937Y-71799004D02*
X122519032Y-71799004D01*
X122519032Y-71799004D02*
X122519032Y-71164004D01*
X122519032Y-71164004D02*
X122730699Y-71164004D01*
X122730699Y-71164004D02*
X122791175Y-71194242D01*
X122791175Y-71194242D02*
X122821413Y-71224480D01*
X122821413Y-71224480D02*
X122851651Y-71284956D01*
X122851651Y-71284956D02*
X122851651Y-71345432D01*
X122851651Y-71345432D02*
X122821413Y-71405908D01*
X122821413Y-71405908D02*
X122791175Y-71436146D01*
X122791175Y-71436146D02*
X122730699Y-71466385D01*
X122730699Y-71466385D02*
X122519032Y-71466385D01*
X123093556Y-71164004D02*
X123516889Y-71164004D01*
X123516889Y-71164004D02*
X123244746Y-71799004D01*
X97747348Y-84880004D02*
X97959014Y-85515004D01*
X97959014Y-85515004D02*
X98170681Y-84880004D01*
X98382348Y-85515004D02*
X98382348Y-84880004D01*
X98382348Y-84880004D02*
X98533538Y-84880004D01*
X98533538Y-84880004D02*
X98624253Y-84910242D01*
X98624253Y-84910242D02*
X98684729Y-84970718D01*
X98684729Y-84970718D02*
X98714967Y-85031194D01*
X98714967Y-85031194D02*
X98745205Y-85152146D01*
X98745205Y-85152146D02*
X98745205Y-85242861D01*
X98745205Y-85242861D02*
X98714967Y-85363813D01*
X98714967Y-85363813D02*
X98684729Y-85424289D01*
X98684729Y-85424289D02*
X98624253Y-85484766D01*
X98624253Y-85484766D02*
X98533538Y-85515004D01*
X98533538Y-85515004D02*
X98382348Y-85515004D01*
X99017348Y-85515004D02*
X99017348Y-84880004D01*
X99017348Y-84880004D02*
X99168538Y-84880004D01*
X99168538Y-84880004D02*
X99259253Y-84910242D01*
X99259253Y-84910242D02*
X99319729Y-84970718D01*
X99319729Y-84970718D02*
X99349967Y-85031194D01*
X99349967Y-85031194D02*
X99380205Y-85152146D01*
X99380205Y-85152146D02*
X99380205Y-85242861D01*
X99380205Y-85242861D02*
X99349967Y-85363813D01*
X99349967Y-85363813D02*
X99319729Y-85424289D01*
X99319729Y-85424289D02*
X99259253Y-85484766D01*
X99259253Y-85484766D02*
X99168538Y-85515004D01*
X99168538Y-85515004D02*
X99017348Y-85515004D01*
X155923804Y-97419567D02*
X155288804Y-97419567D01*
X155288804Y-97419567D02*
X155288804Y-97177662D01*
X155288804Y-97177662D02*
X155319042Y-97117186D01*
X155319042Y-97117186D02*
X155349280Y-97086948D01*
X155349280Y-97086948D02*
X155409756Y-97056710D01*
X155409756Y-97056710D02*
X155500470Y-97056710D01*
X155500470Y-97056710D02*
X155560946Y-97086948D01*
X155560946Y-97086948D02*
X155591185Y-97117186D01*
X155591185Y-97117186D02*
X155621423Y-97177662D01*
X155621423Y-97177662D02*
X155621423Y-97419567D01*
X155742375Y-96814805D02*
X155742375Y-96512424D01*
X155923804Y-96875281D02*
X155288804Y-96663615D01*
X155288804Y-96663615D02*
X155923804Y-96451948D01*
X155923804Y-96210043D02*
X155923804Y-96089091D01*
X155923804Y-96089091D02*
X155893566Y-96028614D01*
X155893566Y-96028614D02*
X155863327Y-95998376D01*
X155863327Y-95998376D02*
X155772613Y-95937900D01*
X155772613Y-95937900D02*
X155651661Y-95907662D01*
X155651661Y-95907662D02*
X155409756Y-95907662D01*
X155409756Y-95907662D02*
X155349280Y-95937900D01*
X155349280Y-95937900D02*
X155319042Y-95968138D01*
X155319042Y-95968138D02*
X155288804Y-96028614D01*
X155288804Y-96028614D02*
X155288804Y-96149567D01*
X155288804Y-96149567D02*
X155319042Y-96210043D01*
X155319042Y-96210043D02*
X155349280Y-96240281D01*
X155349280Y-96240281D02*
X155409756Y-96270519D01*
X155409756Y-96270519D02*
X155560946Y-96270519D01*
X155560946Y-96270519D02*
X155621423Y-96240281D01*
X155621423Y-96240281D02*
X155651661Y-96210043D01*
X155651661Y-96210043D02*
X155681899Y-96149567D01*
X155681899Y-96149567D02*
X155681899Y-96028614D01*
X155681899Y-96028614D02*
X155651661Y-95968138D01*
X155651661Y-95968138D02*
X155621423Y-95937900D01*
X155621423Y-95937900D02*
X155560946Y-95907662D01*
X124424032Y-71799004D02*
X124424032Y-71164004D01*
X124424032Y-71164004D02*
X124665937Y-71164004D01*
X124665937Y-71164004D02*
X124726413Y-71194242D01*
X124726413Y-71194242D02*
X124756651Y-71224480D01*
X124756651Y-71224480D02*
X124786889Y-71284956D01*
X124786889Y-71284956D02*
X124786889Y-71375670D01*
X124786889Y-71375670D02*
X124756651Y-71436146D01*
X124756651Y-71436146D02*
X124726413Y-71466385D01*
X124726413Y-71466385D02*
X124665937Y-71496623D01*
X124665937Y-71496623D02*
X124424032Y-71496623D01*
X125270699Y-71466385D02*
X125361413Y-71496623D01*
X125361413Y-71496623D02*
X125391651Y-71526861D01*
X125391651Y-71526861D02*
X125421889Y-71587337D01*
X125421889Y-71587337D02*
X125421889Y-71678051D01*
X125421889Y-71678051D02*
X125391651Y-71738527D01*
X125391651Y-71738527D02*
X125361413Y-71768766D01*
X125361413Y-71768766D02*
X125300937Y-71799004D01*
X125300937Y-71799004D02*
X125059032Y-71799004D01*
X125059032Y-71799004D02*
X125059032Y-71164004D01*
X125059032Y-71164004D02*
X125270699Y-71164004D01*
X125270699Y-71164004D02*
X125331175Y-71194242D01*
X125331175Y-71194242D02*
X125361413Y-71224480D01*
X125361413Y-71224480D02*
X125391651Y-71284956D01*
X125391651Y-71284956D02*
X125391651Y-71345432D01*
X125391651Y-71345432D02*
X125361413Y-71405908D01*
X125361413Y-71405908D02*
X125331175Y-71436146D01*
X125331175Y-71436146D02*
X125270699Y-71466385D01*
X125270699Y-71466385D02*
X125059032Y-71466385D01*
X125966175Y-71164004D02*
X125845222Y-71164004D01*
X125845222Y-71164004D02*
X125784746Y-71194242D01*
X125784746Y-71194242D02*
X125754508Y-71224480D01*
X125754508Y-71224480D02*
X125694032Y-71315194D01*
X125694032Y-71315194D02*
X125663794Y-71436146D01*
X125663794Y-71436146D02*
X125663794Y-71678051D01*
X125663794Y-71678051D02*
X125694032Y-71738527D01*
X125694032Y-71738527D02*
X125724270Y-71768766D01*
X125724270Y-71768766D02*
X125784746Y-71799004D01*
X125784746Y-71799004D02*
X125905699Y-71799004D01*
X125905699Y-71799004D02*
X125966175Y-71768766D01*
X125966175Y-71768766D02*
X125996413Y-71738527D01*
X125996413Y-71738527D02*
X126026651Y-71678051D01*
X126026651Y-71678051D02*
X126026651Y-71526861D01*
X126026651Y-71526861D02*
X125996413Y-71466385D01*
X125996413Y-71466385D02*
X125966175Y-71436146D01*
X125966175Y-71436146D02*
X125905699Y-71405908D01*
X125905699Y-71405908D02*
X125784746Y-71405908D01*
X125784746Y-71405908D02*
X125724270Y-71436146D01*
X125724270Y-71436146D02*
X125694032Y-71466385D01*
X125694032Y-71466385D02*
X125663794Y-71526861D01*
X136108032Y-109899004D02*
X136108032Y-109264004D01*
X136108032Y-109264004D02*
X136349937Y-109264004D01*
X136349937Y-109264004D02*
X136410413Y-109294242D01*
X136410413Y-109294242D02*
X136440651Y-109324480D01*
X136440651Y-109324480D02*
X136470889Y-109384956D01*
X136470889Y-109384956D02*
X136470889Y-109475670D01*
X136470889Y-109475670D02*
X136440651Y-109536146D01*
X136440651Y-109536146D02*
X136410413Y-109566385D01*
X136410413Y-109566385D02*
X136349937Y-109596623D01*
X136349937Y-109596623D02*
X136108032Y-109596623D01*
X137105889Y-109838527D02*
X137075651Y-109868766D01*
X137075651Y-109868766D02*
X136984937Y-109899004D01*
X136984937Y-109899004D02*
X136924461Y-109899004D01*
X136924461Y-109899004D02*
X136833746Y-109868766D01*
X136833746Y-109868766D02*
X136773270Y-109808289D01*
X136773270Y-109808289D02*
X136743032Y-109747813D01*
X136743032Y-109747813D02*
X136712794Y-109626861D01*
X136712794Y-109626861D02*
X136712794Y-109536146D01*
X136712794Y-109536146D02*
X136743032Y-109415194D01*
X136743032Y-109415194D02*
X136773270Y-109354718D01*
X136773270Y-109354718D02*
X136833746Y-109294242D01*
X136833746Y-109294242D02*
X136924461Y-109264004D01*
X136924461Y-109264004D02*
X136984937Y-109264004D01*
X136984937Y-109264004D02*
X137075651Y-109294242D01*
X137075651Y-109294242D02*
X137105889Y-109324480D01*
X137317556Y-109264004D02*
X137740889Y-109264004D01*
X137740889Y-109264004D02*
X137468746Y-109899004D01*
X136870032Y-78657004D02*
X136870032Y-78022004D01*
X136870032Y-78022004D02*
X137111937Y-78022004D01*
X137111937Y-78022004D02*
X137172413Y-78052242D01*
X137172413Y-78052242D02*
X137202651Y-78082480D01*
X137202651Y-78082480D02*
X137232889Y-78142956D01*
X137232889Y-78142956D02*
X137232889Y-78233670D01*
X137232889Y-78233670D02*
X137202651Y-78294146D01*
X137202651Y-78294146D02*
X137172413Y-78324385D01*
X137172413Y-78324385D02*
X137111937Y-78354623D01*
X137111937Y-78354623D02*
X136870032Y-78354623D01*
X137716699Y-78324385D02*
X137807413Y-78354623D01*
X137807413Y-78354623D02*
X137837651Y-78384861D01*
X137837651Y-78384861D02*
X137867889Y-78445337D01*
X137867889Y-78445337D02*
X137867889Y-78536051D01*
X137867889Y-78536051D02*
X137837651Y-78596527D01*
X137837651Y-78596527D02*
X137807413Y-78626766D01*
X137807413Y-78626766D02*
X137746937Y-78657004D01*
X137746937Y-78657004D02*
X137505032Y-78657004D01*
X137505032Y-78657004D02*
X137505032Y-78022004D01*
X137505032Y-78022004D02*
X137716699Y-78022004D01*
X137716699Y-78022004D02*
X137777175Y-78052242D01*
X137777175Y-78052242D02*
X137807413Y-78082480D01*
X137807413Y-78082480D02*
X137837651Y-78142956D01*
X137837651Y-78142956D02*
X137837651Y-78203432D01*
X137837651Y-78203432D02*
X137807413Y-78263908D01*
X137807413Y-78263908D02*
X137777175Y-78294146D01*
X137777175Y-78294146D02*
X137716699Y-78324385D01*
X137716699Y-78324385D02*
X137505032Y-78324385D01*
X138472651Y-78657004D02*
X138109794Y-78657004D01*
X138291222Y-78657004D02*
X138291222Y-78022004D01*
X138291222Y-78022004D02*
X138230746Y-78112718D01*
X138230746Y-78112718D02*
X138170270Y-78173194D01*
X138170270Y-78173194D02*
X138109794Y-78203432D01*
X139016937Y-78233670D02*
X139016937Y-78657004D01*
X138865746Y-77991766D02*
X138714556Y-78445337D01*
X138714556Y-78445337D02*
X139107651Y-78445337D01*
X97203062Y-91992004D02*
X97414728Y-92627004D01*
X97414728Y-92627004D02*
X97626395Y-91992004D01*
X97838062Y-92627004D02*
X97838062Y-91992004D01*
X97838062Y-91992004D02*
X97989252Y-91992004D01*
X97989252Y-91992004D02*
X98079967Y-92022242D01*
X98079967Y-92022242D02*
X98140443Y-92082718D01*
X98140443Y-92082718D02*
X98170681Y-92143194D01*
X98170681Y-92143194D02*
X98200919Y-92264146D01*
X98200919Y-92264146D02*
X98200919Y-92354861D01*
X98200919Y-92354861D02*
X98170681Y-92475813D01*
X98170681Y-92475813D02*
X98140443Y-92536289D01*
X98140443Y-92536289D02*
X98079967Y-92596766D01*
X98079967Y-92596766D02*
X97989252Y-92627004D01*
X97989252Y-92627004D02*
X97838062Y-92627004D01*
X98473062Y-92627004D02*
X98473062Y-91992004D01*
X98473062Y-91992004D02*
X98624252Y-91992004D01*
X98624252Y-91992004D02*
X98714967Y-92022242D01*
X98714967Y-92022242D02*
X98775443Y-92082718D01*
X98775443Y-92082718D02*
X98805681Y-92143194D01*
X98805681Y-92143194D02*
X98835919Y-92264146D01*
X98835919Y-92264146D02*
X98835919Y-92354861D01*
X98835919Y-92354861D02*
X98805681Y-92475813D01*
X98805681Y-92475813D02*
X98775443Y-92536289D01*
X98775443Y-92536289D02*
X98714967Y-92596766D01*
X98714967Y-92596766D02*
X98624252Y-92627004D01*
X98624252Y-92627004D02*
X98473062Y-92627004D01*
X99077824Y-92445575D02*
X99380205Y-92445575D01*
X99017348Y-92627004D02*
X99229014Y-91992004D01*
X99229014Y-91992004D02*
X99440681Y-92627004D01*
X123535032Y-117011004D02*
X123535032Y-116376004D01*
X123535032Y-116376004D02*
X123776937Y-116376004D01*
X123776937Y-116376004D02*
X123837413Y-116406242D01*
X123837413Y-116406242D02*
X123867651Y-116436480D01*
X123867651Y-116436480D02*
X123897889Y-116496956D01*
X123897889Y-116496956D02*
X123897889Y-116587670D01*
X123897889Y-116587670D02*
X123867651Y-116648146D01*
X123867651Y-116648146D02*
X123837413Y-116678385D01*
X123837413Y-116678385D02*
X123776937Y-116708623D01*
X123776937Y-116708623D02*
X123535032Y-116708623D01*
X124532889Y-116950527D02*
X124502651Y-116980766D01*
X124502651Y-116980766D02*
X124411937Y-117011004D01*
X124411937Y-117011004D02*
X124351461Y-117011004D01*
X124351461Y-117011004D02*
X124260746Y-116980766D01*
X124260746Y-116980766D02*
X124200270Y-116920289D01*
X124200270Y-116920289D02*
X124170032Y-116859813D01*
X124170032Y-116859813D02*
X124139794Y-116738861D01*
X124139794Y-116738861D02*
X124139794Y-116648146D01*
X124139794Y-116648146D02*
X124170032Y-116527194D01*
X124170032Y-116527194D02*
X124200270Y-116466718D01*
X124200270Y-116466718D02*
X124260746Y-116406242D01*
X124260746Y-116406242D02*
X124351461Y-116376004D01*
X124351461Y-116376004D02*
X124411937Y-116376004D01*
X124411937Y-116376004D02*
X124502651Y-116406242D01*
X124502651Y-116406242D02*
X124532889Y-116436480D01*
X125137651Y-117011004D02*
X124774794Y-117011004D01*
X124956222Y-117011004D02*
X124956222Y-116376004D01*
X124956222Y-116376004D02*
X124895746Y-116466718D01*
X124895746Y-116466718D02*
X124835270Y-116527194D01*
X124835270Y-116527194D02*
X124774794Y-116557432D01*
X126456032Y-78657004D02*
X126456032Y-78022004D01*
X126456032Y-78022004D02*
X126697937Y-78022004D01*
X126697937Y-78022004D02*
X126758413Y-78052242D01*
X126758413Y-78052242D02*
X126788651Y-78082480D01*
X126788651Y-78082480D02*
X126818889Y-78142956D01*
X126818889Y-78142956D02*
X126818889Y-78233670D01*
X126818889Y-78233670D02*
X126788651Y-78294146D01*
X126788651Y-78294146D02*
X126758413Y-78324385D01*
X126758413Y-78324385D02*
X126697937Y-78354623D01*
X126697937Y-78354623D02*
X126456032Y-78354623D01*
X127302699Y-78324385D02*
X127393413Y-78354623D01*
X127393413Y-78354623D02*
X127423651Y-78384861D01*
X127423651Y-78384861D02*
X127453889Y-78445337D01*
X127453889Y-78445337D02*
X127453889Y-78536051D01*
X127453889Y-78536051D02*
X127423651Y-78596527D01*
X127423651Y-78596527D02*
X127393413Y-78626766D01*
X127393413Y-78626766D02*
X127332937Y-78657004D01*
X127332937Y-78657004D02*
X127091032Y-78657004D01*
X127091032Y-78657004D02*
X127091032Y-78022004D01*
X127091032Y-78022004D02*
X127302699Y-78022004D01*
X127302699Y-78022004D02*
X127363175Y-78052242D01*
X127363175Y-78052242D02*
X127393413Y-78082480D01*
X127393413Y-78082480D02*
X127423651Y-78142956D01*
X127423651Y-78142956D02*
X127423651Y-78203432D01*
X127423651Y-78203432D02*
X127393413Y-78263908D01*
X127393413Y-78263908D02*
X127363175Y-78294146D01*
X127363175Y-78294146D02*
X127302699Y-78324385D01*
X127302699Y-78324385D02*
X127091032Y-78324385D01*
X128058651Y-78657004D02*
X127695794Y-78657004D01*
X127877222Y-78657004D02*
X127877222Y-78022004D01*
X127877222Y-78022004D02*
X127816746Y-78112718D01*
X127816746Y-78112718D02*
X127756270Y-78173194D01*
X127756270Y-78173194D02*
X127695794Y-78203432D01*
X128451746Y-78022004D02*
X128512223Y-78022004D01*
X128512223Y-78022004D02*
X128572699Y-78052242D01*
X128572699Y-78052242D02*
X128602937Y-78082480D01*
X128602937Y-78082480D02*
X128633175Y-78142956D01*
X128633175Y-78142956D02*
X128663413Y-78263908D01*
X128663413Y-78263908D02*
X128663413Y-78415099D01*
X128663413Y-78415099D02*
X128633175Y-78536051D01*
X128633175Y-78536051D02*
X128602937Y-78596527D01*
X128602937Y-78596527D02*
X128572699Y-78626766D01*
X128572699Y-78626766D02*
X128512223Y-78657004D01*
X128512223Y-78657004D02*
X128451746Y-78657004D01*
X128451746Y-78657004D02*
X128391270Y-78626766D01*
X128391270Y-78626766D02*
X128361032Y-78596527D01*
X128361032Y-78596527D02*
X128330794Y-78536051D01*
X128330794Y-78536051D02*
X128300556Y-78415099D01*
X128300556Y-78415099D02*
X128300556Y-78263908D01*
X128300556Y-78263908D02*
X128330794Y-78142956D01*
X128330794Y-78142956D02*
X128361032Y-78082480D01*
X128361032Y-78082480D02*
X128391270Y-78052242D01*
X128391270Y-78052242D02*
X128451746Y-78022004D01*
X120360032Y-109899004D02*
X120360032Y-109264004D01*
X120360032Y-109264004D02*
X120601937Y-109264004D01*
X120601937Y-109264004D02*
X120662413Y-109294242D01*
X120662413Y-109294242D02*
X120692651Y-109324480D01*
X120692651Y-109324480D02*
X120722889Y-109384956D01*
X120722889Y-109384956D02*
X120722889Y-109475670D01*
X120722889Y-109475670D02*
X120692651Y-109536146D01*
X120692651Y-109536146D02*
X120662413Y-109566385D01*
X120662413Y-109566385D02*
X120601937Y-109596623D01*
X120601937Y-109596623D02*
X120360032Y-109596623D01*
X121357889Y-109838527D02*
X121327651Y-109868766D01*
X121327651Y-109868766D02*
X121236937Y-109899004D01*
X121236937Y-109899004D02*
X121176461Y-109899004D01*
X121176461Y-109899004D02*
X121085746Y-109868766D01*
X121085746Y-109868766D02*
X121025270Y-109808289D01*
X121025270Y-109808289D02*
X120995032Y-109747813D01*
X120995032Y-109747813D02*
X120964794Y-109626861D01*
X120964794Y-109626861D02*
X120964794Y-109536146D01*
X120964794Y-109536146D02*
X120995032Y-109415194D01*
X120995032Y-109415194D02*
X121025270Y-109354718D01*
X121025270Y-109354718D02*
X121085746Y-109294242D01*
X121085746Y-109294242D02*
X121176461Y-109264004D01*
X121176461Y-109264004D02*
X121236937Y-109264004D01*
X121236937Y-109264004D02*
X121327651Y-109294242D01*
X121327651Y-109294242D02*
X121357889Y-109324480D01*
X121962651Y-109899004D02*
X121599794Y-109899004D01*
X121781222Y-109899004D02*
X121781222Y-109264004D01*
X121781222Y-109264004D02*
X121720746Y-109354718D01*
X121720746Y-109354718D02*
X121660270Y-109415194D01*
X121660270Y-109415194D02*
X121599794Y-109445432D01*
X122174318Y-109264004D02*
X122567413Y-109264004D01*
X122567413Y-109264004D02*
X122355746Y-109505908D01*
X122355746Y-109505908D02*
X122446461Y-109505908D01*
X122446461Y-109505908D02*
X122506937Y-109536146D01*
X122506937Y-109536146D02*
X122537175Y-109566385D01*
X122537175Y-109566385D02*
X122567413Y-109626861D01*
X122567413Y-109626861D02*
X122567413Y-109778051D01*
X122567413Y-109778051D02*
X122537175Y-109838527D01*
X122537175Y-109838527D02*
X122506937Y-109868766D01*
X122506937Y-109868766D02*
X122446461Y-109899004D01*
X122446461Y-109899004D02*
X122265032Y-109899004D01*
X122265032Y-109899004D02*
X122204556Y-109868766D01*
X122204556Y-109868766D02*
X122174318Y-109838527D01*
X128615032Y-117011004D02*
X128615032Y-116376004D01*
X128615032Y-116376004D02*
X128856937Y-116376004D01*
X128856937Y-116376004D02*
X128917413Y-116406242D01*
X128917413Y-116406242D02*
X128947651Y-116436480D01*
X128947651Y-116436480D02*
X128977889Y-116496956D01*
X128977889Y-116496956D02*
X128977889Y-116587670D01*
X128977889Y-116587670D02*
X128947651Y-116648146D01*
X128947651Y-116648146D02*
X128917413Y-116678385D01*
X128917413Y-116678385D02*
X128856937Y-116708623D01*
X128856937Y-116708623D02*
X128615032Y-116708623D01*
X129612889Y-116950527D02*
X129582651Y-116980766D01*
X129582651Y-116980766D02*
X129491937Y-117011004D01*
X129491937Y-117011004D02*
X129431461Y-117011004D01*
X129431461Y-117011004D02*
X129340746Y-116980766D01*
X129340746Y-116980766D02*
X129280270Y-116920289D01*
X129280270Y-116920289D02*
X129250032Y-116859813D01*
X129250032Y-116859813D02*
X129219794Y-116738861D01*
X129219794Y-116738861D02*
X129219794Y-116648146D01*
X129219794Y-116648146D02*
X129250032Y-116527194D01*
X129250032Y-116527194D02*
X129280270Y-116466718D01*
X129280270Y-116466718D02*
X129340746Y-116406242D01*
X129340746Y-116406242D02*
X129431461Y-116376004D01*
X129431461Y-116376004D02*
X129491937Y-116376004D01*
X129491937Y-116376004D02*
X129582651Y-116406242D01*
X129582651Y-116406242D02*
X129612889Y-116436480D01*
X129824556Y-116376004D02*
X130217651Y-116376004D01*
X130217651Y-116376004D02*
X130005984Y-116617908D01*
X130005984Y-116617908D02*
X130096699Y-116617908D01*
X130096699Y-116617908D02*
X130157175Y-116648146D01*
X130157175Y-116648146D02*
X130187413Y-116678385D01*
X130187413Y-116678385D02*
X130217651Y-116738861D01*
X130217651Y-116738861D02*
X130217651Y-116890051D01*
X130217651Y-116890051D02*
X130187413Y-116950527D01*
X130187413Y-116950527D02*
X130157175Y-116980766D01*
X130157175Y-116980766D02*
X130096699Y-117011004D01*
X130096699Y-117011004D02*
X129915270Y-117011004D01*
X129915270Y-117011004D02*
X129854794Y-116980766D01*
X129854794Y-116980766D02*
X129824556Y-116950527D01*
X126075032Y-117011004D02*
X126075032Y-116376004D01*
X126075032Y-116376004D02*
X126316937Y-116376004D01*
X126316937Y-116376004D02*
X126377413Y-116406242D01*
X126377413Y-116406242D02*
X126407651Y-116436480D01*
X126407651Y-116436480D02*
X126437889Y-116496956D01*
X126437889Y-116496956D02*
X126437889Y-116587670D01*
X126437889Y-116587670D02*
X126407651Y-116648146D01*
X126407651Y-116648146D02*
X126377413Y-116678385D01*
X126377413Y-116678385D02*
X126316937Y-116708623D01*
X126316937Y-116708623D02*
X126075032Y-116708623D01*
X127072889Y-116950527D02*
X127042651Y-116980766D01*
X127042651Y-116980766D02*
X126951937Y-117011004D01*
X126951937Y-117011004D02*
X126891461Y-117011004D01*
X126891461Y-117011004D02*
X126800746Y-116980766D01*
X126800746Y-116980766D02*
X126740270Y-116920289D01*
X126740270Y-116920289D02*
X126710032Y-116859813D01*
X126710032Y-116859813D02*
X126679794Y-116738861D01*
X126679794Y-116738861D02*
X126679794Y-116648146D01*
X126679794Y-116648146D02*
X126710032Y-116527194D01*
X126710032Y-116527194D02*
X126740270Y-116466718D01*
X126740270Y-116466718D02*
X126800746Y-116406242D01*
X126800746Y-116406242D02*
X126891461Y-116376004D01*
X126891461Y-116376004D02*
X126951937Y-116376004D01*
X126951937Y-116376004D02*
X127042651Y-116406242D01*
X127042651Y-116406242D02*
X127072889Y-116436480D01*
X127314794Y-116436480D02*
X127345032Y-116406242D01*
X127345032Y-116406242D02*
X127405508Y-116376004D01*
X127405508Y-116376004D02*
X127556699Y-116376004D01*
X127556699Y-116376004D02*
X127617175Y-116406242D01*
X127617175Y-116406242D02*
X127647413Y-116436480D01*
X127647413Y-116436480D02*
X127677651Y-116496956D01*
X127677651Y-116496956D02*
X127677651Y-116557432D01*
X127677651Y-116557432D02*
X127647413Y-116648146D01*
X127647413Y-116648146D02*
X127284556Y-117011004D01*
X127284556Y-117011004D02*
X127677651Y-117011004D01*
X133568032Y-109899004D02*
X133568032Y-109264004D01*
X133568032Y-109264004D02*
X133809937Y-109264004D01*
X133809937Y-109264004D02*
X133870413Y-109294242D01*
X133870413Y-109294242D02*
X133900651Y-109324480D01*
X133900651Y-109324480D02*
X133930889Y-109384956D01*
X133930889Y-109384956D02*
X133930889Y-109475670D01*
X133930889Y-109475670D02*
X133900651Y-109536146D01*
X133900651Y-109536146D02*
X133870413Y-109566385D01*
X133870413Y-109566385D02*
X133809937Y-109596623D01*
X133809937Y-109596623D02*
X133568032Y-109596623D01*
X134565889Y-109838527D02*
X134535651Y-109868766D01*
X134535651Y-109868766D02*
X134444937Y-109899004D01*
X134444937Y-109899004D02*
X134384461Y-109899004D01*
X134384461Y-109899004D02*
X134293746Y-109868766D01*
X134293746Y-109868766D02*
X134233270Y-109808289D01*
X134233270Y-109808289D02*
X134203032Y-109747813D01*
X134203032Y-109747813D02*
X134172794Y-109626861D01*
X134172794Y-109626861D02*
X134172794Y-109536146D01*
X134172794Y-109536146D02*
X134203032Y-109415194D01*
X134203032Y-109415194D02*
X134233270Y-109354718D01*
X134233270Y-109354718D02*
X134293746Y-109294242D01*
X134293746Y-109294242D02*
X134384461Y-109264004D01*
X134384461Y-109264004D02*
X134444937Y-109264004D01*
X134444937Y-109264004D02*
X134535651Y-109294242D01*
X134535651Y-109294242D02*
X134565889Y-109324480D01*
X134928746Y-109536146D02*
X134868270Y-109505908D01*
X134868270Y-109505908D02*
X134838032Y-109475670D01*
X134838032Y-109475670D02*
X134807794Y-109415194D01*
X134807794Y-109415194D02*
X134807794Y-109384956D01*
X134807794Y-109384956D02*
X134838032Y-109324480D01*
X134838032Y-109324480D02*
X134868270Y-109294242D01*
X134868270Y-109294242D02*
X134928746Y-109264004D01*
X134928746Y-109264004D02*
X135049699Y-109264004D01*
X135049699Y-109264004D02*
X135110175Y-109294242D01*
X135110175Y-109294242D02*
X135140413Y-109324480D01*
X135140413Y-109324480D02*
X135170651Y-109384956D01*
X135170651Y-109384956D02*
X135170651Y-109415194D01*
X135170651Y-109415194D02*
X135140413Y-109475670D01*
X135140413Y-109475670D02*
X135110175Y-109505908D01*
X135110175Y-109505908D02*
X135049699Y-109536146D01*
X135049699Y-109536146D02*
X134928746Y-109536146D01*
X134928746Y-109536146D02*
X134868270Y-109566385D01*
X134868270Y-109566385D02*
X134838032Y-109596623D01*
X134838032Y-109596623D02*
X134807794Y-109657099D01*
X134807794Y-109657099D02*
X134807794Y-109778051D01*
X134807794Y-109778051D02*
X134838032Y-109838527D01*
X134838032Y-109838527D02*
X134868270Y-109868766D01*
X134868270Y-109868766D02*
X134928746Y-109899004D01*
X134928746Y-109899004D02*
X135049699Y-109899004D01*
X135049699Y-109899004D02*
X135110175Y-109868766D01*
X135110175Y-109868766D02*
X135140413Y-109838527D01*
X135140413Y-109838527D02*
X135170651Y-109778051D01*
X135170651Y-109778051D02*
X135170651Y-109657099D01*
X135170651Y-109657099D02*
X135140413Y-109596623D01*
X135140413Y-109596623D02*
X135110175Y-109566385D01*
X135110175Y-109566385D02*
X135049699Y-109536146D01*
X149167404Y-94701767D02*
X148532404Y-94701767D01*
X148532404Y-94701767D02*
X148532404Y-94459862D01*
X148532404Y-94459862D02*
X148562642Y-94399386D01*
X148562642Y-94399386D02*
X148592880Y-94369148D01*
X148592880Y-94369148D02*
X148653356Y-94338910D01*
X148653356Y-94338910D02*
X148744070Y-94338910D01*
X148744070Y-94338910D02*
X148804546Y-94369148D01*
X148804546Y-94369148D02*
X148834785Y-94399386D01*
X148834785Y-94399386D02*
X148865023Y-94459862D01*
X148865023Y-94459862D02*
X148865023Y-94701767D01*
X148985975Y-94097005D02*
X148985975Y-93794624D01*
X149167404Y-94157481D02*
X148532404Y-93945815D01*
X148532404Y-93945815D02*
X149167404Y-93734148D01*
X148532404Y-93582957D02*
X148532404Y-93189862D01*
X148532404Y-93189862D02*
X148774308Y-93401529D01*
X148774308Y-93401529D02*
X148774308Y-93310814D01*
X148774308Y-93310814D02*
X148804546Y-93250338D01*
X148804546Y-93250338D02*
X148834785Y-93220100D01*
X148834785Y-93220100D02*
X148895261Y-93189862D01*
X148895261Y-93189862D02*
X149046451Y-93189862D01*
X149046451Y-93189862D02*
X149106927Y-93220100D01*
X149106927Y-93220100D02*
X149137166Y-93250338D01*
X149137166Y-93250338D02*
X149167404Y-93310814D01*
X149167404Y-93310814D02*
X149167404Y-93492243D01*
X149167404Y-93492243D02*
X149137166Y-93552719D01*
X149137166Y-93552719D02*
X149106927Y-93582957D01*
X136235032Y-117011004D02*
X136235032Y-116376004D01*
X136235032Y-116376004D02*
X136476937Y-116376004D01*
X136476937Y-116376004D02*
X136537413Y-116406242D01*
X136537413Y-116406242D02*
X136567651Y-116436480D01*
X136567651Y-116436480D02*
X136597889Y-116496956D01*
X136597889Y-116496956D02*
X136597889Y-116587670D01*
X136597889Y-116587670D02*
X136567651Y-116648146D01*
X136567651Y-116648146D02*
X136537413Y-116678385D01*
X136537413Y-116678385D02*
X136476937Y-116708623D01*
X136476937Y-116708623D02*
X136235032Y-116708623D01*
X137232889Y-116950527D02*
X137202651Y-116980766D01*
X137202651Y-116980766D02*
X137111937Y-117011004D01*
X137111937Y-117011004D02*
X137051461Y-117011004D01*
X137051461Y-117011004D02*
X136960746Y-116980766D01*
X136960746Y-116980766D02*
X136900270Y-116920289D01*
X136900270Y-116920289D02*
X136870032Y-116859813D01*
X136870032Y-116859813D02*
X136839794Y-116738861D01*
X136839794Y-116738861D02*
X136839794Y-116648146D01*
X136839794Y-116648146D02*
X136870032Y-116527194D01*
X136870032Y-116527194D02*
X136900270Y-116466718D01*
X136900270Y-116466718D02*
X136960746Y-116406242D01*
X136960746Y-116406242D02*
X137051461Y-116376004D01*
X137051461Y-116376004D02*
X137111937Y-116376004D01*
X137111937Y-116376004D02*
X137202651Y-116406242D01*
X137202651Y-116406242D02*
X137232889Y-116436480D01*
X137777175Y-116376004D02*
X137656222Y-116376004D01*
X137656222Y-116376004D02*
X137595746Y-116406242D01*
X137595746Y-116406242D02*
X137565508Y-116436480D01*
X137565508Y-116436480D02*
X137505032Y-116527194D01*
X137505032Y-116527194D02*
X137474794Y-116648146D01*
X137474794Y-116648146D02*
X137474794Y-116890051D01*
X137474794Y-116890051D02*
X137505032Y-116950527D01*
X137505032Y-116950527D02*
X137535270Y-116980766D01*
X137535270Y-116980766D02*
X137595746Y-117011004D01*
X137595746Y-117011004D02*
X137716699Y-117011004D01*
X137716699Y-117011004D02*
X137777175Y-116980766D01*
X137777175Y-116980766D02*
X137807413Y-116950527D01*
X137807413Y-116950527D02*
X137837651Y-116890051D01*
X137837651Y-116890051D02*
X137837651Y-116738861D01*
X137837651Y-116738861D02*
X137807413Y-116678385D01*
X137807413Y-116678385D02*
X137777175Y-116648146D01*
X137777175Y-116648146D02*
X137716699Y-116617908D01*
X137716699Y-116617908D02*
X137595746Y-116617908D01*
X137595746Y-116617908D02*
X137535270Y-116648146D01*
X137535270Y-116648146D02*
X137505032Y-116678385D01*
X137505032Y-116678385D02*
X137474794Y-116738861D01*
X123027032Y-109899004D02*
X123027032Y-109264004D01*
X123027032Y-109264004D02*
X123268937Y-109264004D01*
X123268937Y-109264004D02*
X123329413Y-109294242D01*
X123329413Y-109294242D02*
X123359651Y-109324480D01*
X123359651Y-109324480D02*
X123389889Y-109384956D01*
X123389889Y-109384956D02*
X123389889Y-109475670D01*
X123389889Y-109475670D02*
X123359651Y-109536146D01*
X123359651Y-109536146D02*
X123329413Y-109566385D01*
X123329413Y-109566385D02*
X123268937Y-109596623D01*
X123268937Y-109596623D02*
X123027032Y-109596623D01*
X124024889Y-109838527D02*
X123994651Y-109868766D01*
X123994651Y-109868766D02*
X123903937Y-109899004D01*
X123903937Y-109899004D02*
X123843461Y-109899004D01*
X123843461Y-109899004D02*
X123752746Y-109868766D01*
X123752746Y-109868766D02*
X123692270Y-109808289D01*
X123692270Y-109808289D02*
X123662032Y-109747813D01*
X123662032Y-109747813D02*
X123631794Y-109626861D01*
X123631794Y-109626861D02*
X123631794Y-109536146D01*
X123631794Y-109536146D02*
X123662032Y-109415194D01*
X123662032Y-109415194D02*
X123692270Y-109354718D01*
X123692270Y-109354718D02*
X123752746Y-109294242D01*
X123752746Y-109294242D02*
X123843461Y-109264004D01*
X123843461Y-109264004D02*
X123903937Y-109264004D01*
X123903937Y-109264004D02*
X123994651Y-109294242D01*
X123994651Y-109294242D02*
X124024889Y-109324480D01*
X124629651Y-109899004D02*
X124266794Y-109899004D01*
X124448222Y-109899004D02*
X124448222Y-109264004D01*
X124448222Y-109264004D02*
X124387746Y-109354718D01*
X124387746Y-109354718D02*
X124327270Y-109415194D01*
X124327270Y-109415194D02*
X124266794Y-109445432D01*
X124871556Y-109324480D02*
X124901794Y-109294242D01*
X124901794Y-109294242D02*
X124962270Y-109264004D01*
X124962270Y-109264004D02*
X125113461Y-109264004D01*
X125113461Y-109264004D02*
X125173937Y-109294242D01*
X125173937Y-109294242D02*
X125204175Y-109324480D01*
X125204175Y-109324480D02*
X125234413Y-109384956D01*
X125234413Y-109384956D02*
X125234413Y-109445432D01*
X125234413Y-109445432D02*
X125204175Y-109536146D01*
X125204175Y-109536146D02*
X124841318Y-109899004D01*
X124841318Y-109899004D02*
X125234413Y-109899004D01*
X149167404Y-87081767D02*
X148532404Y-87081767D01*
X148532404Y-87081767D02*
X148532404Y-86839862D01*
X148532404Y-86839862D02*
X148562642Y-86779386D01*
X148562642Y-86779386D02*
X148592880Y-86749148D01*
X148592880Y-86749148D02*
X148653356Y-86718910D01*
X148653356Y-86718910D02*
X148744070Y-86718910D01*
X148744070Y-86718910D02*
X148804546Y-86749148D01*
X148804546Y-86749148D02*
X148834785Y-86779386D01*
X148834785Y-86779386D02*
X148865023Y-86839862D01*
X148865023Y-86839862D02*
X148865023Y-87081767D01*
X148985975Y-86477005D02*
X148985975Y-86174624D01*
X149167404Y-86537481D02*
X148532404Y-86325815D01*
X148532404Y-86325815D02*
X149167404Y-86114148D01*
X148532404Y-85781529D02*
X148532404Y-85721052D01*
X148532404Y-85721052D02*
X148562642Y-85660576D01*
X148562642Y-85660576D02*
X148592880Y-85630338D01*
X148592880Y-85630338D02*
X148653356Y-85600100D01*
X148653356Y-85600100D02*
X148774308Y-85569862D01*
X148774308Y-85569862D02*
X148925499Y-85569862D01*
X148925499Y-85569862D02*
X149046451Y-85600100D01*
X149046451Y-85600100D02*
X149106927Y-85630338D01*
X149106927Y-85630338D02*
X149137166Y-85660576D01*
X149137166Y-85660576D02*
X149167404Y-85721052D01*
X149167404Y-85721052D02*
X149167404Y-85781529D01*
X149167404Y-85781529D02*
X149137166Y-85842005D01*
X149137166Y-85842005D02*
X149106927Y-85872243D01*
X149106927Y-85872243D02*
X149046451Y-85902481D01*
X149046451Y-85902481D02*
X148925499Y-85932719D01*
X148925499Y-85932719D02*
X148774308Y-85932719D01*
X148774308Y-85932719D02*
X148653356Y-85902481D01*
X148653356Y-85902481D02*
X148592880Y-85872243D01*
X148592880Y-85872243D02*
X148562642Y-85842005D01*
X148562642Y-85842005D02*
X148532404Y-85781529D01*
X114676480Y-105257021D02*
X114871213Y-105841221D01*
X114871213Y-105841221D02*
X115065946Y-105257021D01*
X115232861Y-105813402D02*
X115316318Y-105841221D01*
X115316318Y-105841221D02*
X115455413Y-105841221D01*
X115455413Y-105841221D02*
X115511051Y-105813402D01*
X115511051Y-105813402D02*
X115538870Y-105785582D01*
X115538870Y-105785582D02*
X115566689Y-105729944D01*
X115566689Y-105729944D02*
X115566689Y-105674306D01*
X115566689Y-105674306D02*
X115538870Y-105618668D01*
X115538870Y-105618668D02*
X115511051Y-105590849D01*
X115511051Y-105590849D02*
X115455413Y-105563030D01*
X115455413Y-105563030D02*
X115344137Y-105535211D01*
X115344137Y-105535211D02*
X115288499Y-105507392D01*
X115288499Y-105507392D02*
X115260680Y-105479573D01*
X115260680Y-105479573D02*
X115232861Y-105423935D01*
X115232861Y-105423935D02*
X115232861Y-105368297D01*
X115232861Y-105368297D02*
X115260680Y-105312659D01*
X115260680Y-105312659D02*
X115288499Y-105284840D01*
X115288499Y-105284840D02*
X115344137Y-105257021D01*
X115344137Y-105257021D02*
X115483232Y-105257021D01*
X115483232Y-105257021D02*
X115566689Y-105284840D01*
X115789242Y-105813402D02*
X115872699Y-105841221D01*
X115872699Y-105841221D02*
X116011794Y-105841221D01*
X116011794Y-105841221D02*
X116067432Y-105813402D01*
X116067432Y-105813402D02*
X116095251Y-105785582D01*
X116095251Y-105785582D02*
X116123070Y-105729944D01*
X116123070Y-105729944D02*
X116123070Y-105674306D01*
X116123070Y-105674306D02*
X116095251Y-105618668D01*
X116095251Y-105618668D02*
X116067432Y-105590849D01*
X116067432Y-105590849D02*
X116011794Y-105563030D01*
X116011794Y-105563030D02*
X115900518Y-105535211D01*
X115900518Y-105535211D02*
X115844880Y-105507392D01*
X115844880Y-105507392D02*
X115817061Y-105479573D01*
X115817061Y-105479573D02*
X115789242Y-105423935D01*
X115789242Y-105423935D02*
X115789242Y-105368297D01*
X115789242Y-105368297D02*
X115817061Y-105312659D01*
X115817061Y-105312659D02*
X115844880Y-105284840D01*
X115844880Y-105284840D02*
X115900518Y-105257021D01*
X115900518Y-105257021D02*
X116039613Y-105257021D01*
X116039613Y-105257021D02*
X116123070Y-105284840D01*
X108580480Y-109321021D02*
X108775213Y-109905221D01*
X108775213Y-109905221D02*
X108969946Y-109321021D01*
X109359413Y-109599211D02*
X109442870Y-109627030D01*
X109442870Y-109627030D02*
X109470689Y-109654849D01*
X109470689Y-109654849D02*
X109498508Y-109710487D01*
X109498508Y-109710487D02*
X109498508Y-109793944D01*
X109498508Y-109793944D02*
X109470689Y-109849582D01*
X109470689Y-109849582D02*
X109442870Y-109877402D01*
X109442870Y-109877402D02*
X109387232Y-109905221D01*
X109387232Y-109905221D02*
X109164680Y-109905221D01*
X109164680Y-109905221D02*
X109164680Y-109321021D01*
X109164680Y-109321021D02*
X109359413Y-109321021D01*
X109359413Y-109321021D02*
X109415051Y-109348840D01*
X109415051Y-109348840D02*
X109442870Y-109376659D01*
X109442870Y-109376659D02*
X109470689Y-109432297D01*
X109470689Y-109432297D02*
X109470689Y-109487935D01*
X109470689Y-109487935D02*
X109442870Y-109543573D01*
X109442870Y-109543573D02*
X109415051Y-109571392D01*
X109415051Y-109571392D02*
X109359413Y-109599211D01*
X109359413Y-109599211D02*
X109164680Y-109599211D01*
X109721061Y-109738306D02*
X109999251Y-109738306D01*
X109665423Y-109905221D02*
X109860156Y-109321021D01*
X109860156Y-109321021D02*
X110054889Y-109905221D01*
X110166166Y-109321021D02*
X110499994Y-109321021D01*
X110333080Y-109905221D02*
X110333080Y-109321021D01*
X155923804Y-87284967D02*
X155288804Y-87284967D01*
X155288804Y-87284967D02*
X155288804Y-87043062D01*
X155288804Y-87043062D02*
X155319042Y-86982586D01*
X155319042Y-86982586D02*
X155349280Y-86952348D01*
X155349280Y-86952348D02*
X155409756Y-86922110D01*
X155409756Y-86922110D02*
X155500470Y-86922110D01*
X155500470Y-86922110D02*
X155560946Y-86952348D01*
X155560946Y-86952348D02*
X155591185Y-86982586D01*
X155591185Y-86982586D02*
X155621423Y-87043062D01*
X155621423Y-87043062D02*
X155621423Y-87284967D01*
X155591185Y-86438300D02*
X155621423Y-86347586D01*
X155621423Y-86347586D02*
X155651661Y-86317348D01*
X155651661Y-86317348D02*
X155712137Y-86287110D01*
X155712137Y-86287110D02*
X155802851Y-86287110D01*
X155802851Y-86287110D02*
X155863327Y-86317348D01*
X155863327Y-86317348D02*
X155893566Y-86347586D01*
X155893566Y-86347586D02*
X155923804Y-86408062D01*
X155923804Y-86408062D02*
X155923804Y-86649967D01*
X155923804Y-86649967D02*
X155288804Y-86649967D01*
X155288804Y-86649967D02*
X155288804Y-86438300D01*
X155288804Y-86438300D02*
X155319042Y-86377824D01*
X155319042Y-86377824D02*
X155349280Y-86347586D01*
X155349280Y-86347586D02*
X155409756Y-86317348D01*
X155409756Y-86317348D02*
X155470232Y-86317348D01*
X155470232Y-86317348D02*
X155530708Y-86347586D01*
X155530708Y-86347586D02*
X155560946Y-86377824D01*
X155560946Y-86377824D02*
X155591185Y-86438300D01*
X155591185Y-86438300D02*
X155591185Y-86649967D01*
X155923804Y-85682348D02*
X155923804Y-86045205D01*
X155923804Y-85863777D02*
X155288804Y-85863777D01*
X155288804Y-85863777D02*
X155379518Y-85924253D01*
X155379518Y-85924253D02*
X155439994Y-85984729D01*
X155439994Y-85984729D02*
X155470232Y-86045205D01*
X155288804Y-85107824D02*
X155288804Y-85410205D01*
X155288804Y-85410205D02*
X155591185Y-85440443D01*
X155591185Y-85440443D02*
X155560946Y-85410205D01*
X155560946Y-85410205D02*
X155530708Y-85349729D01*
X155530708Y-85349729D02*
X155530708Y-85198538D01*
X155530708Y-85198538D02*
X155560946Y-85138062D01*
X155560946Y-85138062D02*
X155591185Y-85107824D01*
X155591185Y-85107824D02*
X155651661Y-85077586D01*
X155651661Y-85077586D02*
X155802851Y-85077586D01*
X155802851Y-85077586D02*
X155863327Y-85107824D01*
X155863327Y-85107824D02*
X155893566Y-85138062D01*
X155893566Y-85138062D02*
X155923804Y-85198538D01*
X155923804Y-85198538D02*
X155923804Y-85349729D01*
X155923804Y-85349729D02*
X155893566Y-85410205D01*
X155893566Y-85410205D02*
X155863327Y-85440443D01*
X111628480Y-109321021D02*
X111823213Y-109905221D01*
X111823213Y-109905221D02*
X112017946Y-109321021D01*
X112212680Y-109905221D02*
X112212680Y-109321021D01*
X112212680Y-109321021D02*
X112351775Y-109321021D01*
X112351775Y-109321021D02*
X112435232Y-109348840D01*
X112435232Y-109348840D02*
X112490870Y-109404478D01*
X112490870Y-109404478D02*
X112518689Y-109460116D01*
X112518689Y-109460116D02*
X112546508Y-109571392D01*
X112546508Y-109571392D02*
X112546508Y-109654849D01*
X112546508Y-109654849D02*
X112518689Y-109766125D01*
X112518689Y-109766125D02*
X112490870Y-109821763D01*
X112490870Y-109821763D02*
X112435232Y-109877402D01*
X112435232Y-109877402D02*
X112351775Y-109905221D01*
X112351775Y-109905221D02*
X112212680Y-109905221D01*
X112796880Y-109905221D02*
X112796880Y-109321021D01*
X112796880Y-109321021D02*
X112935975Y-109321021D01*
X112935975Y-109321021D02*
X113019432Y-109348840D01*
X113019432Y-109348840D02*
X113075070Y-109404478D01*
X113075070Y-109404478D02*
X113102889Y-109460116D01*
X113102889Y-109460116D02*
X113130708Y-109571392D01*
X113130708Y-109571392D02*
X113130708Y-109654849D01*
X113130708Y-109654849D02*
X113102889Y-109766125D01*
X113102889Y-109766125D02*
X113075070Y-109821763D01*
X113075070Y-109821763D02*
X113019432Y-109877402D01*
X113019432Y-109877402D02*
X112935975Y-109905221D01*
X112935975Y-109905221D02*
X112796880Y-109905221D01*
X113353261Y-109738306D02*
X113631451Y-109738306D01*
X113297623Y-109905221D02*
X113492356Y-109321021D01*
X113492356Y-109321021D02*
X113687089Y-109905221D01*
X131917032Y-71799004D02*
X131917032Y-71164004D01*
X131917032Y-71164004D02*
X132158937Y-71164004D01*
X132158937Y-71164004D02*
X132219413Y-71194242D01*
X132219413Y-71194242D02*
X132249651Y-71224480D01*
X132249651Y-71224480D02*
X132279889Y-71284956D01*
X132279889Y-71284956D02*
X132279889Y-71375670D01*
X132279889Y-71375670D02*
X132249651Y-71436146D01*
X132249651Y-71436146D02*
X132219413Y-71466385D01*
X132219413Y-71466385D02*
X132158937Y-71496623D01*
X132158937Y-71496623D02*
X131917032Y-71496623D01*
X132763699Y-71466385D02*
X132854413Y-71496623D01*
X132854413Y-71496623D02*
X132884651Y-71526861D01*
X132884651Y-71526861D02*
X132914889Y-71587337D01*
X132914889Y-71587337D02*
X132914889Y-71678051D01*
X132914889Y-71678051D02*
X132884651Y-71738527D01*
X132884651Y-71738527D02*
X132854413Y-71768766D01*
X132854413Y-71768766D02*
X132793937Y-71799004D01*
X132793937Y-71799004D02*
X132552032Y-71799004D01*
X132552032Y-71799004D02*
X132552032Y-71164004D01*
X132552032Y-71164004D02*
X132763699Y-71164004D01*
X132763699Y-71164004D02*
X132824175Y-71194242D01*
X132824175Y-71194242D02*
X132854413Y-71224480D01*
X132854413Y-71224480D02*
X132884651Y-71284956D01*
X132884651Y-71284956D02*
X132884651Y-71345432D01*
X132884651Y-71345432D02*
X132854413Y-71405908D01*
X132854413Y-71405908D02*
X132824175Y-71436146D01*
X132824175Y-71436146D02*
X132763699Y-71466385D01*
X132763699Y-71466385D02*
X132552032Y-71466385D01*
X133156794Y-71224480D02*
X133187032Y-71194242D01*
X133187032Y-71194242D02*
X133247508Y-71164004D01*
X133247508Y-71164004D02*
X133398699Y-71164004D01*
X133398699Y-71164004D02*
X133459175Y-71194242D01*
X133459175Y-71194242D02*
X133489413Y-71224480D01*
X133489413Y-71224480D02*
X133519651Y-71284956D01*
X133519651Y-71284956D02*
X133519651Y-71345432D01*
X133519651Y-71345432D02*
X133489413Y-71436146D01*
X133489413Y-71436146D02*
X133126556Y-71799004D01*
X133126556Y-71799004D02*
X133519651Y-71799004D01*
X129123032Y-78657004D02*
X129123032Y-78022004D01*
X129123032Y-78022004D02*
X129364937Y-78022004D01*
X129364937Y-78022004D02*
X129425413Y-78052242D01*
X129425413Y-78052242D02*
X129455651Y-78082480D01*
X129455651Y-78082480D02*
X129485889Y-78142956D01*
X129485889Y-78142956D02*
X129485889Y-78233670D01*
X129485889Y-78233670D02*
X129455651Y-78294146D01*
X129455651Y-78294146D02*
X129425413Y-78324385D01*
X129425413Y-78324385D02*
X129364937Y-78354623D01*
X129364937Y-78354623D02*
X129123032Y-78354623D01*
X129969699Y-78324385D02*
X130060413Y-78354623D01*
X130060413Y-78354623D02*
X130090651Y-78384861D01*
X130090651Y-78384861D02*
X130120889Y-78445337D01*
X130120889Y-78445337D02*
X130120889Y-78536051D01*
X130120889Y-78536051D02*
X130090651Y-78596527D01*
X130090651Y-78596527D02*
X130060413Y-78626766D01*
X130060413Y-78626766D02*
X129999937Y-78657004D01*
X129999937Y-78657004D02*
X129758032Y-78657004D01*
X129758032Y-78657004D02*
X129758032Y-78022004D01*
X129758032Y-78022004D02*
X129969699Y-78022004D01*
X129969699Y-78022004D02*
X130030175Y-78052242D01*
X130030175Y-78052242D02*
X130060413Y-78082480D01*
X130060413Y-78082480D02*
X130090651Y-78142956D01*
X130090651Y-78142956D02*
X130090651Y-78203432D01*
X130090651Y-78203432D02*
X130060413Y-78263908D01*
X130060413Y-78263908D02*
X130030175Y-78294146D01*
X130030175Y-78294146D02*
X129969699Y-78324385D01*
X129969699Y-78324385D02*
X129758032Y-78324385D01*
X130725651Y-78657004D02*
X130362794Y-78657004D01*
X130544222Y-78657004D02*
X130544222Y-78022004D01*
X130544222Y-78022004D02*
X130483746Y-78112718D01*
X130483746Y-78112718D02*
X130423270Y-78173194D01*
X130423270Y-78173194D02*
X130362794Y-78203432D01*
X131330413Y-78657004D02*
X130967556Y-78657004D01*
X131148984Y-78657004D02*
X131148984Y-78022004D01*
X131148984Y-78022004D02*
X131088508Y-78112718D01*
X131088508Y-78112718D02*
X131028032Y-78173194D01*
X131028032Y-78173194D02*
X130967556Y-78203432D01*
X97807824Y-87420004D02*
X98019490Y-88055004D01*
X98019490Y-88055004D02*
X98231157Y-87420004D01*
X98412586Y-88024766D02*
X98503300Y-88055004D01*
X98503300Y-88055004D02*
X98654491Y-88055004D01*
X98654491Y-88055004D02*
X98714967Y-88024766D01*
X98714967Y-88024766D02*
X98745205Y-87994527D01*
X98745205Y-87994527D02*
X98775443Y-87934051D01*
X98775443Y-87934051D02*
X98775443Y-87873575D01*
X98775443Y-87873575D02*
X98745205Y-87813099D01*
X98745205Y-87813099D02*
X98714967Y-87782861D01*
X98714967Y-87782861D02*
X98654491Y-87752623D01*
X98654491Y-87752623D02*
X98533538Y-87722385D01*
X98533538Y-87722385D02*
X98473062Y-87692146D01*
X98473062Y-87692146D02*
X98442824Y-87661908D01*
X98442824Y-87661908D02*
X98412586Y-87601432D01*
X98412586Y-87601432D02*
X98412586Y-87540956D01*
X98412586Y-87540956D02*
X98442824Y-87480480D01*
X98442824Y-87480480D02*
X98473062Y-87450242D01*
X98473062Y-87450242D02*
X98533538Y-87420004D01*
X98533538Y-87420004D02*
X98684729Y-87420004D01*
X98684729Y-87420004D02*
X98775443Y-87450242D01*
X99017348Y-88024766D02*
X99108062Y-88055004D01*
X99108062Y-88055004D02*
X99259253Y-88055004D01*
X99259253Y-88055004D02*
X99319729Y-88024766D01*
X99319729Y-88024766D02*
X99349967Y-87994527D01*
X99349967Y-87994527D02*
X99380205Y-87934051D01*
X99380205Y-87934051D02*
X99380205Y-87873575D01*
X99380205Y-87873575D02*
X99349967Y-87813099D01*
X99349967Y-87813099D02*
X99319729Y-87782861D01*
X99319729Y-87782861D02*
X99259253Y-87752623D01*
X99259253Y-87752623D02*
X99138300Y-87722385D01*
X99138300Y-87722385D02*
X99077824Y-87692146D01*
X99077824Y-87692146D02*
X99047586Y-87661908D01*
X99047586Y-87661908D02*
X99017348Y-87601432D01*
X99017348Y-87601432D02*
X99017348Y-87540956D01*
X99017348Y-87540956D02*
X99047586Y-87480480D01*
X99047586Y-87480480D02*
X99077824Y-87450242D01*
X99077824Y-87450242D02*
X99138300Y-87420004D01*
X99138300Y-87420004D02*
X99289491Y-87420004D01*
X99289491Y-87420004D02*
X99380205Y-87450242D01*
X155923804Y-89875767D02*
X155288804Y-89875767D01*
X155288804Y-89875767D02*
X155288804Y-89633862D01*
X155288804Y-89633862D02*
X155319042Y-89573386D01*
X155319042Y-89573386D02*
X155349280Y-89543148D01*
X155349280Y-89543148D02*
X155409756Y-89512910D01*
X155409756Y-89512910D02*
X155500470Y-89512910D01*
X155500470Y-89512910D02*
X155560946Y-89543148D01*
X155560946Y-89543148D02*
X155591185Y-89573386D01*
X155591185Y-89573386D02*
X155621423Y-89633862D01*
X155621423Y-89633862D02*
X155621423Y-89875767D01*
X155742375Y-89271005D02*
X155742375Y-88968624D01*
X155923804Y-89331481D02*
X155288804Y-89119815D01*
X155288804Y-89119815D02*
X155923804Y-88908148D01*
X155923804Y-88363862D02*
X155923804Y-88726719D01*
X155923804Y-88545291D02*
X155288804Y-88545291D01*
X155288804Y-88545291D02*
X155379518Y-88605767D01*
X155379518Y-88605767D02*
X155439994Y-88666243D01*
X155439994Y-88666243D02*
X155470232Y-88726719D01*
X155349280Y-88121957D02*
X155319042Y-88091719D01*
X155319042Y-88091719D02*
X155288804Y-88031243D01*
X155288804Y-88031243D02*
X155288804Y-87880052D01*
X155288804Y-87880052D02*
X155319042Y-87819576D01*
X155319042Y-87819576D02*
X155349280Y-87789338D01*
X155349280Y-87789338D02*
X155409756Y-87759100D01*
X155409756Y-87759100D02*
X155470232Y-87759100D01*
X155470232Y-87759100D02*
X155560946Y-87789338D01*
X155560946Y-87789338D02*
X155923804Y-88152195D01*
X155923804Y-88152195D02*
X155923804Y-87759100D01*
X111628480Y-105257021D02*
X111823213Y-105841221D01*
X111823213Y-105841221D02*
X112017946Y-105257021D01*
X112212680Y-105841221D02*
X112212680Y-105257021D01*
X112212680Y-105257021D02*
X112351775Y-105257021D01*
X112351775Y-105257021D02*
X112435232Y-105284840D01*
X112435232Y-105284840D02*
X112490870Y-105340478D01*
X112490870Y-105340478D02*
X112518689Y-105396116D01*
X112518689Y-105396116D02*
X112546508Y-105507392D01*
X112546508Y-105507392D02*
X112546508Y-105590849D01*
X112546508Y-105590849D02*
X112518689Y-105702125D01*
X112518689Y-105702125D02*
X112490870Y-105757763D01*
X112490870Y-105757763D02*
X112435232Y-105813402D01*
X112435232Y-105813402D02*
X112351775Y-105841221D01*
X112351775Y-105841221D02*
X112212680Y-105841221D01*
X112796880Y-105841221D02*
X112796880Y-105257021D01*
X112796880Y-105257021D02*
X112935975Y-105257021D01*
X112935975Y-105257021D02*
X113019432Y-105284840D01*
X113019432Y-105284840D02*
X113075070Y-105340478D01*
X113075070Y-105340478D02*
X113102889Y-105396116D01*
X113102889Y-105396116D02*
X113130708Y-105507392D01*
X113130708Y-105507392D02*
X113130708Y-105590849D01*
X113130708Y-105590849D02*
X113102889Y-105702125D01*
X113102889Y-105702125D02*
X113075070Y-105757763D01*
X113075070Y-105757763D02*
X113019432Y-105813402D01*
X113019432Y-105813402D02*
X112935975Y-105841221D01*
X112935975Y-105841221D02*
X112796880Y-105841221D01*
X114676480Y-109321021D02*
X114871213Y-109905221D01*
X114871213Y-109905221D02*
X115065946Y-109321021D01*
X115232861Y-109877402D02*
X115316318Y-109905221D01*
X115316318Y-109905221D02*
X115455413Y-109905221D01*
X115455413Y-109905221D02*
X115511051Y-109877402D01*
X115511051Y-109877402D02*
X115538870Y-109849582D01*
X115538870Y-109849582D02*
X115566689Y-109793944D01*
X115566689Y-109793944D02*
X115566689Y-109738306D01*
X115566689Y-109738306D02*
X115538870Y-109682668D01*
X115538870Y-109682668D02*
X115511051Y-109654849D01*
X115511051Y-109654849D02*
X115455413Y-109627030D01*
X115455413Y-109627030D02*
X115344137Y-109599211D01*
X115344137Y-109599211D02*
X115288499Y-109571392D01*
X115288499Y-109571392D02*
X115260680Y-109543573D01*
X115260680Y-109543573D02*
X115232861Y-109487935D01*
X115232861Y-109487935D02*
X115232861Y-109432297D01*
X115232861Y-109432297D02*
X115260680Y-109376659D01*
X115260680Y-109376659D02*
X115288499Y-109348840D01*
X115288499Y-109348840D02*
X115344137Y-109321021D01*
X115344137Y-109321021D02*
X115483232Y-109321021D01*
X115483232Y-109321021D02*
X115566689Y-109348840D01*
X115789242Y-109877402D02*
X115872699Y-109905221D01*
X115872699Y-109905221D02*
X116011794Y-109905221D01*
X116011794Y-109905221D02*
X116067432Y-109877402D01*
X116067432Y-109877402D02*
X116095251Y-109849582D01*
X116095251Y-109849582D02*
X116123070Y-109793944D01*
X116123070Y-109793944D02*
X116123070Y-109738306D01*
X116123070Y-109738306D02*
X116095251Y-109682668D01*
X116095251Y-109682668D02*
X116067432Y-109654849D01*
X116067432Y-109654849D02*
X116011794Y-109627030D01*
X116011794Y-109627030D02*
X115900518Y-109599211D01*
X115900518Y-109599211D02*
X115844880Y-109571392D01*
X115844880Y-109571392D02*
X115817061Y-109543573D01*
X115817061Y-109543573D02*
X115789242Y-109487935D01*
X115789242Y-109487935D02*
X115789242Y-109432297D01*
X115789242Y-109432297D02*
X115817061Y-109376659D01*
X115817061Y-109376659D02*
X115844880Y-109348840D01*
X115844880Y-109348840D02*
X115900518Y-109321021D01*
X115900518Y-109321021D02*
X116039613Y-109321021D01*
X116039613Y-109321021D02*
X116123070Y-109348840D01*
X116345623Y-109738306D02*
X116623813Y-109738306D01*
X116289985Y-109905221D02*
X116484718Y-109321021D01*
X116484718Y-109321021D02*
X116679451Y-109905221D01*
X155923804Y-99807167D02*
X155288804Y-99807167D01*
X155288804Y-99807167D02*
X155288804Y-99565262D01*
X155288804Y-99565262D02*
X155319042Y-99504786D01*
X155319042Y-99504786D02*
X155349280Y-99474548D01*
X155349280Y-99474548D02*
X155409756Y-99444310D01*
X155409756Y-99444310D02*
X155500470Y-99444310D01*
X155500470Y-99444310D02*
X155560946Y-99474548D01*
X155560946Y-99474548D02*
X155591185Y-99504786D01*
X155591185Y-99504786D02*
X155621423Y-99565262D01*
X155621423Y-99565262D02*
X155621423Y-99807167D01*
X155742375Y-99202405D02*
X155742375Y-98900024D01*
X155923804Y-99262881D02*
X155288804Y-99051215D01*
X155288804Y-99051215D02*
X155923804Y-98839548D01*
X155560946Y-98537167D02*
X155530708Y-98597643D01*
X155530708Y-98597643D02*
X155500470Y-98627881D01*
X155500470Y-98627881D02*
X155439994Y-98658119D01*
X155439994Y-98658119D02*
X155409756Y-98658119D01*
X155409756Y-98658119D02*
X155349280Y-98627881D01*
X155349280Y-98627881D02*
X155319042Y-98597643D01*
X155319042Y-98597643D02*
X155288804Y-98537167D01*
X155288804Y-98537167D02*
X155288804Y-98416214D01*
X155288804Y-98416214D02*
X155319042Y-98355738D01*
X155319042Y-98355738D02*
X155349280Y-98325500D01*
X155349280Y-98325500D02*
X155409756Y-98295262D01*
X155409756Y-98295262D02*
X155439994Y-98295262D01*
X155439994Y-98295262D02*
X155500470Y-98325500D01*
X155500470Y-98325500D02*
X155530708Y-98355738D01*
X155530708Y-98355738D02*
X155560946Y-98416214D01*
X155560946Y-98416214D02*
X155560946Y-98537167D01*
X155560946Y-98537167D02*
X155591185Y-98597643D01*
X155591185Y-98597643D02*
X155621423Y-98627881D01*
X155621423Y-98627881D02*
X155681899Y-98658119D01*
X155681899Y-98658119D02*
X155802851Y-98658119D01*
X155802851Y-98658119D02*
X155863327Y-98627881D01*
X155863327Y-98627881D02*
X155893566Y-98597643D01*
X155893566Y-98597643D02*
X155923804Y-98537167D01*
X155923804Y-98537167D02*
X155923804Y-98416214D01*
X155923804Y-98416214D02*
X155893566Y-98355738D01*
X155893566Y-98355738D02*
X155863327Y-98325500D01*
X155863327Y-98325500D02*
X155802851Y-98295262D01*
X155802851Y-98295262D02*
X155681899Y-98295262D01*
X155681899Y-98295262D02*
X155621423Y-98325500D01*
X155621423Y-98325500D02*
X155591185Y-98355738D01*
X155591185Y-98355738D02*
X155560946Y-98416214D01*
X136997032Y-71799004D02*
X136997032Y-71164004D01*
X136997032Y-71164004D02*
X137238937Y-71164004D01*
X137238937Y-71164004D02*
X137299413Y-71194242D01*
X137299413Y-71194242D02*
X137329651Y-71224480D01*
X137329651Y-71224480D02*
X137359889Y-71284956D01*
X137359889Y-71284956D02*
X137359889Y-71375670D01*
X137359889Y-71375670D02*
X137329651Y-71436146D01*
X137329651Y-71436146D02*
X137299413Y-71466385D01*
X137299413Y-71466385D02*
X137238937Y-71496623D01*
X137238937Y-71496623D02*
X136997032Y-71496623D01*
X137843699Y-71466385D02*
X137934413Y-71496623D01*
X137934413Y-71496623D02*
X137964651Y-71526861D01*
X137964651Y-71526861D02*
X137994889Y-71587337D01*
X137994889Y-71587337D02*
X137994889Y-71678051D01*
X137994889Y-71678051D02*
X137964651Y-71738527D01*
X137964651Y-71738527D02*
X137934413Y-71768766D01*
X137934413Y-71768766D02*
X137873937Y-71799004D01*
X137873937Y-71799004D02*
X137632032Y-71799004D01*
X137632032Y-71799004D02*
X137632032Y-71164004D01*
X137632032Y-71164004D02*
X137843699Y-71164004D01*
X137843699Y-71164004D02*
X137904175Y-71194242D01*
X137904175Y-71194242D02*
X137934413Y-71224480D01*
X137934413Y-71224480D02*
X137964651Y-71284956D01*
X137964651Y-71284956D02*
X137964651Y-71345432D01*
X137964651Y-71345432D02*
X137934413Y-71405908D01*
X137934413Y-71405908D02*
X137904175Y-71436146D01*
X137904175Y-71436146D02*
X137843699Y-71466385D01*
X137843699Y-71466385D02*
X137632032Y-71466385D01*
X138387984Y-71164004D02*
X138448461Y-71164004D01*
X138448461Y-71164004D02*
X138508937Y-71194242D01*
X138508937Y-71194242D02*
X138539175Y-71224480D01*
X138539175Y-71224480D02*
X138569413Y-71284956D01*
X138569413Y-71284956D02*
X138599651Y-71405908D01*
X138599651Y-71405908D02*
X138599651Y-71557099D01*
X138599651Y-71557099D02*
X138569413Y-71678051D01*
X138569413Y-71678051D02*
X138539175Y-71738527D01*
X138539175Y-71738527D02*
X138508937Y-71768766D01*
X138508937Y-71768766D02*
X138448461Y-71799004D01*
X138448461Y-71799004D02*
X138387984Y-71799004D01*
X138387984Y-71799004D02*
X138327508Y-71768766D01*
X138327508Y-71768766D02*
X138297270Y-71738527D01*
X138297270Y-71738527D02*
X138267032Y-71678051D01*
X138267032Y-71678051D02*
X138236794Y-71557099D01*
X138236794Y-71557099D02*
X138236794Y-71405908D01*
X138236794Y-71405908D02*
X138267032Y-71284956D01*
X138267032Y-71284956D02*
X138297270Y-71224480D01*
X138297270Y-71224480D02*
X138327508Y-71194242D01*
X138327508Y-71194242D02*
X138387984Y-71164004D01*
X108580480Y-105257021D02*
X108775213Y-105841221D01*
X108775213Y-105841221D02*
X108969946Y-105257021D01*
X109164680Y-105841221D02*
X109164680Y-105257021D01*
X109164680Y-105257021D02*
X109303775Y-105257021D01*
X109303775Y-105257021D02*
X109387232Y-105284840D01*
X109387232Y-105284840D02*
X109442870Y-105340478D01*
X109442870Y-105340478D02*
X109470689Y-105396116D01*
X109470689Y-105396116D02*
X109498508Y-105507392D01*
X109498508Y-105507392D02*
X109498508Y-105590849D01*
X109498508Y-105590849D02*
X109470689Y-105702125D01*
X109470689Y-105702125D02*
X109442870Y-105757763D01*
X109442870Y-105757763D02*
X109387232Y-105813402D01*
X109387232Y-105813402D02*
X109303775Y-105841221D01*
X109303775Y-105841221D02*
X109164680Y-105841221D01*
X109748880Y-105841221D02*
X109748880Y-105257021D01*
X109748880Y-105257021D02*
X109887975Y-105257021D01*
X109887975Y-105257021D02*
X109971432Y-105284840D01*
X109971432Y-105284840D02*
X110027070Y-105340478D01*
X110027070Y-105340478D02*
X110054889Y-105396116D01*
X110054889Y-105396116D02*
X110082708Y-105507392D01*
X110082708Y-105507392D02*
X110082708Y-105590849D01*
X110082708Y-105590849D02*
X110054889Y-105702125D01*
X110054889Y-105702125D02*
X110027070Y-105757763D01*
X110027070Y-105757763D02*
X109971432Y-105813402D01*
X109971432Y-105813402D02*
X109887975Y-105841221D01*
X109887975Y-105841221D02*
X109748880Y-105841221D01*
X126964032Y-71799004D02*
X126964032Y-71164004D01*
X126964032Y-71164004D02*
X127205937Y-71164004D01*
X127205937Y-71164004D02*
X127266413Y-71194242D01*
X127266413Y-71194242D02*
X127296651Y-71224480D01*
X127296651Y-71224480D02*
X127326889Y-71284956D01*
X127326889Y-71284956D02*
X127326889Y-71375670D01*
X127326889Y-71375670D02*
X127296651Y-71436146D01*
X127296651Y-71436146D02*
X127266413Y-71466385D01*
X127266413Y-71466385D02*
X127205937Y-71496623D01*
X127205937Y-71496623D02*
X126964032Y-71496623D01*
X127810699Y-71466385D02*
X127901413Y-71496623D01*
X127901413Y-71496623D02*
X127931651Y-71526861D01*
X127931651Y-71526861D02*
X127961889Y-71587337D01*
X127961889Y-71587337D02*
X127961889Y-71678051D01*
X127961889Y-71678051D02*
X127931651Y-71738527D01*
X127931651Y-71738527D02*
X127901413Y-71768766D01*
X127901413Y-71768766D02*
X127840937Y-71799004D01*
X127840937Y-71799004D02*
X127599032Y-71799004D01*
X127599032Y-71799004D02*
X127599032Y-71164004D01*
X127599032Y-71164004D02*
X127810699Y-71164004D01*
X127810699Y-71164004D02*
X127871175Y-71194242D01*
X127871175Y-71194242D02*
X127901413Y-71224480D01*
X127901413Y-71224480D02*
X127931651Y-71284956D01*
X127931651Y-71284956D02*
X127931651Y-71345432D01*
X127931651Y-71345432D02*
X127901413Y-71405908D01*
X127901413Y-71405908D02*
X127871175Y-71436146D01*
X127871175Y-71436146D02*
X127810699Y-71466385D01*
X127810699Y-71466385D02*
X127599032Y-71466385D01*
X128536413Y-71164004D02*
X128234032Y-71164004D01*
X128234032Y-71164004D02*
X128203794Y-71466385D01*
X128203794Y-71466385D02*
X128234032Y-71436146D01*
X128234032Y-71436146D02*
X128294508Y-71405908D01*
X128294508Y-71405908D02*
X128445699Y-71405908D01*
X128445699Y-71405908D02*
X128506175Y-71436146D01*
X128506175Y-71436146D02*
X128536413Y-71466385D01*
X128536413Y-71466385D02*
X128566651Y-71526861D01*
X128566651Y-71526861D02*
X128566651Y-71678051D01*
X128566651Y-71678051D02*
X128536413Y-71738527D01*
X128536413Y-71738527D02*
X128506175Y-71768766D01*
X128506175Y-71768766D02*
X128445699Y-71799004D01*
X128445699Y-71799004D02*
X128294508Y-71799004D01*
X128294508Y-71799004D02*
X128234032Y-71768766D01*
X128234032Y-71768766D02*
X128203794Y-71738527D01*
X125694032Y-109899004D02*
X125694032Y-109264004D01*
X125694032Y-109264004D02*
X125935937Y-109264004D01*
X125935937Y-109264004D02*
X125996413Y-109294242D01*
X125996413Y-109294242D02*
X126026651Y-109324480D01*
X126026651Y-109324480D02*
X126056889Y-109384956D01*
X126056889Y-109384956D02*
X126056889Y-109475670D01*
X126056889Y-109475670D02*
X126026651Y-109536146D01*
X126026651Y-109536146D02*
X125996413Y-109566385D01*
X125996413Y-109566385D02*
X125935937Y-109596623D01*
X125935937Y-109596623D02*
X125694032Y-109596623D01*
X126691889Y-109838527D02*
X126661651Y-109868766D01*
X126661651Y-109868766D02*
X126570937Y-109899004D01*
X126570937Y-109899004D02*
X126510461Y-109899004D01*
X126510461Y-109899004D02*
X126419746Y-109868766D01*
X126419746Y-109868766D02*
X126359270Y-109808289D01*
X126359270Y-109808289D02*
X126329032Y-109747813D01*
X126329032Y-109747813D02*
X126298794Y-109626861D01*
X126298794Y-109626861D02*
X126298794Y-109536146D01*
X126298794Y-109536146D02*
X126329032Y-109415194D01*
X126329032Y-109415194D02*
X126359270Y-109354718D01*
X126359270Y-109354718D02*
X126419746Y-109294242D01*
X126419746Y-109294242D02*
X126510461Y-109264004D01*
X126510461Y-109264004D02*
X126570937Y-109264004D01*
X126570937Y-109264004D02*
X126661651Y-109294242D01*
X126661651Y-109294242D02*
X126691889Y-109324480D01*
X127296651Y-109899004D02*
X126933794Y-109899004D01*
X127115222Y-109899004D02*
X127115222Y-109264004D01*
X127115222Y-109264004D02*
X127054746Y-109354718D01*
X127054746Y-109354718D02*
X126994270Y-109415194D01*
X126994270Y-109415194D02*
X126933794Y-109445432D01*
X127901413Y-109899004D02*
X127538556Y-109899004D01*
X127719984Y-109899004D02*
X127719984Y-109264004D01*
X127719984Y-109264004D02*
X127659508Y-109354718D01*
X127659508Y-109354718D02*
X127599032Y-109415194D01*
X127599032Y-109415194D02*
X127538556Y-109445432D01*
X149167404Y-99756367D02*
X148532404Y-99756367D01*
X148532404Y-99756367D02*
X148532404Y-99514462D01*
X148532404Y-99514462D02*
X148562642Y-99453986D01*
X148562642Y-99453986D02*
X148592880Y-99423748D01*
X148592880Y-99423748D02*
X148653356Y-99393510D01*
X148653356Y-99393510D02*
X148744070Y-99393510D01*
X148744070Y-99393510D02*
X148804546Y-99423748D01*
X148804546Y-99423748D02*
X148834785Y-99453986D01*
X148834785Y-99453986D02*
X148865023Y-99514462D01*
X148865023Y-99514462D02*
X148865023Y-99756367D01*
X148985975Y-99151605D02*
X148985975Y-98849224D01*
X149167404Y-99212081D02*
X148532404Y-99000415D01*
X148532404Y-99000415D02*
X149167404Y-98788748D01*
X148532404Y-98274700D02*
X148532404Y-98577081D01*
X148532404Y-98577081D02*
X148834785Y-98607319D01*
X148834785Y-98607319D02*
X148804546Y-98577081D01*
X148804546Y-98577081D02*
X148774308Y-98516605D01*
X148774308Y-98516605D02*
X148774308Y-98365414D01*
X148774308Y-98365414D02*
X148804546Y-98304938D01*
X148804546Y-98304938D02*
X148834785Y-98274700D01*
X148834785Y-98274700D02*
X148895261Y-98244462D01*
X148895261Y-98244462D02*
X149046451Y-98244462D01*
X149046451Y-98244462D02*
X149106927Y-98274700D01*
X149106927Y-98274700D02*
X149137166Y-98304938D01*
X149137166Y-98304938D02*
X149167404Y-98365414D01*
X149167404Y-98365414D02*
X149167404Y-98516605D01*
X149167404Y-98516605D02*
X149137166Y-98577081D01*
X149137166Y-98577081D02*
X149106927Y-98607319D01*
X149167404Y-102270967D02*
X148532404Y-102270967D01*
X148532404Y-102270967D02*
X148532404Y-102029062D01*
X148532404Y-102029062D02*
X148562642Y-101968586D01*
X148562642Y-101968586D02*
X148592880Y-101938348D01*
X148592880Y-101938348D02*
X148653356Y-101908110D01*
X148653356Y-101908110D02*
X148744070Y-101908110D01*
X148744070Y-101908110D02*
X148804546Y-101938348D01*
X148804546Y-101938348D02*
X148834785Y-101968586D01*
X148834785Y-101968586D02*
X148865023Y-102029062D01*
X148865023Y-102029062D02*
X148865023Y-102270967D01*
X148985975Y-101666205D02*
X148985975Y-101363824D01*
X149167404Y-101726681D02*
X148532404Y-101515015D01*
X148532404Y-101515015D02*
X149167404Y-101303348D01*
X148532404Y-100819538D02*
X148532404Y-100940491D01*
X148532404Y-100940491D02*
X148562642Y-101000967D01*
X148562642Y-101000967D02*
X148592880Y-101031205D01*
X148592880Y-101031205D02*
X148683594Y-101091681D01*
X148683594Y-101091681D02*
X148804546Y-101121919D01*
X148804546Y-101121919D02*
X149046451Y-101121919D01*
X149046451Y-101121919D02*
X149106927Y-101091681D01*
X149106927Y-101091681D02*
X149137166Y-101061443D01*
X149137166Y-101061443D02*
X149167404Y-101000967D01*
X149167404Y-101000967D02*
X149167404Y-100880014D01*
X149167404Y-100880014D02*
X149137166Y-100819538D01*
X149137166Y-100819538D02*
X149106927Y-100789300D01*
X149106927Y-100789300D02*
X149046451Y-100759062D01*
X149046451Y-100759062D02*
X148895261Y-100759062D01*
X148895261Y-100759062D02*
X148834785Y-100789300D01*
X148834785Y-100789300D02*
X148804546Y-100819538D01*
X148804546Y-100819538D02*
X148774308Y-100880014D01*
X148774308Y-100880014D02*
X148774308Y-101000967D01*
X148774308Y-101000967D02*
X148804546Y-101061443D01*
X148804546Y-101061443D02*
X148834785Y-101091681D01*
X148834785Y-101091681D02*
X148895261Y-101121919D01*
X133695032Y-117011004D02*
X133695032Y-116376004D01*
X133695032Y-116376004D02*
X133936937Y-116376004D01*
X133936937Y-116376004D02*
X133997413Y-116406242D01*
X133997413Y-116406242D02*
X134027651Y-116436480D01*
X134027651Y-116436480D02*
X134057889Y-116496956D01*
X134057889Y-116496956D02*
X134057889Y-116587670D01*
X134057889Y-116587670D02*
X134027651Y-116648146D01*
X134027651Y-116648146D02*
X133997413Y-116678385D01*
X133997413Y-116678385D02*
X133936937Y-116708623D01*
X133936937Y-116708623D02*
X133695032Y-116708623D01*
X134692889Y-116950527D02*
X134662651Y-116980766D01*
X134662651Y-116980766D02*
X134571937Y-117011004D01*
X134571937Y-117011004D02*
X134511461Y-117011004D01*
X134511461Y-117011004D02*
X134420746Y-116980766D01*
X134420746Y-116980766D02*
X134360270Y-116920289D01*
X134360270Y-116920289D02*
X134330032Y-116859813D01*
X134330032Y-116859813D02*
X134299794Y-116738861D01*
X134299794Y-116738861D02*
X134299794Y-116648146D01*
X134299794Y-116648146D02*
X134330032Y-116527194D01*
X134330032Y-116527194D02*
X134360270Y-116466718D01*
X134360270Y-116466718D02*
X134420746Y-116406242D01*
X134420746Y-116406242D02*
X134511461Y-116376004D01*
X134511461Y-116376004D02*
X134571937Y-116376004D01*
X134571937Y-116376004D02*
X134662651Y-116406242D01*
X134662651Y-116406242D02*
X134692889Y-116436480D01*
X135267413Y-116376004D02*
X134965032Y-116376004D01*
X134965032Y-116376004D02*
X134934794Y-116678385D01*
X134934794Y-116678385D02*
X134965032Y-116648146D01*
X134965032Y-116648146D02*
X135025508Y-116617908D01*
X135025508Y-116617908D02*
X135176699Y-116617908D01*
X135176699Y-116617908D02*
X135237175Y-116648146D01*
X135237175Y-116648146D02*
X135267413Y-116678385D01*
X135267413Y-116678385D02*
X135297651Y-116738861D01*
X135297651Y-116738861D02*
X135297651Y-116890051D01*
X135297651Y-116890051D02*
X135267413Y-116950527D01*
X135267413Y-116950527D02*
X135237175Y-116980766D01*
X135237175Y-116980766D02*
X135176699Y-117011004D01*
X135176699Y-117011004D02*
X135025508Y-117011004D01*
X135025508Y-117011004D02*
X134965032Y-116980766D01*
X134965032Y-116980766D02*
X134934794Y-116950527D01*
X124297032Y-78657004D02*
X124297032Y-78022004D01*
X124297032Y-78022004D02*
X124538937Y-78022004D01*
X124538937Y-78022004D02*
X124599413Y-78052242D01*
X124599413Y-78052242D02*
X124629651Y-78082480D01*
X124629651Y-78082480D02*
X124659889Y-78142956D01*
X124659889Y-78142956D02*
X124659889Y-78233670D01*
X124659889Y-78233670D02*
X124629651Y-78294146D01*
X124629651Y-78294146D02*
X124599413Y-78324385D01*
X124599413Y-78324385D02*
X124538937Y-78354623D01*
X124538937Y-78354623D02*
X124297032Y-78354623D01*
X125143699Y-78324385D02*
X125234413Y-78354623D01*
X125234413Y-78354623D02*
X125264651Y-78384861D01*
X125264651Y-78384861D02*
X125294889Y-78445337D01*
X125294889Y-78445337D02*
X125294889Y-78536051D01*
X125294889Y-78536051D02*
X125264651Y-78596527D01*
X125264651Y-78596527D02*
X125234413Y-78626766D01*
X125234413Y-78626766D02*
X125173937Y-78657004D01*
X125173937Y-78657004D02*
X124932032Y-78657004D01*
X124932032Y-78657004D02*
X124932032Y-78022004D01*
X124932032Y-78022004D02*
X125143699Y-78022004D01*
X125143699Y-78022004D02*
X125204175Y-78052242D01*
X125204175Y-78052242D02*
X125234413Y-78082480D01*
X125234413Y-78082480D02*
X125264651Y-78142956D01*
X125264651Y-78142956D02*
X125264651Y-78203432D01*
X125264651Y-78203432D02*
X125234413Y-78263908D01*
X125234413Y-78263908D02*
X125204175Y-78294146D01*
X125204175Y-78294146D02*
X125143699Y-78324385D01*
X125143699Y-78324385D02*
X124932032Y-78324385D01*
X125597270Y-78657004D02*
X125718222Y-78657004D01*
X125718222Y-78657004D02*
X125778699Y-78626766D01*
X125778699Y-78626766D02*
X125808937Y-78596527D01*
X125808937Y-78596527D02*
X125869413Y-78505813D01*
X125869413Y-78505813D02*
X125899651Y-78384861D01*
X125899651Y-78384861D02*
X125899651Y-78142956D01*
X125899651Y-78142956D02*
X125869413Y-78082480D01*
X125869413Y-78082480D02*
X125839175Y-78052242D01*
X125839175Y-78052242D02*
X125778699Y-78022004D01*
X125778699Y-78022004D02*
X125657746Y-78022004D01*
X125657746Y-78022004D02*
X125597270Y-78052242D01*
X125597270Y-78052242D02*
X125567032Y-78082480D01*
X125567032Y-78082480D02*
X125536794Y-78142956D01*
X125536794Y-78142956D02*
X125536794Y-78294146D01*
X125536794Y-78294146D02*
X125567032Y-78354623D01*
X125567032Y-78354623D02*
X125597270Y-78384861D01*
X125597270Y-78384861D02*
X125657746Y-78415099D01*
X125657746Y-78415099D02*
X125778699Y-78415099D01*
X125778699Y-78415099D02*
X125839175Y-78384861D01*
X125839175Y-78384861D02*
X125869413Y-78354623D01*
X125869413Y-78354623D02*
X125899651Y-78294146D01*
X155923804Y-102270967D02*
X155288804Y-102270967D01*
X155288804Y-102270967D02*
X155288804Y-102029062D01*
X155288804Y-102029062D02*
X155319042Y-101968586D01*
X155319042Y-101968586D02*
X155349280Y-101938348D01*
X155349280Y-101938348D02*
X155409756Y-101908110D01*
X155409756Y-101908110D02*
X155500470Y-101908110D01*
X155500470Y-101908110D02*
X155560946Y-101938348D01*
X155560946Y-101938348D02*
X155591185Y-101968586D01*
X155591185Y-101968586D02*
X155621423Y-102029062D01*
X155621423Y-102029062D02*
X155621423Y-102270967D01*
X155742375Y-101666205D02*
X155742375Y-101363824D01*
X155923804Y-101726681D02*
X155288804Y-101515015D01*
X155288804Y-101515015D02*
X155923804Y-101303348D01*
X155288804Y-101152157D02*
X155288804Y-100728824D01*
X155288804Y-100728824D02*
X155923804Y-101000967D01*
X155923804Y-95057367D02*
X155288804Y-95057367D01*
X155288804Y-95057367D02*
X155288804Y-94815462D01*
X155288804Y-94815462D02*
X155319042Y-94754986D01*
X155319042Y-94754986D02*
X155349280Y-94724748D01*
X155349280Y-94724748D02*
X155409756Y-94694510D01*
X155409756Y-94694510D02*
X155500470Y-94694510D01*
X155500470Y-94694510D02*
X155560946Y-94724748D01*
X155560946Y-94724748D02*
X155591185Y-94754986D01*
X155591185Y-94754986D02*
X155621423Y-94815462D01*
X155621423Y-94815462D02*
X155621423Y-95057367D01*
X155742375Y-94452605D02*
X155742375Y-94150224D01*
X155923804Y-94513081D02*
X155288804Y-94301415D01*
X155288804Y-94301415D02*
X155923804Y-94089748D01*
X155923804Y-93545462D02*
X155923804Y-93908319D01*
X155923804Y-93726891D02*
X155288804Y-93726891D01*
X155288804Y-93726891D02*
X155379518Y-93787367D01*
X155379518Y-93787367D02*
X155439994Y-93847843D01*
X155439994Y-93847843D02*
X155470232Y-93908319D01*
X155288804Y-93152367D02*
X155288804Y-93091890D01*
X155288804Y-93091890D02*
X155319042Y-93031414D01*
X155319042Y-93031414D02*
X155349280Y-93001176D01*
X155349280Y-93001176D02*
X155409756Y-92970938D01*
X155409756Y-92970938D02*
X155530708Y-92940700D01*
X155530708Y-92940700D02*
X155681899Y-92940700D01*
X155681899Y-92940700D02*
X155802851Y-92970938D01*
X155802851Y-92970938D02*
X155863327Y-93001176D01*
X155863327Y-93001176D02*
X155893566Y-93031414D01*
X155893566Y-93031414D02*
X155923804Y-93091890D01*
X155923804Y-93091890D02*
X155923804Y-93152367D01*
X155923804Y-93152367D02*
X155893566Y-93212843D01*
X155893566Y-93212843D02*
X155863327Y-93243081D01*
X155863327Y-93243081D02*
X155802851Y-93273319D01*
X155802851Y-93273319D02*
X155681899Y-93303557D01*
X155681899Y-93303557D02*
X155530708Y-93303557D01*
X155530708Y-93303557D02*
X155409756Y-93273319D01*
X155409756Y-93273319D02*
X155349280Y-93243081D01*
X155349280Y-93243081D02*
X155319042Y-93212843D01*
X155319042Y-93212843D02*
X155288804Y-93152367D01*
X134203032Y-78657004D02*
X134203032Y-78022004D01*
X134203032Y-78022004D02*
X134444937Y-78022004D01*
X134444937Y-78022004D02*
X134505413Y-78052242D01*
X134505413Y-78052242D02*
X134535651Y-78082480D01*
X134535651Y-78082480D02*
X134565889Y-78142956D01*
X134565889Y-78142956D02*
X134565889Y-78233670D01*
X134565889Y-78233670D02*
X134535651Y-78294146D01*
X134535651Y-78294146D02*
X134505413Y-78324385D01*
X134505413Y-78324385D02*
X134444937Y-78354623D01*
X134444937Y-78354623D02*
X134203032Y-78354623D01*
X135049699Y-78324385D02*
X135140413Y-78354623D01*
X135140413Y-78354623D02*
X135170651Y-78384861D01*
X135170651Y-78384861D02*
X135200889Y-78445337D01*
X135200889Y-78445337D02*
X135200889Y-78536051D01*
X135200889Y-78536051D02*
X135170651Y-78596527D01*
X135170651Y-78596527D02*
X135140413Y-78626766D01*
X135140413Y-78626766D02*
X135079937Y-78657004D01*
X135079937Y-78657004D02*
X134838032Y-78657004D01*
X134838032Y-78657004D02*
X134838032Y-78022004D01*
X134838032Y-78022004D02*
X135049699Y-78022004D01*
X135049699Y-78022004D02*
X135110175Y-78052242D01*
X135110175Y-78052242D02*
X135140413Y-78082480D01*
X135140413Y-78082480D02*
X135170651Y-78142956D01*
X135170651Y-78142956D02*
X135170651Y-78203432D01*
X135170651Y-78203432D02*
X135140413Y-78263908D01*
X135140413Y-78263908D02*
X135110175Y-78294146D01*
X135110175Y-78294146D02*
X135049699Y-78324385D01*
X135049699Y-78324385D02*
X134838032Y-78324385D01*
X135805651Y-78657004D02*
X135442794Y-78657004D01*
X135624222Y-78657004D02*
X135624222Y-78022004D01*
X135624222Y-78022004D02*
X135563746Y-78112718D01*
X135563746Y-78112718D02*
X135503270Y-78173194D01*
X135503270Y-78173194D02*
X135442794Y-78203432D01*
X136017318Y-78022004D02*
X136410413Y-78022004D01*
X136410413Y-78022004D02*
X136198746Y-78263908D01*
X136198746Y-78263908D02*
X136289461Y-78263908D01*
X136289461Y-78263908D02*
X136349937Y-78294146D01*
X136349937Y-78294146D02*
X136380175Y-78324385D01*
X136380175Y-78324385D02*
X136410413Y-78384861D01*
X136410413Y-78384861D02*
X136410413Y-78536051D01*
X136410413Y-78536051D02*
X136380175Y-78596527D01*
X136380175Y-78596527D02*
X136349937Y-78626766D01*
X136349937Y-78626766D02*
X136289461Y-78657004D01*
X136289461Y-78657004D02*
X136108032Y-78657004D01*
X136108032Y-78657004D02*
X136047556Y-78626766D01*
X136047556Y-78626766D02*
X136017318Y-78596527D01*
X149167404Y-92110967D02*
X148532404Y-92110967D01*
X148532404Y-92110967D02*
X148532404Y-91869062D01*
X148532404Y-91869062D02*
X148562642Y-91808586D01*
X148562642Y-91808586D02*
X148592880Y-91778348D01*
X148592880Y-91778348D02*
X148653356Y-91748110D01*
X148653356Y-91748110D02*
X148744070Y-91748110D01*
X148744070Y-91748110D02*
X148804546Y-91778348D01*
X148804546Y-91778348D02*
X148834785Y-91808586D01*
X148834785Y-91808586D02*
X148865023Y-91869062D01*
X148865023Y-91869062D02*
X148865023Y-92110967D01*
X148985975Y-91506205D02*
X148985975Y-91203824D01*
X149167404Y-91566681D02*
X148532404Y-91355015D01*
X148532404Y-91355015D02*
X149167404Y-91143348D01*
X148592880Y-90961919D02*
X148562642Y-90931681D01*
X148562642Y-90931681D02*
X148532404Y-90871205D01*
X148532404Y-90871205D02*
X148532404Y-90720014D01*
X148532404Y-90720014D02*
X148562642Y-90659538D01*
X148562642Y-90659538D02*
X148592880Y-90629300D01*
X148592880Y-90629300D02*
X148653356Y-90599062D01*
X148653356Y-90599062D02*
X148713832Y-90599062D01*
X148713832Y-90599062D02*
X148804546Y-90629300D01*
X148804546Y-90629300D02*
X149167404Y-90992157D01*
X149167404Y-90992157D02*
X149167404Y-90599062D01*
X131028032Y-109899004D02*
X131028032Y-109264004D01*
X131028032Y-109264004D02*
X131269937Y-109264004D01*
X131269937Y-109264004D02*
X131330413Y-109294242D01*
X131330413Y-109294242D02*
X131360651Y-109324480D01*
X131360651Y-109324480D02*
X131390889Y-109384956D01*
X131390889Y-109384956D02*
X131390889Y-109475670D01*
X131390889Y-109475670D02*
X131360651Y-109536146D01*
X131360651Y-109536146D02*
X131330413Y-109566385D01*
X131330413Y-109566385D02*
X131269937Y-109596623D01*
X131269937Y-109596623D02*
X131028032Y-109596623D01*
X132025889Y-109838527D02*
X131995651Y-109868766D01*
X131995651Y-109868766D02*
X131904937Y-109899004D01*
X131904937Y-109899004D02*
X131844461Y-109899004D01*
X131844461Y-109899004D02*
X131753746Y-109868766D01*
X131753746Y-109868766D02*
X131693270Y-109808289D01*
X131693270Y-109808289D02*
X131663032Y-109747813D01*
X131663032Y-109747813D02*
X131632794Y-109626861D01*
X131632794Y-109626861D02*
X131632794Y-109536146D01*
X131632794Y-109536146D02*
X131663032Y-109415194D01*
X131663032Y-109415194D02*
X131693270Y-109354718D01*
X131693270Y-109354718D02*
X131753746Y-109294242D01*
X131753746Y-109294242D02*
X131844461Y-109264004D01*
X131844461Y-109264004D02*
X131904937Y-109264004D01*
X131904937Y-109264004D02*
X131995651Y-109294242D01*
X131995651Y-109294242D02*
X132025889Y-109324480D01*
X132328270Y-109899004D02*
X132449222Y-109899004D01*
X132449222Y-109899004D02*
X132509699Y-109868766D01*
X132509699Y-109868766D02*
X132539937Y-109838527D01*
X132539937Y-109838527D02*
X132600413Y-109747813D01*
X132600413Y-109747813D02*
X132630651Y-109626861D01*
X132630651Y-109626861D02*
X132630651Y-109384956D01*
X132630651Y-109384956D02*
X132600413Y-109324480D01*
X132600413Y-109324480D02*
X132570175Y-109294242D01*
X132570175Y-109294242D02*
X132509699Y-109264004D01*
X132509699Y-109264004D02*
X132388746Y-109264004D01*
X132388746Y-109264004D02*
X132328270Y-109294242D01*
X132328270Y-109294242D02*
X132298032Y-109324480D01*
X132298032Y-109324480D02*
X132267794Y-109384956D01*
X132267794Y-109384956D02*
X132267794Y-109536146D01*
X132267794Y-109536146D02*
X132298032Y-109596623D01*
X132298032Y-109596623D02*
X132328270Y-109626861D01*
X132328270Y-109626861D02*
X132388746Y-109657099D01*
X132388746Y-109657099D02*
X132509699Y-109657099D01*
X132509699Y-109657099D02*
X132570175Y-109626861D01*
X132570175Y-109626861D02*
X132600413Y-109596623D01*
X132600413Y-109596623D02*
X132630651Y-109536146D01*
D11*
X106033986Y-114718852D02*
X106179129Y-114767232D01*
X106179129Y-114767232D02*
X106421034Y-114767232D01*
X106421034Y-114767232D02*
X106517796Y-114718852D01*
X106517796Y-114718852D02*
X106566177Y-114670471D01*
X106566177Y-114670471D02*
X106614558Y-114573709D01*
X106614558Y-114573709D02*
X106614558Y-114476947D01*
X106614558Y-114476947D02*
X106566177Y-114380185D01*
X106566177Y-114380185D02*
X106517796Y-114331804D01*
X106517796Y-114331804D02*
X106421034Y-114283423D01*
X106421034Y-114283423D02*
X106227510Y-114235042D01*
X106227510Y-114235042D02*
X106130748Y-114186661D01*
X106130748Y-114186661D02*
X106082367Y-114138280D01*
X106082367Y-114138280D02*
X106033986Y-114041518D01*
X106033986Y-114041518D02*
X106033986Y-113944756D01*
X106033986Y-113944756D02*
X106082367Y-113847994D01*
X106082367Y-113847994D02*
X106130748Y-113799613D01*
X106130748Y-113799613D02*
X106227510Y-113751232D01*
X106227510Y-113751232D02*
X106469415Y-113751232D01*
X106469415Y-113751232D02*
X106614558Y-113799613D01*
X106904843Y-113751232D02*
X107485415Y-113751232D01*
X107195129Y-114767232D02*
X107195129Y-113751232D01*
X107824081Y-114767232D02*
X107824081Y-113751232D01*
X107824081Y-113751232D02*
X108162748Y-114476947D01*
X108162748Y-114476947D02*
X108501415Y-113751232D01*
X108501415Y-113751232D02*
X108501415Y-114767232D01*
X108888462Y-113751232D02*
X109517415Y-113751232D01*
X109517415Y-113751232D02*
X109178748Y-114138280D01*
X109178748Y-114138280D02*
X109323891Y-114138280D01*
X109323891Y-114138280D02*
X109420653Y-114186661D01*
X109420653Y-114186661D02*
X109469034Y-114235042D01*
X109469034Y-114235042D02*
X109517415Y-114331804D01*
X109517415Y-114331804D02*
X109517415Y-114573709D01*
X109517415Y-114573709D02*
X109469034Y-114670471D01*
X109469034Y-114670471D02*
X109420653Y-114718852D01*
X109420653Y-114718852D02*
X109323891Y-114767232D01*
X109323891Y-114767232D02*
X109033605Y-114767232D01*
X109033605Y-114767232D02*
X108936843Y-114718852D01*
X108936843Y-114718852D02*
X108888462Y-114670471D01*
X109904462Y-113847994D02*
X109952843Y-113799613D01*
X109952843Y-113799613D02*
X110049605Y-113751232D01*
X110049605Y-113751232D02*
X110291510Y-113751232D01*
X110291510Y-113751232D02*
X110388272Y-113799613D01*
X110388272Y-113799613D02*
X110436653Y-113847994D01*
X110436653Y-113847994D02*
X110485034Y-113944756D01*
X110485034Y-113944756D02*
X110485034Y-114041518D01*
X110485034Y-114041518D02*
X110436653Y-114186661D01*
X110436653Y-114186661D02*
X109856081Y-114767232D01*
X109856081Y-114767232D02*
X110485034Y-114767232D01*
X111259129Y-114235042D02*
X110920462Y-114235042D01*
X110920462Y-114767232D02*
X110920462Y-113751232D01*
X110920462Y-113751232D02*
X111404272Y-113751232D01*
X111694557Y-113751232D02*
X112323510Y-113751232D01*
X112323510Y-113751232D02*
X111984843Y-114138280D01*
X111984843Y-114138280D02*
X112129986Y-114138280D01*
X112129986Y-114138280D02*
X112226748Y-114186661D01*
X112226748Y-114186661D02*
X112275129Y-114235042D01*
X112275129Y-114235042D02*
X112323510Y-114331804D01*
X112323510Y-114331804D02*
X112323510Y-114573709D01*
X112323510Y-114573709D02*
X112275129Y-114670471D01*
X112275129Y-114670471D02*
X112226748Y-114718852D01*
X112226748Y-114718852D02*
X112129986Y-114767232D01*
X112129986Y-114767232D02*
X111839700Y-114767232D01*
X111839700Y-114767232D02*
X111742938Y-114718852D01*
X111742938Y-114718852D02*
X111694557Y-114670471D01*
X114016843Y-114767232D02*
X113533033Y-114767232D01*
X113533033Y-114767232D02*
X113533033Y-113751232D01*
X115032843Y-114863994D02*
X114936081Y-114815613D01*
X114936081Y-114815613D02*
X114839319Y-114718852D01*
X114839319Y-114718852D02*
X114694176Y-114573709D01*
X114694176Y-114573709D02*
X114597414Y-114525328D01*
X114597414Y-114525328D02*
X114500652Y-114525328D01*
X114549033Y-114767232D02*
X114452271Y-114718852D01*
X114452271Y-114718852D02*
X114355509Y-114622090D01*
X114355509Y-114622090D02*
X114307128Y-114428566D01*
X114307128Y-114428566D02*
X114307128Y-114089899D01*
X114307128Y-114089899D02*
X114355509Y-113896375D01*
X114355509Y-113896375D02*
X114452271Y-113799613D01*
X114452271Y-113799613D02*
X114549033Y-113751232D01*
X114549033Y-113751232D02*
X114742557Y-113751232D01*
X114742557Y-113751232D02*
X114839319Y-113799613D01*
X114839319Y-113799613D02*
X114936081Y-113896375D01*
X114936081Y-113896375D02*
X114984462Y-114089899D01*
X114984462Y-114089899D02*
X114984462Y-114428566D01*
X114984462Y-114428566D02*
X114936081Y-114622090D01*
X114936081Y-114622090D02*
X114839319Y-114718852D01*
X114839319Y-114718852D02*
X114742557Y-114767232D01*
X114742557Y-114767232D02*
X114549033Y-114767232D01*
X115758557Y-114235042D02*
X115419890Y-114235042D01*
X115419890Y-114767232D02*
X115419890Y-113751232D01*
X115419890Y-113751232D02*
X115903700Y-113751232D01*
X116290747Y-114767232D02*
X116290747Y-113751232D01*
X116290747Y-113751232D02*
X116677795Y-113751232D01*
X116677795Y-113751232D02*
X116774557Y-113799613D01*
X116774557Y-113799613D02*
X116822938Y-113847994D01*
X116822938Y-113847994D02*
X116871319Y-113944756D01*
X116871319Y-113944756D02*
X116871319Y-114089899D01*
X116871319Y-114089899D02*
X116822938Y-114186661D01*
X116822938Y-114186661D02*
X116774557Y-114235042D01*
X116774557Y-114235042D02*
X116677795Y-114283423D01*
X116677795Y-114283423D02*
X116290747Y-114283423D01*
X117742176Y-113751232D02*
X117548652Y-113751232D01*
X117548652Y-113751232D02*
X117451890Y-113799613D01*
X117451890Y-113799613D02*
X117403509Y-113847994D01*
X117403509Y-113847994D02*
X117306747Y-113993137D01*
X117306747Y-113993137D02*
X117258366Y-114186661D01*
X117258366Y-114186661D02*
X117258366Y-114573709D01*
X117258366Y-114573709D02*
X117306747Y-114670471D01*
X117306747Y-114670471D02*
X117355128Y-114718852D01*
X117355128Y-114718852D02*
X117451890Y-114767232D01*
X117451890Y-114767232D02*
X117645414Y-114767232D01*
X117645414Y-114767232D02*
X117742176Y-114718852D01*
X117742176Y-114718852D02*
X117790557Y-114670471D01*
X117790557Y-114670471D02*
X117838938Y-114573709D01*
X117838938Y-114573709D02*
X117838938Y-114331804D01*
X117838938Y-114331804D02*
X117790557Y-114235042D01*
X117790557Y-114235042D02*
X117742176Y-114186661D01*
X117742176Y-114186661D02*
X117645414Y-114138280D01*
X117645414Y-114138280D02*
X117451890Y-114138280D01*
X117451890Y-114138280D02*
X117355128Y-114186661D01*
X117355128Y-114186661D02*
X117306747Y-114235042D01*
X117306747Y-114235042D02*
X117258366Y-114331804D01*
X118709795Y-114089899D02*
X118709795Y-114767232D01*
X118467890Y-113702852D02*
X118225985Y-114428566D01*
X118225985Y-114428566D02*
X118854938Y-114428566D01*
X106421034Y-115870745D02*
X106566177Y-115919126D01*
X106566177Y-115919126D02*
X106614558Y-115967507D01*
X106614558Y-115967507D02*
X106662939Y-116064269D01*
X106662939Y-116064269D02*
X106662939Y-116209412D01*
X106662939Y-116209412D02*
X106614558Y-116306174D01*
X106614558Y-116306174D02*
X106566177Y-116354555D01*
X106566177Y-116354555D02*
X106469415Y-116402935D01*
X106469415Y-116402935D02*
X106082367Y-116402935D01*
X106082367Y-116402935D02*
X106082367Y-115386935D01*
X106082367Y-115386935D02*
X106421034Y-115386935D01*
X106421034Y-115386935D02*
X106517796Y-115435316D01*
X106517796Y-115435316D02*
X106566177Y-115483697D01*
X106566177Y-115483697D02*
X106614558Y-115580459D01*
X106614558Y-115580459D02*
X106614558Y-115677221D01*
X106614558Y-115677221D02*
X106566177Y-115773983D01*
X106566177Y-115773983D02*
X106517796Y-115822364D01*
X106517796Y-115822364D02*
X106421034Y-115870745D01*
X106421034Y-115870745D02*
X106082367Y-115870745D01*
X107243510Y-116402935D02*
X107146748Y-116354555D01*
X107146748Y-116354555D02*
X107098367Y-116306174D01*
X107098367Y-116306174D02*
X107049986Y-116209412D01*
X107049986Y-116209412D02*
X107049986Y-115919126D01*
X107049986Y-115919126D02*
X107098367Y-115822364D01*
X107098367Y-115822364D02*
X107146748Y-115773983D01*
X107146748Y-115773983D02*
X107243510Y-115725602D01*
X107243510Y-115725602D02*
X107388653Y-115725602D01*
X107388653Y-115725602D02*
X107485415Y-115773983D01*
X107485415Y-115773983D02*
X107533796Y-115822364D01*
X107533796Y-115822364D02*
X107582177Y-115919126D01*
X107582177Y-115919126D02*
X107582177Y-116209412D01*
X107582177Y-116209412D02*
X107533796Y-116306174D01*
X107533796Y-116306174D02*
X107485415Y-116354555D01*
X107485415Y-116354555D02*
X107388653Y-116402935D01*
X107388653Y-116402935D02*
X107243510Y-116402935D01*
X108453034Y-116402935D02*
X108453034Y-115870745D01*
X108453034Y-115870745D02*
X108404653Y-115773983D01*
X108404653Y-115773983D02*
X108307891Y-115725602D01*
X108307891Y-115725602D02*
X108114367Y-115725602D01*
X108114367Y-115725602D02*
X108017605Y-115773983D01*
X108453034Y-116354555D02*
X108356272Y-116402935D01*
X108356272Y-116402935D02*
X108114367Y-116402935D01*
X108114367Y-116402935D02*
X108017605Y-116354555D01*
X108017605Y-116354555D02*
X107969224Y-116257793D01*
X107969224Y-116257793D02*
X107969224Y-116161031D01*
X107969224Y-116161031D02*
X108017605Y-116064269D01*
X108017605Y-116064269D02*
X108114367Y-116015888D01*
X108114367Y-116015888D02*
X108356272Y-116015888D01*
X108356272Y-116015888D02*
X108453034Y-115967507D01*
X108936843Y-116402935D02*
X108936843Y-115725602D01*
X108936843Y-115919126D02*
X108985224Y-115822364D01*
X108985224Y-115822364D02*
X109033605Y-115773983D01*
X109033605Y-115773983D02*
X109130367Y-115725602D01*
X109130367Y-115725602D02*
X109227129Y-115725602D01*
X110001224Y-116402935D02*
X110001224Y-115386935D01*
X110001224Y-116354555D02*
X109904462Y-116402935D01*
X109904462Y-116402935D02*
X109710938Y-116402935D01*
X109710938Y-116402935D02*
X109614176Y-116354555D01*
X109614176Y-116354555D02*
X109565795Y-116306174D01*
X109565795Y-116306174D02*
X109517414Y-116209412D01*
X109517414Y-116209412D02*
X109517414Y-115919126D01*
X109517414Y-115919126D02*
X109565795Y-115822364D01*
X109565795Y-115822364D02*
X109614176Y-115773983D01*
X109614176Y-115773983D02*
X109710938Y-115725602D01*
X109710938Y-115725602D02*
X109904462Y-115725602D01*
X109904462Y-115725602D02*
X110001224Y-115773983D01*
X111259128Y-116402935D02*
X111259128Y-115725602D01*
X111259128Y-115919126D02*
X111307509Y-115822364D01*
X111307509Y-115822364D02*
X111355890Y-115773983D01*
X111355890Y-115773983D02*
X111452652Y-115725602D01*
X111452652Y-115725602D02*
X111549414Y-115725602D01*
X112420271Y-116402935D02*
X111839699Y-116402935D01*
X112129985Y-116402935D02*
X112129985Y-115386935D01*
X112129985Y-115386935D02*
X112033223Y-115532078D01*
X112033223Y-115532078D02*
X111936461Y-115628840D01*
X111936461Y-115628840D02*
X111839699Y-115677221D01*
X112855699Y-116306174D02*
X112904080Y-116354555D01*
X112904080Y-116354555D02*
X112855699Y-116402935D01*
X112855699Y-116402935D02*
X112807318Y-116354555D01*
X112807318Y-116354555D02*
X112855699Y-116306174D01*
X112855699Y-116306174D02*
X112855699Y-116402935D01*
X113533033Y-115386935D02*
X113629795Y-115386935D01*
X113629795Y-115386935D02*
X113726557Y-115435316D01*
X113726557Y-115435316D02*
X113774938Y-115483697D01*
X113774938Y-115483697D02*
X113823319Y-115580459D01*
X113823319Y-115580459D02*
X113871700Y-115773983D01*
X113871700Y-115773983D02*
X113871700Y-116015888D01*
X113871700Y-116015888D02*
X113823319Y-116209412D01*
X113823319Y-116209412D02*
X113774938Y-116306174D01*
X113774938Y-116306174D02*
X113726557Y-116354555D01*
X113726557Y-116354555D02*
X113629795Y-116402935D01*
X113629795Y-116402935D02*
X113533033Y-116402935D01*
X113533033Y-116402935D02*
X113436271Y-116354555D01*
X113436271Y-116354555D02*
X113387890Y-116306174D01*
X113387890Y-116306174D02*
X113339509Y-116209412D01*
X113339509Y-116209412D02*
X113291128Y-116015888D01*
X113291128Y-116015888D02*
X113291128Y-115773983D01*
X113291128Y-115773983D02*
X113339509Y-115580459D01*
X113339509Y-115580459D02*
X113387890Y-115483697D01*
X113387890Y-115483697D02*
X113436271Y-115435316D01*
X113436271Y-115435316D02*
X113533033Y-115386935D01*
D10*
X121757032Y-78657004D02*
X121757032Y-78022004D01*
X121757032Y-78022004D02*
X121998937Y-78022004D01*
X121998937Y-78022004D02*
X122059413Y-78052242D01*
X122059413Y-78052242D02*
X122089651Y-78082480D01*
X122089651Y-78082480D02*
X122119889Y-78142956D01*
X122119889Y-78142956D02*
X122119889Y-78233670D01*
X122119889Y-78233670D02*
X122089651Y-78294146D01*
X122089651Y-78294146D02*
X122059413Y-78324385D01*
X122059413Y-78324385D02*
X121998937Y-78354623D01*
X121998937Y-78354623D02*
X121757032Y-78354623D01*
X122603699Y-78324385D02*
X122694413Y-78354623D01*
X122694413Y-78354623D02*
X122724651Y-78384861D01*
X122724651Y-78384861D02*
X122754889Y-78445337D01*
X122754889Y-78445337D02*
X122754889Y-78536051D01*
X122754889Y-78536051D02*
X122724651Y-78596527D01*
X122724651Y-78596527D02*
X122694413Y-78626766D01*
X122694413Y-78626766D02*
X122633937Y-78657004D01*
X122633937Y-78657004D02*
X122392032Y-78657004D01*
X122392032Y-78657004D02*
X122392032Y-78022004D01*
X122392032Y-78022004D02*
X122603699Y-78022004D01*
X122603699Y-78022004D02*
X122664175Y-78052242D01*
X122664175Y-78052242D02*
X122694413Y-78082480D01*
X122694413Y-78082480D02*
X122724651Y-78142956D01*
X122724651Y-78142956D02*
X122724651Y-78203432D01*
X122724651Y-78203432D02*
X122694413Y-78263908D01*
X122694413Y-78263908D02*
X122664175Y-78294146D01*
X122664175Y-78294146D02*
X122603699Y-78324385D01*
X122603699Y-78324385D02*
X122392032Y-78324385D01*
X123117746Y-78294146D02*
X123057270Y-78263908D01*
X123057270Y-78263908D02*
X123027032Y-78233670D01*
X123027032Y-78233670D02*
X122996794Y-78173194D01*
X122996794Y-78173194D02*
X122996794Y-78142956D01*
X122996794Y-78142956D02*
X123027032Y-78082480D01*
X123027032Y-78082480D02*
X123057270Y-78052242D01*
X123057270Y-78052242D02*
X123117746Y-78022004D01*
X123117746Y-78022004D02*
X123238699Y-78022004D01*
X123238699Y-78022004D02*
X123299175Y-78052242D01*
X123299175Y-78052242D02*
X123329413Y-78082480D01*
X123329413Y-78082480D02*
X123359651Y-78142956D01*
X123359651Y-78142956D02*
X123359651Y-78173194D01*
X123359651Y-78173194D02*
X123329413Y-78233670D01*
X123329413Y-78233670D02*
X123299175Y-78263908D01*
X123299175Y-78263908D02*
X123238699Y-78294146D01*
X123238699Y-78294146D02*
X123117746Y-78294146D01*
X123117746Y-78294146D02*
X123057270Y-78324385D01*
X123057270Y-78324385D02*
X123027032Y-78354623D01*
X123027032Y-78354623D02*
X122996794Y-78415099D01*
X122996794Y-78415099D02*
X122996794Y-78536051D01*
X122996794Y-78536051D02*
X123027032Y-78596527D01*
X123027032Y-78596527D02*
X123057270Y-78626766D01*
X123057270Y-78626766D02*
X123117746Y-78657004D01*
X123117746Y-78657004D02*
X123238699Y-78657004D01*
X123238699Y-78657004D02*
X123299175Y-78626766D01*
X123299175Y-78626766D02*
X123329413Y-78596527D01*
X123329413Y-78596527D02*
X123359651Y-78536051D01*
X123359651Y-78536051D02*
X123359651Y-78415099D01*
X123359651Y-78415099D02*
X123329413Y-78354623D01*
X123329413Y-78354623D02*
X123299175Y-78324385D01*
X123299175Y-78324385D02*
X123238699Y-78294146D01*
X155923804Y-92441167D02*
X155288804Y-92441167D01*
X155288804Y-92441167D02*
X155288804Y-92199262D01*
X155288804Y-92199262D02*
X155319042Y-92138786D01*
X155319042Y-92138786D02*
X155349280Y-92108548D01*
X155349280Y-92108548D02*
X155409756Y-92078310D01*
X155409756Y-92078310D02*
X155500470Y-92078310D01*
X155500470Y-92078310D02*
X155560946Y-92108548D01*
X155560946Y-92108548D02*
X155591185Y-92138786D01*
X155591185Y-92138786D02*
X155621423Y-92199262D01*
X155621423Y-92199262D02*
X155621423Y-92441167D01*
X155742375Y-91836405D02*
X155742375Y-91534024D01*
X155923804Y-91896881D02*
X155288804Y-91685215D01*
X155288804Y-91685215D02*
X155923804Y-91473548D01*
X155923804Y-90929262D02*
X155923804Y-91292119D01*
X155923804Y-91110691D02*
X155288804Y-91110691D01*
X155288804Y-91110691D02*
X155379518Y-91171167D01*
X155379518Y-91171167D02*
X155439994Y-91231643D01*
X155439994Y-91231643D02*
X155470232Y-91292119D01*
X155923804Y-90324500D02*
X155923804Y-90687357D01*
X155923804Y-90505929D02*
X155288804Y-90505929D01*
X155288804Y-90505929D02*
X155379518Y-90566405D01*
X155379518Y-90566405D02*
X155439994Y-90626881D01*
X155439994Y-90626881D02*
X155470232Y-90687357D01*
X97263538Y-94532004D02*
X97475204Y-95167004D01*
X97475204Y-95167004D02*
X97686871Y-94532004D01*
X97868300Y-95136766D02*
X97959014Y-95167004D01*
X97959014Y-95167004D02*
X98110205Y-95167004D01*
X98110205Y-95167004D02*
X98170681Y-95136766D01*
X98170681Y-95136766D02*
X98200919Y-95106527D01*
X98200919Y-95106527D02*
X98231157Y-95046051D01*
X98231157Y-95046051D02*
X98231157Y-94985575D01*
X98231157Y-94985575D02*
X98200919Y-94925099D01*
X98200919Y-94925099D02*
X98170681Y-94894861D01*
X98170681Y-94894861D02*
X98110205Y-94864623D01*
X98110205Y-94864623D02*
X97989252Y-94834385D01*
X97989252Y-94834385D02*
X97928776Y-94804146D01*
X97928776Y-94804146D02*
X97898538Y-94773908D01*
X97898538Y-94773908D02*
X97868300Y-94713432D01*
X97868300Y-94713432D02*
X97868300Y-94652956D01*
X97868300Y-94652956D02*
X97898538Y-94592480D01*
X97898538Y-94592480D02*
X97928776Y-94562242D01*
X97928776Y-94562242D02*
X97989252Y-94532004D01*
X97989252Y-94532004D02*
X98140443Y-94532004D01*
X98140443Y-94532004D02*
X98231157Y-94562242D01*
X98473062Y-95136766D02*
X98563776Y-95167004D01*
X98563776Y-95167004D02*
X98714967Y-95167004D01*
X98714967Y-95167004D02*
X98775443Y-95136766D01*
X98775443Y-95136766D02*
X98805681Y-95106527D01*
X98805681Y-95106527D02*
X98835919Y-95046051D01*
X98835919Y-95046051D02*
X98835919Y-94985575D01*
X98835919Y-94985575D02*
X98805681Y-94925099D01*
X98805681Y-94925099D02*
X98775443Y-94894861D01*
X98775443Y-94894861D02*
X98714967Y-94864623D01*
X98714967Y-94864623D02*
X98594014Y-94834385D01*
X98594014Y-94834385D02*
X98533538Y-94804146D01*
X98533538Y-94804146D02*
X98503300Y-94773908D01*
X98503300Y-94773908D02*
X98473062Y-94713432D01*
X98473062Y-94713432D02*
X98473062Y-94652956D01*
X98473062Y-94652956D02*
X98503300Y-94592480D01*
X98503300Y-94592480D02*
X98533538Y-94562242D01*
X98533538Y-94562242D02*
X98594014Y-94532004D01*
X98594014Y-94532004D02*
X98745205Y-94532004D01*
X98745205Y-94532004D02*
X98835919Y-94562242D01*
X99077824Y-94985575D02*
X99380205Y-94985575D01*
X99017348Y-95167004D02*
X99229014Y-94532004D01*
X99229014Y-94532004D02*
X99440681Y-95167004D01*
X120995032Y-117011004D02*
X120995032Y-116376004D01*
X120995032Y-116376004D02*
X121236937Y-116376004D01*
X121236937Y-116376004D02*
X121297413Y-116406242D01*
X121297413Y-116406242D02*
X121327651Y-116436480D01*
X121327651Y-116436480D02*
X121357889Y-116496956D01*
X121357889Y-116496956D02*
X121357889Y-116587670D01*
X121357889Y-116587670D02*
X121327651Y-116648146D01*
X121327651Y-116648146D02*
X121297413Y-116678385D01*
X121297413Y-116678385D02*
X121236937Y-116708623D01*
X121236937Y-116708623D02*
X120995032Y-116708623D01*
X121992889Y-116950527D02*
X121962651Y-116980766D01*
X121962651Y-116980766D02*
X121871937Y-117011004D01*
X121871937Y-117011004D02*
X121811461Y-117011004D01*
X121811461Y-117011004D02*
X121720746Y-116980766D01*
X121720746Y-116980766D02*
X121660270Y-116920289D01*
X121660270Y-116920289D02*
X121630032Y-116859813D01*
X121630032Y-116859813D02*
X121599794Y-116738861D01*
X121599794Y-116738861D02*
X121599794Y-116648146D01*
X121599794Y-116648146D02*
X121630032Y-116527194D01*
X121630032Y-116527194D02*
X121660270Y-116466718D01*
X121660270Y-116466718D02*
X121720746Y-116406242D01*
X121720746Y-116406242D02*
X121811461Y-116376004D01*
X121811461Y-116376004D02*
X121871937Y-116376004D01*
X121871937Y-116376004D02*
X121962651Y-116406242D01*
X121962651Y-116406242D02*
X121992889Y-116436480D01*
X122385984Y-116376004D02*
X122446461Y-116376004D01*
X122446461Y-116376004D02*
X122506937Y-116406242D01*
X122506937Y-116406242D02*
X122537175Y-116436480D01*
X122537175Y-116436480D02*
X122567413Y-116496956D01*
X122567413Y-116496956D02*
X122597651Y-116617908D01*
X122597651Y-116617908D02*
X122597651Y-116769099D01*
X122597651Y-116769099D02*
X122567413Y-116890051D01*
X122567413Y-116890051D02*
X122537175Y-116950527D01*
X122537175Y-116950527D02*
X122506937Y-116980766D01*
X122506937Y-116980766D02*
X122446461Y-117011004D01*
X122446461Y-117011004D02*
X122385984Y-117011004D01*
X122385984Y-117011004D02*
X122325508Y-116980766D01*
X122325508Y-116980766D02*
X122295270Y-116950527D01*
X122295270Y-116950527D02*
X122265032Y-116890051D01*
X122265032Y-116890051D02*
X122234794Y-116769099D01*
X122234794Y-116769099D02*
X122234794Y-116617908D01*
X122234794Y-116617908D02*
X122265032Y-116496956D01*
X122265032Y-116496956D02*
X122295270Y-116436480D01*
X122295270Y-116436480D02*
X122325508Y-116406242D01*
X122325508Y-116406242D02*
X122385984Y-116376004D01*
D12*
X118914942Y-82877819D02*
X118581609Y-82401628D01*
X118343514Y-82877819D02*
X118343514Y-81877819D01*
X118343514Y-81877819D02*
X118724466Y-81877819D01*
X118724466Y-81877819D02*
X118819704Y-81925438D01*
X118819704Y-81925438D02*
X118867323Y-81973057D01*
X118867323Y-81973057D02*
X118914942Y-82068295D01*
X118914942Y-82068295D02*
X118914942Y-82211152D01*
X118914942Y-82211152D02*
X118867323Y-82306390D01*
X118867323Y-82306390D02*
X118819704Y-82354009D01*
X118819704Y-82354009D02*
X118724466Y-82401628D01*
X118724466Y-82401628D02*
X118343514Y-82401628D01*
X119867323Y-82877819D02*
X119295895Y-82877819D01*
X119581609Y-82877819D02*
X119581609Y-81877819D01*
X119581609Y-81877819D02*
X119486371Y-82020676D01*
X119486371Y-82020676D02*
X119391133Y-82115914D01*
X119391133Y-82115914D02*
X119295895Y-82163533D01*
X120724466Y-82211152D02*
X120724466Y-82877819D01*
X120486371Y-81830200D02*
X120248276Y-82544485D01*
X120248276Y-82544485D02*
X120867323Y-82544485D01*
X106118819Y-80094057D02*
X105642628Y-80427390D01*
X106118819Y-80665485D02*
X105118819Y-80665485D01*
X105118819Y-80665485D02*
X105118819Y-80284533D01*
X105118819Y-80284533D02*
X105166438Y-80189295D01*
X105166438Y-80189295D02*
X105214057Y-80141676D01*
X105214057Y-80141676D02*
X105309295Y-80094057D01*
X105309295Y-80094057D02*
X105452152Y-80094057D01*
X105452152Y-80094057D02*
X105547390Y-80141676D01*
X105547390Y-80141676D02*
X105595009Y-80189295D01*
X105595009Y-80189295D02*
X105642628Y-80284533D01*
X105642628Y-80284533D02*
X105642628Y-80665485D01*
X106118819Y-79141676D02*
X106118819Y-79713104D01*
X106118819Y-79427390D02*
X105118819Y-79427390D01*
X105118819Y-79427390D02*
X105261676Y-79522628D01*
X105261676Y-79522628D02*
X105356914Y-79617866D01*
X105356914Y-79617866D02*
X105404533Y-79713104D01*
X105118819Y-78808342D02*
X105118819Y-78189295D01*
X105118819Y-78189295D02*
X105499771Y-78522628D01*
X105499771Y-78522628D02*
X105499771Y-78379771D01*
X105499771Y-78379771D02*
X105547390Y-78284533D01*
X105547390Y-78284533D02*
X105595009Y-78236914D01*
X105595009Y-78236914D02*
X105690247Y-78189295D01*
X105690247Y-78189295D02*
X105928342Y-78189295D01*
X105928342Y-78189295D02*
X106023580Y-78236914D01*
X106023580Y-78236914D02*
X106071200Y-78284533D01*
X106071200Y-78284533D02*
X106118819Y-78379771D01*
X106118819Y-78379771D02*
X106118819Y-78665485D01*
X106118819Y-78665485D02*
X106071200Y-78760723D01*
X106071200Y-78760723D02*
X106023580Y-78808342D01*
X121689580Y-99656666D02*
X121737200Y-99704285D01*
X121737200Y-99704285D02*
X121784819Y-99847142D01*
X121784819Y-99847142D02*
X121784819Y-99942380D01*
X121784819Y-99942380D02*
X121737200Y-100085237D01*
X121737200Y-100085237D02*
X121641961Y-100180475D01*
X121641961Y-100180475D02*
X121546723Y-100228094D01*
X121546723Y-100228094D02*
X121356247Y-100275713D01*
X121356247Y-100275713D02*
X121213390Y-100275713D01*
X121213390Y-100275713D02*
X121022914Y-100228094D01*
X121022914Y-100228094D02*
X120927676Y-100180475D01*
X120927676Y-100180475D02*
X120832438Y-100085237D01*
X120832438Y-100085237D02*
X120784819Y-99942380D01*
X120784819Y-99942380D02*
X120784819Y-99847142D01*
X120784819Y-99847142D02*
X120832438Y-99704285D01*
X120832438Y-99704285D02*
X120880057Y-99656666D01*
X121213390Y-99085237D02*
X121165771Y-99180475D01*
X121165771Y-99180475D02*
X121118152Y-99228094D01*
X121118152Y-99228094D02*
X121022914Y-99275713D01*
X121022914Y-99275713D02*
X120975295Y-99275713D01*
X120975295Y-99275713D02*
X120880057Y-99228094D01*
X120880057Y-99228094D02*
X120832438Y-99180475D01*
X120832438Y-99180475D02*
X120784819Y-99085237D01*
X120784819Y-99085237D02*
X120784819Y-98894761D01*
X120784819Y-98894761D02*
X120832438Y-98799523D01*
X120832438Y-98799523D02*
X120880057Y-98751904D01*
X120880057Y-98751904D02*
X120975295Y-98704285D01*
X120975295Y-98704285D02*
X121022914Y-98704285D01*
X121022914Y-98704285D02*
X121118152Y-98751904D01*
X121118152Y-98751904D02*
X121165771Y-98799523D01*
X121165771Y-98799523D02*
X121213390Y-98894761D01*
X121213390Y-98894761D02*
X121213390Y-99085237D01*
X121213390Y-99085237D02*
X121261009Y-99180475D01*
X121261009Y-99180475D02*
X121308628Y-99228094D01*
X121308628Y-99228094D02*
X121403866Y-99275713D01*
X121403866Y-99275713D02*
X121594342Y-99275713D01*
X121594342Y-99275713D02*
X121689580Y-99228094D01*
X121689580Y-99228094D02*
X121737200Y-99180475D01*
X121737200Y-99180475D02*
X121784819Y-99085237D01*
X121784819Y-99085237D02*
X121784819Y-98894761D01*
X121784819Y-98894761D02*
X121737200Y-98799523D01*
X121737200Y-98799523D02*
X121689580Y-98751904D01*
X121689580Y-98751904D02*
X121594342Y-98704285D01*
X121594342Y-98704285D02*
X121403866Y-98704285D01*
X121403866Y-98704285D02*
X121308628Y-98751904D01*
X121308628Y-98751904D02*
X121261009Y-98799523D01*
X121261009Y-98799523D02*
X121213390Y-98894761D01*
X107933261Y-91873257D02*
X107838023Y-91825638D01*
X107838023Y-91825638D02*
X107742785Y-91730400D01*
X107742785Y-91730400D02*
X107599928Y-91587542D01*
X107599928Y-91587542D02*
X107504690Y-91539923D01*
X107504690Y-91539923D02*
X107409452Y-91539923D01*
X107457071Y-91778019D02*
X107361833Y-91730400D01*
X107361833Y-91730400D02*
X107266595Y-91635161D01*
X107266595Y-91635161D02*
X107218976Y-91444685D01*
X107218976Y-91444685D02*
X107218976Y-91111352D01*
X107218976Y-91111352D02*
X107266595Y-90920876D01*
X107266595Y-90920876D02*
X107361833Y-90825638D01*
X107361833Y-90825638D02*
X107457071Y-90778019D01*
X107457071Y-90778019D02*
X107647547Y-90778019D01*
X107647547Y-90778019D02*
X107742785Y-90825638D01*
X107742785Y-90825638D02*
X107838023Y-90920876D01*
X107838023Y-90920876D02*
X107885642Y-91111352D01*
X107885642Y-91111352D02*
X107885642Y-91444685D01*
X107885642Y-91444685D02*
X107838023Y-91635161D01*
X107838023Y-91635161D02*
X107742785Y-91730400D01*
X107742785Y-91730400D02*
X107647547Y-91778019D01*
X107647547Y-91778019D02*
X107457071Y-91778019D01*
X108266595Y-90873257D02*
X108314214Y-90825638D01*
X108314214Y-90825638D02*
X108409452Y-90778019D01*
X108409452Y-90778019D02*
X108647547Y-90778019D01*
X108647547Y-90778019D02*
X108742785Y-90825638D01*
X108742785Y-90825638D02*
X108790404Y-90873257D01*
X108790404Y-90873257D02*
X108838023Y-90968495D01*
X108838023Y-90968495D02*
X108838023Y-91063733D01*
X108838023Y-91063733D02*
X108790404Y-91206590D01*
X108790404Y-91206590D02*
X108218976Y-91778019D01*
X108218976Y-91778019D02*
X108838023Y-91778019D01*
X105687019Y-85809057D02*
X105210828Y-86142390D01*
X105687019Y-86380485D02*
X104687019Y-86380485D01*
X104687019Y-86380485D02*
X104687019Y-85999533D01*
X104687019Y-85999533D02*
X104734638Y-85904295D01*
X104734638Y-85904295D02*
X104782257Y-85856676D01*
X104782257Y-85856676D02*
X104877495Y-85809057D01*
X104877495Y-85809057D02*
X105020352Y-85809057D01*
X105020352Y-85809057D02*
X105115590Y-85856676D01*
X105115590Y-85856676D02*
X105163209Y-85904295D01*
X105163209Y-85904295D02*
X105210828Y-85999533D01*
X105210828Y-85999533D02*
X105210828Y-86380485D01*
X105687019Y-84856676D02*
X105687019Y-85428104D01*
X105687019Y-85142390D02*
X104687019Y-85142390D01*
X104687019Y-85142390D02*
X104829876Y-85237628D01*
X104829876Y-85237628D02*
X104925114Y-85332866D01*
X104925114Y-85332866D02*
X104972733Y-85428104D01*
X105687019Y-83904295D02*
X105687019Y-84475723D01*
X105687019Y-84190009D02*
X104687019Y-84190009D01*
X104687019Y-84190009D02*
X104829876Y-84285247D01*
X104829876Y-84285247D02*
X104925114Y-84380485D01*
X104925114Y-84380485D02*
X104972733Y-84475723D01*
X126543333Y-107019580D02*
X126495714Y-107067200D01*
X126495714Y-107067200D02*
X126352857Y-107114819D01*
X126352857Y-107114819D02*
X126257619Y-107114819D01*
X126257619Y-107114819D02*
X126114762Y-107067200D01*
X126114762Y-107067200D02*
X126019524Y-106971961D01*
X126019524Y-106971961D02*
X125971905Y-106876723D01*
X125971905Y-106876723D02*
X125924286Y-106686247D01*
X125924286Y-106686247D02*
X125924286Y-106543390D01*
X125924286Y-106543390D02*
X125971905Y-106352914D01*
X125971905Y-106352914D02*
X126019524Y-106257676D01*
X126019524Y-106257676D02*
X126114762Y-106162438D01*
X126114762Y-106162438D02*
X126257619Y-106114819D01*
X126257619Y-106114819D02*
X126352857Y-106114819D01*
X126352857Y-106114819D02*
X126495714Y-106162438D01*
X126495714Y-106162438D02*
X126543333Y-106210057D01*
X126924286Y-106210057D02*
X126971905Y-106162438D01*
X126971905Y-106162438D02*
X127067143Y-106114819D01*
X127067143Y-106114819D02*
X127305238Y-106114819D01*
X127305238Y-106114819D02*
X127400476Y-106162438D01*
X127400476Y-106162438D02*
X127448095Y-106210057D01*
X127448095Y-106210057D02*
X127495714Y-106305295D01*
X127495714Y-106305295D02*
X127495714Y-106400533D01*
X127495714Y-106400533D02*
X127448095Y-106543390D01*
X127448095Y-106543390D02*
X126876667Y-107114819D01*
X126876667Y-107114819D02*
X127495714Y-107114819D01*
X139920980Y-102310866D02*
X139968600Y-102358485D01*
X139968600Y-102358485D02*
X140016219Y-102501342D01*
X140016219Y-102501342D02*
X140016219Y-102596580D01*
X140016219Y-102596580D02*
X139968600Y-102739437D01*
X139968600Y-102739437D02*
X139873361Y-102834675D01*
X139873361Y-102834675D02*
X139778123Y-102882294D01*
X139778123Y-102882294D02*
X139587647Y-102929913D01*
X139587647Y-102929913D02*
X139444790Y-102929913D01*
X139444790Y-102929913D02*
X139254314Y-102882294D01*
X139254314Y-102882294D02*
X139159076Y-102834675D01*
X139159076Y-102834675D02*
X139063838Y-102739437D01*
X139063838Y-102739437D02*
X139016219Y-102596580D01*
X139016219Y-102596580D02*
X139016219Y-102501342D01*
X139016219Y-102501342D02*
X139063838Y-102358485D01*
X139063838Y-102358485D02*
X139111457Y-102310866D01*
X140016219Y-101358485D02*
X140016219Y-101929913D01*
X140016219Y-101644199D02*
X139016219Y-101644199D01*
X139016219Y-101644199D02*
X139159076Y-101739437D01*
X139159076Y-101739437D02*
X139254314Y-101834675D01*
X139254314Y-101834675D02*
X139301933Y-101929913D01*
X139064819Y-92399166D02*
X138588628Y-92732499D01*
X139064819Y-92970594D02*
X138064819Y-92970594D01*
X138064819Y-92970594D02*
X138064819Y-92589642D01*
X138064819Y-92589642D02*
X138112438Y-92494404D01*
X138112438Y-92494404D02*
X138160057Y-92446785D01*
X138160057Y-92446785D02*
X138255295Y-92399166D01*
X138255295Y-92399166D02*
X138398152Y-92399166D01*
X138398152Y-92399166D02*
X138493390Y-92446785D01*
X138493390Y-92446785D02*
X138541009Y-92494404D01*
X138541009Y-92494404D02*
X138588628Y-92589642D01*
X138588628Y-92589642D02*
X138588628Y-92970594D01*
X138064819Y-91542023D02*
X138064819Y-91732499D01*
X138064819Y-91732499D02*
X138112438Y-91827737D01*
X138112438Y-91827737D02*
X138160057Y-91875356D01*
X138160057Y-91875356D02*
X138302914Y-91970594D01*
X138302914Y-91970594D02*
X138493390Y-92018213D01*
X138493390Y-92018213D02*
X138874342Y-92018213D01*
X138874342Y-92018213D02*
X138969580Y-91970594D01*
X138969580Y-91970594D02*
X139017200Y-91922975D01*
X139017200Y-91922975D02*
X139064819Y-91827737D01*
X139064819Y-91827737D02*
X139064819Y-91637261D01*
X139064819Y-91637261D02*
X139017200Y-91542023D01*
X139017200Y-91542023D02*
X138969580Y-91494404D01*
X138969580Y-91494404D02*
X138874342Y-91446785D01*
X138874342Y-91446785D02*
X138636247Y-91446785D01*
X138636247Y-91446785D02*
X138541009Y-91494404D01*
X138541009Y-91494404D02*
X138493390Y-91542023D01*
X138493390Y-91542023D02*
X138445771Y-91637261D01*
X138445771Y-91637261D02*
X138445771Y-91827737D01*
X138445771Y-91827737D02*
X138493390Y-91922975D01*
X138493390Y-91922975D02*
X138541009Y-91970594D01*
X138541009Y-91970594D02*
X138636247Y-92018213D01*
X139666666Y-74384819D02*
X139666666Y-75099104D01*
X139666666Y-75099104D02*
X139619047Y-75241961D01*
X139619047Y-75241961D02*
X139523809Y-75337200D01*
X139523809Y-75337200D02*
X139380952Y-75384819D01*
X139380952Y-75384819D02*
X139285714Y-75384819D01*
X140190476Y-75384819D02*
X140380952Y-75384819D01*
X140380952Y-75384819D02*
X140476190Y-75337200D01*
X140476190Y-75337200D02*
X140523809Y-75289580D01*
X140523809Y-75289580D02*
X140619047Y-75146723D01*
X140619047Y-75146723D02*
X140666666Y-74956247D01*
X140666666Y-74956247D02*
X140666666Y-74575295D01*
X140666666Y-74575295D02*
X140619047Y-74480057D01*
X140619047Y-74480057D02*
X140571428Y-74432438D01*
X140571428Y-74432438D02*
X140476190Y-74384819D01*
X140476190Y-74384819D02*
X140285714Y-74384819D01*
X140285714Y-74384819D02*
X140190476Y-74432438D01*
X140190476Y-74432438D02*
X140142857Y-74480057D01*
X140142857Y-74480057D02*
X140095238Y-74575295D01*
X140095238Y-74575295D02*
X140095238Y-74813390D01*
X140095238Y-74813390D02*
X140142857Y-74908628D01*
X140142857Y-74908628D02*
X140190476Y-74956247D01*
X140190476Y-74956247D02*
X140285714Y-75003866D01*
X140285714Y-75003866D02*
X140476190Y-75003866D01*
X140476190Y-75003866D02*
X140571428Y-74956247D01*
X140571428Y-74956247D02*
X140619047Y-74908628D01*
X140619047Y-74908628D02*
X140666666Y-74813390D01*
X128818095Y-86729819D02*
X128818095Y-87539342D01*
X128818095Y-87539342D02*
X128865714Y-87634580D01*
X128865714Y-87634580D02*
X128913333Y-87682200D01*
X128913333Y-87682200D02*
X129008571Y-87729819D01*
X129008571Y-87729819D02*
X129199047Y-87729819D01*
X129199047Y-87729819D02*
X129294285Y-87682200D01*
X129294285Y-87682200D02*
X129341904Y-87634580D01*
X129341904Y-87634580D02*
X129389523Y-87539342D01*
X129389523Y-87539342D02*
X129389523Y-86729819D01*
X130389523Y-87729819D02*
X129818095Y-87729819D01*
X130103809Y-87729819D02*
X130103809Y-86729819D01*
X130103809Y-86729819D02*
X130008571Y-86872676D01*
X130008571Y-86872676D02*
X129913333Y-86967914D01*
X129913333Y-86967914D02*
X129818095Y-87015533D01*
X147748666Y-82385819D02*
X147748666Y-83100104D01*
X147748666Y-83100104D02*
X147701047Y-83242961D01*
X147701047Y-83242961D02*
X147605809Y-83338200D01*
X147605809Y-83338200D02*
X147462952Y-83385819D01*
X147462952Y-83385819D02*
X147367714Y-83385819D01*
X148653428Y-82719152D02*
X148653428Y-83385819D01*
X148415333Y-82338200D02*
X148177238Y-83052485D01*
X148177238Y-83052485D02*
X148796285Y-83052485D01*
X121931133Y-81150619D02*
X121597800Y-80674428D01*
X121359705Y-81150619D02*
X121359705Y-80150619D01*
X121359705Y-80150619D02*
X121740657Y-80150619D01*
X121740657Y-80150619D02*
X121835895Y-80198238D01*
X121835895Y-80198238D02*
X121883514Y-80245857D01*
X121883514Y-80245857D02*
X121931133Y-80341095D01*
X121931133Y-80341095D02*
X121931133Y-80483952D01*
X121931133Y-80483952D02*
X121883514Y-80579190D01*
X121883514Y-80579190D02*
X121835895Y-80626809D01*
X121835895Y-80626809D02*
X121740657Y-80674428D01*
X121740657Y-80674428D02*
X121359705Y-80674428D01*
X122312086Y-80245857D02*
X122359705Y-80198238D01*
X122359705Y-80198238D02*
X122454943Y-80150619D01*
X122454943Y-80150619D02*
X122693038Y-80150619D01*
X122693038Y-80150619D02*
X122788276Y-80198238D01*
X122788276Y-80198238D02*
X122835895Y-80245857D01*
X122835895Y-80245857D02*
X122883514Y-80341095D01*
X122883514Y-80341095D02*
X122883514Y-80436333D01*
X122883514Y-80436333D02*
X122835895Y-80579190D01*
X122835895Y-80579190D02*
X122264467Y-81150619D01*
X122264467Y-81150619D02*
X122883514Y-81150619D01*
X116393933Y-82926719D02*
X116060600Y-82450528D01*
X115822505Y-82926719D02*
X115822505Y-81926719D01*
X115822505Y-81926719D02*
X116203457Y-81926719D01*
X116203457Y-81926719D02*
X116298695Y-81974338D01*
X116298695Y-81974338D02*
X116346314Y-82021957D01*
X116346314Y-82021957D02*
X116393933Y-82117195D01*
X116393933Y-82117195D02*
X116393933Y-82260052D01*
X116393933Y-82260052D02*
X116346314Y-82355290D01*
X116346314Y-82355290D02*
X116298695Y-82402909D01*
X116298695Y-82402909D02*
X116203457Y-82450528D01*
X116203457Y-82450528D02*
X115822505Y-82450528D01*
X117346314Y-82926719D02*
X116774886Y-82926719D01*
X117060600Y-82926719D02*
X117060600Y-81926719D01*
X117060600Y-81926719D02*
X116965362Y-82069576D01*
X116965362Y-82069576D02*
X116870124Y-82164814D01*
X116870124Y-82164814D02*
X116774886Y-82212433D01*
X113713809Y-104108628D02*
X113713809Y-104584819D01*
X113380476Y-103584819D02*
X113713809Y-104108628D01*
X113713809Y-104108628D02*
X114047142Y-103584819D01*
X114904285Y-104584819D02*
X114332857Y-104584819D01*
X114618571Y-104584819D02*
X114618571Y-103584819D01*
X114618571Y-103584819D02*
X114523333Y-103727676D01*
X114523333Y-103727676D02*
X114428095Y-103822914D01*
X114428095Y-103822914D02*
X114332857Y-103870533D01*
X114716666Y-110472819D02*
X114716666Y-111187104D01*
X114716666Y-111187104D02*
X114669047Y-111329961D01*
X114669047Y-111329961D02*
X114573809Y-111425200D01*
X114573809Y-111425200D02*
X114430952Y-111472819D01*
X114430952Y-111472819D02*
X114335714Y-111472819D01*
X115192857Y-111472819D02*
X115192857Y-110472819D01*
X115192857Y-110472819D02*
X115573809Y-110472819D01*
X115573809Y-110472819D02*
X115669047Y-110520438D01*
X115669047Y-110520438D02*
X115716666Y-110568057D01*
X115716666Y-110568057D02*
X115764285Y-110663295D01*
X115764285Y-110663295D02*
X115764285Y-110806152D01*
X115764285Y-110806152D02*
X115716666Y-110901390D01*
X115716666Y-110901390D02*
X115669047Y-110949009D01*
X115669047Y-110949009D02*
X115573809Y-110996628D01*
X115573809Y-110996628D02*
X115192857Y-110996628D01*
X116716666Y-111472819D02*
X116145238Y-111472819D01*
X116430952Y-111472819D02*
X116430952Y-110472819D01*
X116430952Y-110472819D02*
X116335714Y-110615676D01*
X116335714Y-110615676D02*
X116240476Y-110710914D01*
X116240476Y-110710914D02*
X116145238Y-110758533D01*
X144089580Y-89556666D02*
X144137200Y-89604285D01*
X144137200Y-89604285D02*
X144184819Y-89747142D01*
X144184819Y-89747142D02*
X144184819Y-89842380D01*
X144184819Y-89842380D02*
X144137200Y-89985237D01*
X144137200Y-89985237D02*
X144041961Y-90080475D01*
X144041961Y-90080475D02*
X143946723Y-90128094D01*
X143946723Y-90128094D02*
X143756247Y-90175713D01*
X143756247Y-90175713D02*
X143613390Y-90175713D01*
X143613390Y-90175713D02*
X143422914Y-90128094D01*
X143422914Y-90128094D02*
X143327676Y-90080475D01*
X143327676Y-90080475D02*
X143232438Y-89985237D01*
X143232438Y-89985237D02*
X143184819Y-89842380D01*
X143184819Y-89842380D02*
X143184819Y-89747142D01*
X143184819Y-89747142D02*
X143232438Y-89604285D01*
X143232438Y-89604285D02*
X143280057Y-89556666D01*
X143518152Y-88699523D02*
X144184819Y-88699523D01*
X143137200Y-88937618D02*
X143851485Y-89175713D01*
X143851485Y-89175713D02*
X143851485Y-88556666D01*
X130618333Y-81192319D02*
X130285000Y-80716128D01*
X130046905Y-81192319D02*
X130046905Y-80192319D01*
X130046905Y-80192319D02*
X130427857Y-80192319D01*
X130427857Y-80192319D02*
X130523095Y-80239938D01*
X130523095Y-80239938D02*
X130570714Y-80287557D01*
X130570714Y-80287557D02*
X130618333Y-80382795D01*
X130618333Y-80382795D02*
X130618333Y-80525652D01*
X130618333Y-80525652D02*
X130570714Y-80620890D01*
X130570714Y-80620890D02*
X130523095Y-80668509D01*
X130523095Y-80668509D02*
X130427857Y-80716128D01*
X130427857Y-80716128D02*
X130046905Y-80716128D01*
X131523095Y-80192319D02*
X131046905Y-80192319D01*
X131046905Y-80192319D02*
X130999286Y-80668509D01*
X130999286Y-80668509D02*
X131046905Y-80620890D01*
X131046905Y-80620890D02*
X131142143Y-80573271D01*
X131142143Y-80573271D02*
X131380238Y-80573271D01*
X131380238Y-80573271D02*
X131475476Y-80620890D01*
X131475476Y-80620890D02*
X131523095Y-80668509D01*
X131523095Y-80668509D02*
X131570714Y-80763747D01*
X131570714Y-80763747D02*
X131570714Y-81001842D01*
X131570714Y-81001842D02*
X131523095Y-81097080D01*
X131523095Y-81097080D02*
X131475476Y-81144700D01*
X131475476Y-81144700D02*
X131380238Y-81192319D01*
X131380238Y-81192319D02*
X131142143Y-81192319D01*
X131142143Y-81192319D02*
X131046905Y-81144700D01*
X131046905Y-81144700D02*
X130999286Y-81097080D01*
X119273333Y-106809580D02*
X119225714Y-106857200D01*
X119225714Y-106857200D02*
X119082857Y-106904819D01*
X119082857Y-106904819D02*
X118987619Y-106904819D01*
X118987619Y-106904819D02*
X118844762Y-106857200D01*
X118844762Y-106857200D02*
X118749524Y-106761961D01*
X118749524Y-106761961D02*
X118701905Y-106666723D01*
X118701905Y-106666723D02*
X118654286Y-106476247D01*
X118654286Y-106476247D02*
X118654286Y-106333390D01*
X118654286Y-106333390D02*
X118701905Y-106142914D01*
X118701905Y-106142914D02*
X118749524Y-106047676D01*
X118749524Y-106047676D02*
X118844762Y-105952438D01*
X118844762Y-105952438D02*
X118987619Y-105904819D01*
X118987619Y-105904819D02*
X119082857Y-105904819D01*
X119082857Y-105904819D02*
X119225714Y-105952438D01*
X119225714Y-105952438D02*
X119273333Y-106000057D01*
X119606667Y-105904819D02*
X120273333Y-105904819D01*
X120273333Y-105904819D02*
X119844762Y-106904819D01*
X106017219Y-82830894D02*
X105017219Y-82830894D01*
X105017219Y-82830894D02*
X105017219Y-82592799D01*
X105017219Y-82592799D02*
X105064838Y-82449942D01*
X105064838Y-82449942D02*
X105160076Y-82354704D01*
X105160076Y-82354704D02*
X105255314Y-82307085D01*
X105255314Y-82307085D02*
X105445790Y-82259466D01*
X105445790Y-82259466D02*
X105588647Y-82259466D01*
X105588647Y-82259466D02*
X105779123Y-82307085D01*
X105779123Y-82307085D02*
X105874361Y-82354704D01*
X105874361Y-82354704D02*
X105969600Y-82449942D01*
X105969600Y-82449942D02*
X106017219Y-82592799D01*
X106017219Y-82592799D02*
X106017219Y-82830894D01*
X106017219Y-81307085D02*
X106017219Y-81878513D01*
X106017219Y-81592799D02*
X105017219Y-81592799D01*
X105017219Y-81592799D02*
X105160076Y-81688037D01*
X105160076Y-81688037D02*
X105255314Y-81783275D01*
X105255314Y-81783275D02*
X105302933Y-81878513D01*
X110995619Y-85809057D02*
X110519428Y-86142390D01*
X110995619Y-86380485D02*
X109995619Y-86380485D01*
X109995619Y-86380485D02*
X109995619Y-85999533D01*
X109995619Y-85999533D02*
X110043238Y-85904295D01*
X110043238Y-85904295D02*
X110090857Y-85856676D01*
X110090857Y-85856676D02*
X110186095Y-85809057D01*
X110186095Y-85809057D02*
X110328952Y-85809057D01*
X110328952Y-85809057D02*
X110424190Y-85856676D01*
X110424190Y-85856676D02*
X110471809Y-85904295D01*
X110471809Y-85904295D02*
X110519428Y-85999533D01*
X110519428Y-85999533D02*
X110519428Y-86380485D01*
X110995619Y-84856676D02*
X110995619Y-85428104D01*
X110995619Y-85142390D02*
X109995619Y-85142390D01*
X109995619Y-85142390D02*
X110138476Y-85237628D01*
X110138476Y-85237628D02*
X110233714Y-85332866D01*
X110233714Y-85332866D02*
X110281333Y-85428104D01*
X110090857Y-84475723D02*
X110043238Y-84428104D01*
X110043238Y-84428104D02*
X109995619Y-84332866D01*
X109995619Y-84332866D02*
X109995619Y-84094771D01*
X109995619Y-84094771D02*
X110043238Y-83999533D01*
X110043238Y-83999533D02*
X110090857Y-83951914D01*
X110090857Y-83951914D02*
X110186095Y-83904295D01*
X110186095Y-83904295D02*
X110281333Y-83904295D01*
X110281333Y-83904295D02*
X110424190Y-83951914D01*
X110424190Y-83951914D02*
X110995619Y-84523342D01*
X110995619Y-84523342D02*
X110995619Y-83904295D01*
X132968333Y-81150619D02*
X132635000Y-80674428D01*
X132396905Y-81150619D02*
X132396905Y-80150619D01*
X132396905Y-80150619D02*
X132777857Y-80150619D01*
X132777857Y-80150619D02*
X132873095Y-80198238D01*
X132873095Y-80198238D02*
X132920714Y-80245857D01*
X132920714Y-80245857D02*
X132968333Y-80341095D01*
X132968333Y-80341095D02*
X132968333Y-80483952D01*
X132968333Y-80483952D02*
X132920714Y-80579190D01*
X132920714Y-80579190D02*
X132873095Y-80626809D01*
X132873095Y-80626809D02*
X132777857Y-80674428D01*
X132777857Y-80674428D02*
X132396905Y-80674428D01*
X133825476Y-80483952D02*
X133825476Y-81150619D01*
X133587381Y-80103000D02*
X133349286Y-80817285D01*
X133349286Y-80817285D02*
X133968333Y-80817285D01*
X121639580Y-94076666D02*
X121687200Y-94124285D01*
X121687200Y-94124285D02*
X121734819Y-94267142D01*
X121734819Y-94267142D02*
X121734819Y-94362380D01*
X121734819Y-94362380D02*
X121687200Y-94505237D01*
X121687200Y-94505237D02*
X121591961Y-94600475D01*
X121591961Y-94600475D02*
X121496723Y-94648094D01*
X121496723Y-94648094D02*
X121306247Y-94695713D01*
X121306247Y-94695713D02*
X121163390Y-94695713D01*
X121163390Y-94695713D02*
X120972914Y-94648094D01*
X120972914Y-94648094D02*
X120877676Y-94600475D01*
X120877676Y-94600475D02*
X120782438Y-94505237D01*
X120782438Y-94505237D02*
X120734819Y-94362380D01*
X120734819Y-94362380D02*
X120734819Y-94267142D01*
X120734819Y-94267142D02*
X120782438Y-94124285D01*
X120782438Y-94124285D02*
X120830057Y-94076666D01*
X121734819Y-93600475D02*
X121734819Y-93409999D01*
X121734819Y-93409999D02*
X121687200Y-93314761D01*
X121687200Y-93314761D02*
X121639580Y-93267142D01*
X121639580Y-93267142D02*
X121496723Y-93171904D01*
X121496723Y-93171904D02*
X121306247Y-93124285D01*
X121306247Y-93124285D02*
X120925295Y-93124285D01*
X120925295Y-93124285D02*
X120830057Y-93171904D01*
X120830057Y-93171904D02*
X120782438Y-93219523D01*
X120782438Y-93219523D02*
X120734819Y-93314761D01*
X120734819Y-93314761D02*
X120734819Y-93505237D01*
X120734819Y-93505237D02*
X120782438Y-93600475D01*
X120782438Y-93600475D02*
X120830057Y-93648094D01*
X120830057Y-93648094D02*
X120925295Y-93695713D01*
X120925295Y-93695713D02*
X121163390Y-93695713D01*
X121163390Y-93695713D02*
X121258628Y-93648094D01*
X121258628Y-93648094D02*
X121306247Y-93600475D01*
X121306247Y-93600475D02*
X121353866Y-93505237D01*
X121353866Y-93505237D02*
X121353866Y-93314761D01*
X121353866Y-93314761D02*
X121306247Y-93219523D01*
X121306247Y-93219523D02*
X121258628Y-93171904D01*
X121258628Y-93171904D02*
X121163390Y-93124285D01*
X138173619Y-97677266D02*
X137697428Y-98010599D01*
X138173619Y-98248694D02*
X137173619Y-98248694D01*
X137173619Y-98248694D02*
X137173619Y-97867742D01*
X137173619Y-97867742D02*
X137221238Y-97772504D01*
X137221238Y-97772504D02*
X137268857Y-97724885D01*
X137268857Y-97724885D02*
X137364095Y-97677266D01*
X137364095Y-97677266D02*
X137506952Y-97677266D01*
X137506952Y-97677266D02*
X137602190Y-97724885D01*
X137602190Y-97724885D02*
X137649809Y-97772504D01*
X137649809Y-97772504D02*
X137697428Y-97867742D01*
X137697428Y-97867742D02*
X137697428Y-98248694D01*
X138173619Y-97201075D02*
X138173619Y-97010599D01*
X138173619Y-97010599D02*
X138126000Y-96915361D01*
X138126000Y-96915361D02*
X138078380Y-96867742D01*
X138078380Y-96867742D02*
X137935523Y-96772504D01*
X137935523Y-96772504D02*
X137745047Y-96724885D01*
X137745047Y-96724885D02*
X137364095Y-96724885D01*
X137364095Y-96724885D02*
X137268857Y-96772504D01*
X137268857Y-96772504D02*
X137221238Y-96820123D01*
X137221238Y-96820123D02*
X137173619Y-96915361D01*
X137173619Y-96915361D02*
X137173619Y-97105837D01*
X137173619Y-97105837D02*
X137221238Y-97201075D01*
X137221238Y-97201075D02*
X137268857Y-97248694D01*
X137268857Y-97248694D02*
X137364095Y-97296313D01*
X137364095Y-97296313D02*
X137602190Y-97296313D01*
X137602190Y-97296313D02*
X137697428Y-97248694D01*
X137697428Y-97248694D02*
X137745047Y-97201075D01*
X137745047Y-97201075D02*
X137792666Y-97105837D01*
X137792666Y-97105837D02*
X137792666Y-96915361D01*
X137792666Y-96915361D02*
X137745047Y-96820123D01*
X137745047Y-96820123D02*
X137697428Y-96772504D01*
X137697428Y-96772504D02*
X137602190Y-96724885D01*
X127671533Y-81131580D02*
X127623914Y-81179200D01*
X127623914Y-81179200D02*
X127481057Y-81226819D01*
X127481057Y-81226819D02*
X127385819Y-81226819D01*
X127385819Y-81226819D02*
X127242962Y-81179200D01*
X127242962Y-81179200D02*
X127147724Y-81083961D01*
X127147724Y-81083961D02*
X127100105Y-80988723D01*
X127100105Y-80988723D02*
X127052486Y-80798247D01*
X127052486Y-80798247D02*
X127052486Y-80655390D01*
X127052486Y-80655390D02*
X127100105Y-80464914D01*
X127100105Y-80464914D02*
X127147724Y-80369676D01*
X127147724Y-80369676D02*
X127242962Y-80274438D01*
X127242962Y-80274438D02*
X127385819Y-80226819D01*
X127385819Y-80226819D02*
X127481057Y-80226819D01*
X127481057Y-80226819D02*
X127623914Y-80274438D01*
X127623914Y-80274438D02*
X127671533Y-80322057D01*
X128004867Y-80226819D02*
X128623914Y-80226819D01*
X128623914Y-80226819D02*
X128290581Y-80607771D01*
X128290581Y-80607771D02*
X128433438Y-80607771D01*
X128433438Y-80607771D02*
X128528676Y-80655390D01*
X128528676Y-80655390D02*
X128576295Y-80703009D01*
X128576295Y-80703009D02*
X128623914Y-80798247D01*
X128623914Y-80798247D02*
X128623914Y-81036342D01*
X128623914Y-81036342D02*
X128576295Y-81131580D01*
X128576295Y-81131580D02*
X128528676Y-81179200D01*
X128528676Y-81179200D02*
X128433438Y-81226819D01*
X128433438Y-81226819D02*
X128147724Y-81226819D01*
X128147724Y-81226819D02*
X128052486Y-81179200D01*
X128052486Y-81179200D02*
X128004867Y-81131580D01*
X151410476Y-83494819D02*
X151410476Y-84209104D01*
X151410476Y-84209104D02*
X151362857Y-84351961D01*
X151362857Y-84351961D02*
X151267619Y-84447200D01*
X151267619Y-84447200D02*
X151124762Y-84494819D01*
X151124762Y-84494819D02*
X151029524Y-84494819D01*
X152410476Y-84494819D02*
X151839048Y-84494819D01*
X152124762Y-84494819D02*
X152124762Y-83494819D01*
X152124762Y-83494819D02*
X152029524Y-83637676D01*
X152029524Y-83637676D02*
X151934286Y-83732914D01*
X151934286Y-83732914D02*
X151839048Y-83780533D01*
X153029524Y-83494819D02*
X153124762Y-83494819D01*
X153124762Y-83494819D02*
X153220000Y-83542438D01*
X153220000Y-83542438D02*
X153267619Y-83590057D01*
X153267619Y-83590057D02*
X153315238Y-83685295D01*
X153315238Y-83685295D02*
X153362857Y-83875771D01*
X153362857Y-83875771D02*
X153362857Y-84113866D01*
X153362857Y-84113866D02*
X153315238Y-84304342D01*
X153315238Y-84304342D02*
X153267619Y-84399580D01*
X153267619Y-84399580D02*
X153220000Y-84447200D01*
X153220000Y-84447200D02*
X153124762Y-84494819D01*
X153124762Y-84494819D02*
X153029524Y-84494819D01*
X153029524Y-84494819D02*
X152934286Y-84447200D01*
X152934286Y-84447200D02*
X152886667Y-84399580D01*
X152886667Y-84399580D02*
X152839048Y-84304342D01*
X152839048Y-84304342D02*
X152791429Y-84113866D01*
X152791429Y-84113866D02*
X152791429Y-83875771D01*
X152791429Y-83875771D02*
X152839048Y-83685295D01*
X152839048Y-83685295D02*
X152886667Y-83590057D01*
X152886667Y-83590057D02*
X152934286Y-83542438D01*
X152934286Y-83542438D02*
X153029524Y-83494819D01*
X108733809Y-104128628D02*
X108733809Y-104604819D01*
X108400476Y-103604819D02*
X108733809Y-104128628D01*
X108733809Y-104128628D02*
X109067142Y-103604819D01*
X109352857Y-103700057D02*
X109400476Y-103652438D01*
X109400476Y-103652438D02*
X109495714Y-103604819D01*
X109495714Y-103604819D02*
X109733809Y-103604819D01*
X109733809Y-103604819D02*
X109829047Y-103652438D01*
X109829047Y-103652438D02*
X109876666Y-103700057D01*
X109876666Y-103700057D02*
X109924285Y-103795295D01*
X109924285Y-103795295D02*
X109924285Y-103890533D01*
X109924285Y-103890533D02*
X109876666Y-104033390D01*
X109876666Y-104033390D02*
X109305238Y-104604819D01*
X109305238Y-104604819D02*
X109924285Y-104604819D01*
X113061761Y-82895757D02*
X112966523Y-82848138D01*
X112966523Y-82848138D02*
X112871285Y-82752900D01*
X112871285Y-82752900D02*
X112728428Y-82610042D01*
X112728428Y-82610042D02*
X112633190Y-82562423D01*
X112633190Y-82562423D02*
X112537952Y-82562423D01*
X112585571Y-82800519D02*
X112490333Y-82752900D01*
X112490333Y-82752900D02*
X112395095Y-82657661D01*
X112395095Y-82657661D02*
X112347476Y-82467185D01*
X112347476Y-82467185D02*
X112347476Y-82133852D01*
X112347476Y-82133852D02*
X112395095Y-81943376D01*
X112395095Y-81943376D02*
X112490333Y-81848138D01*
X112490333Y-81848138D02*
X112585571Y-81800519D01*
X112585571Y-81800519D02*
X112776047Y-81800519D01*
X112776047Y-81800519D02*
X112871285Y-81848138D01*
X112871285Y-81848138D02*
X112966523Y-81943376D01*
X112966523Y-81943376D02*
X113014142Y-82133852D01*
X113014142Y-82133852D02*
X113014142Y-82467185D01*
X113014142Y-82467185D02*
X112966523Y-82657661D01*
X112966523Y-82657661D02*
X112871285Y-82752900D01*
X112871285Y-82752900D02*
X112776047Y-82800519D01*
X112776047Y-82800519D02*
X112585571Y-82800519D01*
X113966523Y-82800519D02*
X113395095Y-82800519D01*
X113680809Y-82800519D02*
X113680809Y-81800519D01*
X113680809Y-81800519D02*
X113585571Y-81943376D01*
X113585571Y-81943376D02*
X113490333Y-82038614D01*
X113490333Y-82038614D02*
X113395095Y-82086233D01*
X123963133Y-81201419D02*
X123629800Y-80725228D01*
X123391705Y-81201419D02*
X123391705Y-80201419D01*
X123391705Y-80201419D02*
X123772657Y-80201419D01*
X123772657Y-80201419D02*
X123867895Y-80249038D01*
X123867895Y-80249038D02*
X123915514Y-80296657D01*
X123915514Y-80296657D02*
X123963133Y-80391895D01*
X123963133Y-80391895D02*
X123963133Y-80534752D01*
X123963133Y-80534752D02*
X123915514Y-80629990D01*
X123915514Y-80629990D02*
X123867895Y-80677609D01*
X123867895Y-80677609D02*
X123772657Y-80725228D01*
X123772657Y-80725228D02*
X123391705Y-80725228D01*
X124296467Y-80201419D02*
X124915514Y-80201419D01*
X124915514Y-80201419D02*
X124582181Y-80582371D01*
X124582181Y-80582371D02*
X124725038Y-80582371D01*
X124725038Y-80582371D02*
X124820276Y-80629990D01*
X124820276Y-80629990D02*
X124867895Y-80677609D01*
X124867895Y-80677609D02*
X124915514Y-80772847D01*
X124915514Y-80772847D02*
X124915514Y-81010942D01*
X124915514Y-81010942D02*
X124867895Y-81106180D01*
X124867895Y-81106180D02*
X124820276Y-81153800D01*
X124820276Y-81153800D02*
X124725038Y-81201419D01*
X124725038Y-81201419D02*
X124439324Y-81201419D01*
X124439324Y-81201419D02*
X124344086Y-81153800D01*
X124344086Y-81153800D02*
X124296467Y-81106180D01*
X101266666Y-89409819D02*
X101266666Y-90124104D01*
X101266666Y-90124104D02*
X101219047Y-90266961D01*
X101219047Y-90266961D02*
X101123809Y-90362200D01*
X101123809Y-90362200D02*
X100980952Y-90409819D01*
X100980952Y-90409819D02*
X100885714Y-90409819D01*
X101695238Y-89505057D02*
X101742857Y-89457438D01*
X101742857Y-89457438D02*
X101838095Y-89409819D01*
X101838095Y-89409819D02*
X102076190Y-89409819D01*
X102076190Y-89409819D02*
X102171428Y-89457438D01*
X102171428Y-89457438D02*
X102219047Y-89505057D01*
X102219047Y-89505057D02*
X102266666Y-89600295D01*
X102266666Y-89600295D02*
X102266666Y-89695533D01*
X102266666Y-89695533D02*
X102219047Y-89838390D01*
X102219047Y-89838390D02*
X101647619Y-90409819D01*
X101647619Y-90409819D02*
X102266666Y-90409819D01*
X139061866Y-112865819D02*
X139061866Y-113580104D01*
X139061866Y-113580104D02*
X139014247Y-113722961D01*
X139014247Y-113722961D02*
X138919009Y-113818200D01*
X138919009Y-113818200D02*
X138776152Y-113865819D01*
X138776152Y-113865819D02*
X138680914Y-113865819D01*
X139680914Y-113294390D02*
X139585676Y-113246771D01*
X139585676Y-113246771D02*
X139538057Y-113199152D01*
X139538057Y-113199152D02*
X139490438Y-113103914D01*
X139490438Y-113103914D02*
X139490438Y-113056295D01*
X139490438Y-113056295D02*
X139538057Y-112961057D01*
X139538057Y-112961057D02*
X139585676Y-112913438D01*
X139585676Y-112913438D02*
X139680914Y-112865819D01*
X139680914Y-112865819D02*
X139871390Y-112865819D01*
X139871390Y-112865819D02*
X139966628Y-112913438D01*
X139966628Y-112913438D02*
X140014247Y-112961057D01*
X140014247Y-112961057D02*
X140061866Y-113056295D01*
X140061866Y-113056295D02*
X140061866Y-113103914D01*
X140061866Y-113103914D02*
X140014247Y-113199152D01*
X140014247Y-113199152D02*
X139966628Y-113246771D01*
X139966628Y-113246771D02*
X139871390Y-113294390D01*
X139871390Y-113294390D02*
X139680914Y-113294390D01*
X139680914Y-113294390D02*
X139585676Y-113342009D01*
X139585676Y-113342009D02*
X139538057Y-113389628D01*
X139538057Y-113389628D02*
X139490438Y-113484866D01*
X139490438Y-113484866D02*
X139490438Y-113675342D01*
X139490438Y-113675342D02*
X139538057Y-113770580D01*
X139538057Y-113770580D02*
X139585676Y-113818200D01*
X139585676Y-113818200D02*
X139680914Y-113865819D01*
X139680914Y-113865819D02*
X139871390Y-113865819D01*
X139871390Y-113865819D02*
X139966628Y-113818200D01*
X139966628Y-113818200D02*
X140014247Y-113770580D01*
X140014247Y-113770580D02*
X140061866Y-113675342D01*
X140061866Y-113675342D02*
X140061866Y-113484866D01*
X140061866Y-113484866D02*
X140014247Y-113389628D01*
X140014247Y-113389628D02*
X139966628Y-113342009D01*
X139966628Y-113342009D02*
X139871390Y-113294390D01*
X121569580Y-91472857D02*
X121617200Y-91520476D01*
X121617200Y-91520476D02*
X121664819Y-91663333D01*
X121664819Y-91663333D02*
X121664819Y-91758571D01*
X121664819Y-91758571D02*
X121617200Y-91901428D01*
X121617200Y-91901428D02*
X121521961Y-91996666D01*
X121521961Y-91996666D02*
X121426723Y-92044285D01*
X121426723Y-92044285D02*
X121236247Y-92091904D01*
X121236247Y-92091904D02*
X121093390Y-92091904D01*
X121093390Y-92091904D02*
X120902914Y-92044285D01*
X120902914Y-92044285D02*
X120807676Y-91996666D01*
X120807676Y-91996666D02*
X120712438Y-91901428D01*
X120712438Y-91901428D02*
X120664819Y-91758571D01*
X120664819Y-91758571D02*
X120664819Y-91663333D01*
X120664819Y-91663333D02*
X120712438Y-91520476D01*
X120712438Y-91520476D02*
X120760057Y-91472857D01*
X121664819Y-90520476D02*
X121664819Y-91091904D01*
X121664819Y-90806190D02*
X120664819Y-90806190D01*
X120664819Y-90806190D02*
X120807676Y-90901428D01*
X120807676Y-90901428D02*
X120902914Y-90996666D01*
X120902914Y-90996666D02*
X120950533Y-91091904D01*
X121664819Y-89568095D02*
X121664819Y-90139523D01*
X121664819Y-89853809D02*
X120664819Y-89853809D01*
X120664819Y-89853809D02*
X120807676Y-89949047D01*
X120807676Y-89949047D02*
X120902914Y-90044285D01*
X120902914Y-90044285D02*
X120950533Y-90139523D01*
X121253333Y-106809580D02*
X121205714Y-106857200D01*
X121205714Y-106857200D02*
X121062857Y-106904819D01*
X121062857Y-106904819D02*
X120967619Y-106904819D01*
X120967619Y-106904819D02*
X120824762Y-106857200D01*
X120824762Y-106857200D02*
X120729524Y-106761961D01*
X120729524Y-106761961D02*
X120681905Y-106666723D01*
X120681905Y-106666723D02*
X120634286Y-106476247D01*
X120634286Y-106476247D02*
X120634286Y-106333390D01*
X120634286Y-106333390D02*
X120681905Y-106142914D01*
X120681905Y-106142914D02*
X120729524Y-106047676D01*
X120729524Y-106047676D02*
X120824762Y-105952438D01*
X120824762Y-105952438D02*
X120967619Y-105904819D01*
X120967619Y-105904819D02*
X121062857Y-105904819D01*
X121062857Y-105904819D02*
X121205714Y-105952438D01*
X121205714Y-105952438D02*
X121253333Y-106000057D01*
X122110476Y-105904819D02*
X121920000Y-105904819D01*
X121920000Y-105904819D02*
X121824762Y-105952438D01*
X121824762Y-105952438D02*
X121777143Y-106000057D01*
X121777143Y-106000057D02*
X121681905Y-106142914D01*
X121681905Y-106142914D02*
X121634286Y-106333390D01*
X121634286Y-106333390D02*
X121634286Y-106714342D01*
X121634286Y-106714342D02*
X121681905Y-106809580D01*
X121681905Y-106809580D02*
X121729524Y-106857200D01*
X121729524Y-106857200D02*
X121824762Y-106904819D01*
X121824762Y-106904819D02*
X122015238Y-106904819D01*
X122015238Y-106904819D02*
X122110476Y-106857200D01*
X122110476Y-106857200D02*
X122158095Y-106809580D01*
X122158095Y-106809580D02*
X122205714Y-106714342D01*
X122205714Y-106714342D02*
X122205714Y-106476247D01*
X122205714Y-106476247D02*
X122158095Y-106381009D01*
X122158095Y-106381009D02*
X122110476Y-106333390D01*
X122110476Y-106333390D02*
X122015238Y-106285771D01*
X122015238Y-106285771D02*
X121824762Y-106285771D01*
X121824762Y-106285771D02*
X121729524Y-106333390D01*
X121729524Y-106333390D02*
X121681905Y-106381009D01*
X121681905Y-106381009D02*
X121634286Y-106476247D01*
X145014819Y-92399166D02*
X144538628Y-92732499D01*
X145014819Y-92970594D02*
X144014819Y-92970594D01*
X144014819Y-92970594D02*
X144014819Y-92589642D01*
X144014819Y-92589642D02*
X144062438Y-92494404D01*
X144062438Y-92494404D02*
X144110057Y-92446785D01*
X144110057Y-92446785D02*
X144205295Y-92399166D01*
X144205295Y-92399166D02*
X144348152Y-92399166D01*
X144348152Y-92399166D02*
X144443390Y-92446785D01*
X144443390Y-92446785D02*
X144491009Y-92494404D01*
X144491009Y-92494404D02*
X144538628Y-92589642D01*
X144538628Y-92589642D02*
X144538628Y-92970594D01*
X144014819Y-92065832D02*
X144014819Y-91399166D01*
X144014819Y-91399166D02*
X145014819Y-91827737D01*
X114185867Y-73432200D02*
X114328724Y-73479819D01*
X114328724Y-73479819D02*
X114566819Y-73479819D01*
X114566819Y-73479819D02*
X114662057Y-73432200D01*
X114662057Y-73432200D02*
X114709676Y-73384580D01*
X114709676Y-73384580D02*
X114757295Y-73289342D01*
X114757295Y-73289342D02*
X114757295Y-73194104D01*
X114757295Y-73194104D02*
X114709676Y-73098866D01*
X114709676Y-73098866D02*
X114662057Y-73051247D01*
X114662057Y-73051247D02*
X114566819Y-73003628D01*
X114566819Y-73003628D02*
X114376343Y-72956009D01*
X114376343Y-72956009D02*
X114281105Y-72908390D01*
X114281105Y-72908390D02*
X114233486Y-72860771D01*
X114233486Y-72860771D02*
X114185867Y-72765533D01*
X114185867Y-72765533D02*
X114185867Y-72670295D01*
X114185867Y-72670295D02*
X114233486Y-72575057D01*
X114233486Y-72575057D02*
X114281105Y-72527438D01*
X114281105Y-72527438D02*
X114376343Y-72479819D01*
X114376343Y-72479819D02*
X114614438Y-72479819D01*
X114614438Y-72479819D02*
X114757295Y-72527438D01*
X115090629Y-72479819D02*
X115328724Y-73479819D01*
X115328724Y-73479819D02*
X115519200Y-72765533D01*
X115519200Y-72765533D02*
X115709676Y-73479819D01*
X115709676Y-73479819D02*
X115947772Y-72479819D01*
X116852533Y-73479819D02*
X116281105Y-73479819D01*
X116566819Y-73479819D02*
X116566819Y-72479819D01*
X116566819Y-72479819D02*
X116471581Y-72622676D01*
X116471581Y-72622676D02*
X116376343Y-72717914D01*
X116376343Y-72717914D02*
X116281105Y-72765533D01*
X111506666Y-110472819D02*
X111506666Y-111187104D01*
X111506666Y-111187104D02*
X111459047Y-111329961D01*
X111459047Y-111329961D02*
X111363809Y-111425200D01*
X111363809Y-111425200D02*
X111220952Y-111472819D01*
X111220952Y-111472819D02*
X111125714Y-111472819D01*
X111982857Y-111472819D02*
X111982857Y-110472819D01*
X111982857Y-110472819D02*
X112363809Y-110472819D01*
X112363809Y-110472819D02*
X112459047Y-110520438D01*
X112459047Y-110520438D02*
X112506666Y-110568057D01*
X112506666Y-110568057D02*
X112554285Y-110663295D01*
X112554285Y-110663295D02*
X112554285Y-110806152D01*
X112554285Y-110806152D02*
X112506666Y-110901390D01*
X112506666Y-110901390D02*
X112459047Y-110949009D01*
X112459047Y-110949009D02*
X112363809Y-110996628D01*
X112363809Y-110996628D02*
X111982857Y-110996628D01*
X112935238Y-110568057D02*
X112982857Y-110520438D01*
X112982857Y-110520438D02*
X113078095Y-110472819D01*
X113078095Y-110472819D02*
X113316190Y-110472819D01*
X113316190Y-110472819D02*
X113411428Y-110520438D01*
X113411428Y-110520438D02*
X113459047Y-110568057D01*
X113459047Y-110568057D02*
X113506666Y-110663295D01*
X113506666Y-110663295D02*
X113506666Y-110758533D01*
X113506666Y-110758533D02*
X113459047Y-110901390D01*
X113459047Y-110901390D02*
X112887619Y-111472819D01*
X112887619Y-111472819D02*
X113506666Y-111472819D01*
X121609580Y-88606666D02*
X121657200Y-88654285D01*
X121657200Y-88654285D02*
X121704819Y-88797142D01*
X121704819Y-88797142D02*
X121704819Y-88892380D01*
X121704819Y-88892380D02*
X121657200Y-89035237D01*
X121657200Y-89035237D02*
X121561961Y-89130475D01*
X121561961Y-89130475D02*
X121466723Y-89178094D01*
X121466723Y-89178094D02*
X121276247Y-89225713D01*
X121276247Y-89225713D02*
X121133390Y-89225713D01*
X121133390Y-89225713D02*
X120942914Y-89178094D01*
X120942914Y-89178094D02*
X120847676Y-89130475D01*
X120847676Y-89130475D02*
X120752438Y-89035237D01*
X120752438Y-89035237D02*
X120704819Y-88892380D01*
X120704819Y-88892380D02*
X120704819Y-88797142D01*
X120704819Y-88797142D02*
X120752438Y-88654285D01*
X120752438Y-88654285D02*
X120800057Y-88606666D01*
X120704819Y-87701904D02*
X120704819Y-88178094D01*
X120704819Y-88178094D02*
X121181009Y-88225713D01*
X121181009Y-88225713D02*
X121133390Y-88178094D01*
X121133390Y-88178094D02*
X121085771Y-88082856D01*
X121085771Y-88082856D02*
X121085771Y-87844761D01*
X121085771Y-87844761D02*
X121133390Y-87749523D01*
X121133390Y-87749523D02*
X121181009Y-87701904D01*
X121181009Y-87701904D02*
X121276247Y-87654285D01*
X121276247Y-87654285D02*
X121514342Y-87654285D01*
X121514342Y-87654285D02*
X121609580Y-87701904D01*
X121609580Y-87701904D02*
X121657200Y-87749523D01*
X121657200Y-87749523D02*
X121704819Y-87844761D01*
X121704819Y-87844761D02*
X121704819Y-88082856D01*
X121704819Y-88082856D02*
X121657200Y-88178094D01*
X121657200Y-88178094D02*
X121609580Y-88225713D01*
X108376666Y-110452819D02*
X108376666Y-111167104D01*
X108376666Y-111167104D02*
X108329047Y-111309961D01*
X108329047Y-111309961D02*
X108233809Y-111405200D01*
X108233809Y-111405200D02*
X108090952Y-111452819D01*
X108090952Y-111452819D02*
X107995714Y-111452819D01*
X108852857Y-111452819D02*
X108852857Y-110452819D01*
X108852857Y-110452819D02*
X109233809Y-110452819D01*
X109233809Y-110452819D02*
X109329047Y-110500438D01*
X109329047Y-110500438D02*
X109376666Y-110548057D01*
X109376666Y-110548057D02*
X109424285Y-110643295D01*
X109424285Y-110643295D02*
X109424285Y-110786152D01*
X109424285Y-110786152D02*
X109376666Y-110881390D01*
X109376666Y-110881390D02*
X109329047Y-110929009D01*
X109329047Y-110929009D02*
X109233809Y-110976628D01*
X109233809Y-110976628D02*
X108852857Y-110976628D01*
X109757619Y-110452819D02*
X110376666Y-110452819D01*
X110376666Y-110452819D02*
X110043333Y-110833771D01*
X110043333Y-110833771D02*
X110186190Y-110833771D01*
X110186190Y-110833771D02*
X110281428Y-110881390D01*
X110281428Y-110881390D02*
X110329047Y-110929009D01*
X110329047Y-110929009D02*
X110376666Y-111024247D01*
X110376666Y-111024247D02*
X110376666Y-111262342D01*
X110376666Y-111262342D02*
X110329047Y-111357580D01*
X110329047Y-111357580D02*
X110281428Y-111405200D01*
X110281428Y-111405200D02*
X110186190Y-111452819D01*
X110186190Y-111452819D02*
X109900476Y-111452819D01*
X109900476Y-111452819D02*
X109805238Y-111405200D01*
X109805238Y-111405200D02*
X109757619Y-111357580D01*
X121629580Y-97052857D02*
X121677200Y-97100476D01*
X121677200Y-97100476D02*
X121724819Y-97243333D01*
X121724819Y-97243333D02*
X121724819Y-97338571D01*
X121724819Y-97338571D02*
X121677200Y-97481428D01*
X121677200Y-97481428D02*
X121581961Y-97576666D01*
X121581961Y-97576666D02*
X121486723Y-97624285D01*
X121486723Y-97624285D02*
X121296247Y-97671904D01*
X121296247Y-97671904D02*
X121153390Y-97671904D01*
X121153390Y-97671904D02*
X120962914Y-97624285D01*
X120962914Y-97624285D02*
X120867676Y-97576666D01*
X120867676Y-97576666D02*
X120772438Y-97481428D01*
X120772438Y-97481428D02*
X120724819Y-97338571D01*
X120724819Y-97338571D02*
X120724819Y-97243333D01*
X120724819Y-97243333D02*
X120772438Y-97100476D01*
X120772438Y-97100476D02*
X120820057Y-97052857D01*
X121724819Y-96100476D02*
X121724819Y-96671904D01*
X121724819Y-96386190D02*
X120724819Y-96386190D01*
X120724819Y-96386190D02*
X120867676Y-96481428D01*
X120867676Y-96481428D02*
X120962914Y-96576666D01*
X120962914Y-96576666D02*
X121010533Y-96671904D01*
X120724819Y-95481428D02*
X120724819Y-95386190D01*
X120724819Y-95386190D02*
X120772438Y-95290952D01*
X120772438Y-95290952D02*
X120820057Y-95243333D01*
X120820057Y-95243333D02*
X120915295Y-95195714D01*
X120915295Y-95195714D02*
X121105771Y-95148095D01*
X121105771Y-95148095D02*
X121343866Y-95148095D01*
X121343866Y-95148095D02*
X121534342Y-95195714D01*
X121534342Y-95195714D02*
X121629580Y-95243333D01*
X121629580Y-95243333D02*
X121677200Y-95290952D01*
X121677200Y-95290952D02*
X121724819Y-95386190D01*
X121724819Y-95386190D02*
X121724819Y-95481428D01*
X121724819Y-95481428D02*
X121677200Y-95576666D01*
X121677200Y-95576666D02*
X121629580Y-95624285D01*
X121629580Y-95624285D02*
X121534342Y-95671904D01*
X121534342Y-95671904D02*
X121343866Y-95719523D01*
X121343866Y-95719523D02*
X121105771Y-95719523D01*
X121105771Y-95719523D02*
X120915295Y-95671904D01*
X120915295Y-95671904D02*
X120820057Y-95624285D01*
X120820057Y-95624285D02*
X120772438Y-95576666D01*
X120772438Y-95576666D02*
X120724819Y-95481428D01*
X143904819Y-97646666D02*
X143428628Y-97979999D01*
X143904819Y-98218094D02*
X142904819Y-98218094D01*
X142904819Y-98218094D02*
X142904819Y-97837142D01*
X142904819Y-97837142D02*
X142952438Y-97741904D01*
X142952438Y-97741904D02*
X143000057Y-97694285D01*
X143000057Y-97694285D02*
X143095295Y-97646666D01*
X143095295Y-97646666D02*
X143238152Y-97646666D01*
X143238152Y-97646666D02*
X143333390Y-97694285D01*
X143333390Y-97694285D02*
X143381009Y-97741904D01*
X143381009Y-97741904D02*
X143428628Y-97837142D01*
X143428628Y-97837142D02*
X143428628Y-98218094D01*
X143333390Y-97075237D02*
X143285771Y-97170475D01*
X143285771Y-97170475D02*
X143238152Y-97218094D01*
X143238152Y-97218094D02*
X143142914Y-97265713D01*
X143142914Y-97265713D02*
X143095295Y-97265713D01*
X143095295Y-97265713D02*
X143000057Y-97218094D01*
X143000057Y-97218094D02*
X142952438Y-97170475D01*
X142952438Y-97170475D02*
X142904819Y-97075237D01*
X142904819Y-97075237D02*
X142904819Y-96884761D01*
X142904819Y-96884761D02*
X142952438Y-96789523D01*
X142952438Y-96789523D02*
X143000057Y-96741904D01*
X143000057Y-96741904D02*
X143095295Y-96694285D01*
X143095295Y-96694285D02*
X143142914Y-96694285D01*
X143142914Y-96694285D02*
X143238152Y-96741904D01*
X143238152Y-96741904D02*
X143285771Y-96789523D01*
X143285771Y-96789523D02*
X143333390Y-96884761D01*
X143333390Y-96884761D02*
X143333390Y-97075237D01*
X143333390Y-97075237D02*
X143381009Y-97170475D01*
X143381009Y-97170475D02*
X143428628Y-97218094D01*
X143428628Y-97218094D02*
X143523866Y-97265713D01*
X143523866Y-97265713D02*
X143714342Y-97265713D01*
X143714342Y-97265713D02*
X143809580Y-97218094D01*
X143809580Y-97218094D02*
X143857200Y-97170475D01*
X143857200Y-97170475D02*
X143904819Y-97075237D01*
X143904819Y-97075237D02*
X143904819Y-96884761D01*
X143904819Y-96884761D02*
X143857200Y-96789523D01*
X143857200Y-96789523D02*
X143809580Y-96741904D01*
X143809580Y-96741904D02*
X143714342Y-96694285D01*
X143714342Y-96694285D02*
X143523866Y-96694285D01*
X143523866Y-96694285D02*
X143428628Y-96741904D01*
X143428628Y-96741904D02*
X143381009Y-96789523D01*
X143381009Y-96789523D02*
X143333390Y-96884761D01*
X143883142Y-77924819D02*
X143549809Y-77448628D01*
X143311714Y-77924819D02*
X143311714Y-76924819D01*
X143311714Y-76924819D02*
X143692666Y-76924819D01*
X143692666Y-76924819D02*
X143787904Y-76972438D01*
X143787904Y-76972438D02*
X143835523Y-77020057D01*
X143835523Y-77020057D02*
X143883142Y-77115295D01*
X143883142Y-77115295D02*
X143883142Y-77258152D01*
X143883142Y-77258152D02*
X143835523Y-77353390D01*
X143835523Y-77353390D02*
X143787904Y-77401009D01*
X143787904Y-77401009D02*
X143692666Y-77448628D01*
X143692666Y-77448628D02*
X143311714Y-77448628D01*
X144835523Y-77924819D02*
X144264095Y-77924819D01*
X144549809Y-77924819D02*
X144549809Y-76924819D01*
X144549809Y-76924819D02*
X144454571Y-77067676D01*
X144454571Y-77067676D02*
X144359333Y-77162914D01*
X144359333Y-77162914D02*
X144264095Y-77210533D01*
X145454571Y-76924819D02*
X145549809Y-76924819D01*
X145549809Y-76924819D02*
X145645047Y-76972438D01*
X145645047Y-76972438D02*
X145692666Y-77020057D01*
X145692666Y-77020057D02*
X145740285Y-77115295D01*
X145740285Y-77115295D02*
X145787904Y-77305771D01*
X145787904Y-77305771D02*
X145787904Y-77543866D01*
X145787904Y-77543866D02*
X145740285Y-77734342D01*
X145740285Y-77734342D02*
X145692666Y-77829580D01*
X145692666Y-77829580D02*
X145645047Y-77877200D01*
X145645047Y-77877200D02*
X145549809Y-77924819D01*
X145549809Y-77924819D02*
X145454571Y-77924819D01*
X145454571Y-77924819D02*
X145359333Y-77877200D01*
X145359333Y-77877200D02*
X145311714Y-77829580D01*
X145311714Y-77829580D02*
X145264095Y-77734342D01*
X145264095Y-77734342D02*
X145216476Y-77543866D01*
X145216476Y-77543866D02*
X145216476Y-77305771D01*
X145216476Y-77305771D02*
X145264095Y-77115295D01*
X145264095Y-77115295D02*
X145311714Y-77020057D01*
X145311714Y-77020057D02*
X145359333Y-76972438D01*
X145359333Y-76972438D02*
X145454571Y-76924819D01*
X101266666Y-96921419D02*
X101266666Y-97635704D01*
X101266666Y-97635704D02*
X101219047Y-97778561D01*
X101219047Y-97778561D02*
X101123809Y-97873800D01*
X101123809Y-97873800D02*
X100980952Y-97921419D01*
X100980952Y-97921419D02*
X100885714Y-97921419D01*
X101647619Y-96921419D02*
X102266666Y-96921419D01*
X102266666Y-96921419D02*
X101933333Y-97302371D01*
X101933333Y-97302371D02*
X102076190Y-97302371D01*
X102076190Y-97302371D02*
X102171428Y-97349990D01*
X102171428Y-97349990D02*
X102219047Y-97397609D01*
X102219047Y-97397609D02*
X102266666Y-97492847D01*
X102266666Y-97492847D02*
X102266666Y-97730942D01*
X102266666Y-97730942D02*
X102219047Y-97826180D01*
X102219047Y-97826180D02*
X102171428Y-97873800D01*
X102171428Y-97873800D02*
X102076190Y-97921419D01*
X102076190Y-97921419D02*
X101790476Y-97921419D01*
X101790476Y-97921419D02*
X101695238Y-97873800D01*
X101695238Y-97873800D02*
X101647619Y-97826180D01*
X101366666Y-82209819D02*
X101366666Y-82924104D01*
X101366666Y-82924104D02*
X101319047Y-83066961D01*
X101319047Y-83066961D02*
X101223809Y-83162200D01*
X101223809Y-83162200D02*
X101080952Y-83209819D01*
X101080952Y-83209819D02*
X100985714Y-83209819D01*
X102366666Y-83209819D02*
X101795238Y-83209819D01*
X102080952Y-83209819D02*
X102080952Y-82209819D01*
X102080952Y-82209819D02*
X101985714Y-82352676D01*
X101985714Y-82352676D02*
X101890476Y-82447914D01*
X101890476Y-82447914D02*
X101795238Y-82495533D01*
D13*
%TO.C,R14*%
X120089600Y-84505436D02*
X120089600Y-84959564D01*
X118619600Y-84505436D02*
X118619600Y-84959564D01*
%TO.C,R13*%
X108280564Y-80668800D02*
X107826436Y-80668800D01*
X108280564Y-79198800D02*
X107826436Y-79198800D01*
%TO.C,C8*%
X118418748Y-98455000D02*
X118941252Y-98455000D01*
X118418748Y-99925000D02*
X118941252Y-99925000D01*
%TO.C,Q2*%
X107950000Y-87060600D02*
X107300000Y-87060600D01*
X107950000Y-87060600D02*
X108600000Y-87060600D01*
X107950000Y-90180600D02*
X107300000Y-90180600D01*
X107950000Y-90180600D02*
X108600000Y-90180600D01*
X106787500Y-87110600D02*
X106547500Y-86780600D01*
X107027500Y-86780600D01*
X106787500Y-87110600D01*
G36*
X106787500Y-87110600D02*
G01*
X106547500Y-86780600D01*
X107027500Y-86780600D01*
X106787500Y-87110600D01*
G37*
%TO.C,R11*%
X106122800Y-84814036D02*
X106122800Y-85268164D01*
X107592800Y-84814036D02*
X107592800Y-85268164D01*
%TO.C,C2*%
X126215000Y-103838748D02*
X126215000Y-104361252D01*
X127685000Y-103838748D02*
X127685000Y-104361252D01*
%TO.C,C1*%
X136670148Y-101449200D02*
X137192652Y-101449200D01*
X136670148Y-102919200D02*
X137192652Y-102919200D01*
%TO.C,R6*%
X139535000Y-92205436D02*
X139535000Y-92659564D01*
X141005000Y-92205436D02*
X141005000Y-92659564D01*
%TO.C,J9*%
X121100000Y-72330000D02*
X121100000Y-77530000D01*
X136400000Y-72330000D02*
X121100000Y-72330000D01*
X136400000Y-72330000D02*
X136400000Y-74930000D01*
X136400000Y-74930000D02*
X139000000Y-74930000D01*
X137670000Y-72330000D02*
X139000000Y-72330000D01*
X139000000Y-72330000D02*
X139000000Y-73660000D01*
X139000000Y-74930000D02*
X139000000Y-77530000D01*
X139000000Y-77530000D02*
X121100000Y-77530000D01*
%TO.C,U1*%
X124470000Y-89565000D02*
X124470000Y-90515000D01*
X124470000Y-99785000D02*
X124470000Y-98835000D01*
X125420000Y-89565000D02*
X124470000Y-89565000D01*
X125420000Y-99785000D02*
X124470000Y-99785000D01*
X133740000Y-89565000D02*
X134690000Y-89565000D01*
X133740000Y-99785000D02*
X134690000Y-99785000D01*
X134690000Y-89565000D02*
X134690000Y-90515000D01*
X134690000Y-99785000D02*
X134690000Y-98835000D01*
X123855000Y-90515000D02*
X123515000Y-90045000D01*
X124195000Y-90045000D01*
X123855000Y-90515000D01*
G36*
X123855000Y-90515000D02*
G01*
X123515000Y-90045000D01*
X124195000Y-90045000D01*
X123855000Y-90515000D01*
G37*
%TO.C,J4*%
X137862000Y-81121000D02*
X137862000Y-84651000D01*
X137927000Y-81121000D02*
X137862000Y-81121000D01*
X137927000Y-84651000D02*
X137862000Y-84651000D01*
X146807000Y-79796000D02*
X146807000Y-81121000D01*
X146872000Y-81121000D02*
X146807000Y-81121000D01*
X146872000Y-81121000D02*
X146872000Y-84651000D01*
X146872000Y-84651000D02*
X146807000Y-84651000D01*
%TO.C,R2*%
X121285000Y-83477064D02*
X121285000Y-83022936D01*
X122755000Y-83477064D02*
X122755000Y-83022936D01*
%TO.C,R1*%
X115825600Y-84530836D02*
X115825600Y-84984964D01*
X117295600Y-84530836D02*
X117295600Y-84984964D01*
%TO.C,Y1*%
X111350000Y-89550000D02*
X111350000Y-103220000D01*
X111350000Y-103220000D02*
X116450000Y-103220000D01*
X116450000Y-103220000D02*
X116450000Y-89550000D01*
%TO.C,JP1*%
X114440000Y-108250000D02*
X114440000Y-106850000D01*
X115140000Y-106150000D02*
X115740000Y-106150000D01*
X115740000Y-108950000D02*
X115140000Y-108950000D01*
X116440000Y-106850000D02*
X116440000Y-108250000D01*
X114440000Y-106850000D02*
G75*
G02*
X115140000Y-106150000I700000J0D01*
G01*
X115140000Y-108950000D02*
G75*
G02*
X114440000Y-108250000I-1J699999D01*
G01*
X115740000Y-106150000D02*
G75*
G02*
X116440000Y-106850000I0J-700000D01*
G01*
X116440000Y-108250000D02*
G75*
G02*
X115740000Y-108950000I-699999J-1D01*
G01*
%TO.C,C4*%
X140768748Y-88655000D02*
X141291252Y-88655000D01*
X140768748Y-90125000D02*
X141291252Y-90125000D01*
%TO.C,R5*%
X130065000Y-83045436D02*
X130065000Y-83499564D01*
X131535000Y-83045436D02*
X131535000Y-83499564D01*
%TO.C,C7*%
X118605000Y-103528748D02*
X118605000Y-104051252D01*
X120075000Y-103528748D02*
X120075000Y-104051252D01*
%TO.C,D1*%
X107104700Y-83205200D02*
X109789700Y-83205200D01*
X109789700Y-81285200D02*
X107104700Y-81285200D01*
X109789700Y-83205200D02*
X109789700Y-81285200D01*
%TO.C,R12*%
X108154800Y-85293564D02*
X108154800Y-84839436D01*
X109624800Y-85293564D02*
X109624800Y-84839436D01*
%TO.C,R4*%
X132450000Y-83047936D02*
X132450000Y-83502064D01*
X133920000Y-83047936D02*
X133920000Y-83502064D01*
%TO.C,C9*%
X118458748Y-93175000D02*
X118981252Y-93175000D01*
X118458748Y-94645000D02*
X118981252Y-94645000D01*
%TO.C,R9*%
X138575000Y-97889564D02*
X138575000Y-97435436D01*
X140045000Y-97889564D02*
X140045000Y-97435436D01*
%TO.C,C3*%
X127085000Y-83571252D02*
X127085000Y-83048748D01*
X128555000Y-83571252D02*
X128555000Y-83048748D01*
%TO.C,J10*%
X149620000Y-85040000D02*
X150950000Y-85040000D01*
X149620000Y-86370000D02*
X149620000Y-85040000D01*
X149620000Y-87640000D02*
X149620000Y-102940000D01*
X149620000Y-87640000D02*
X152220000Y-87640000D01*
X149620000Y-102940000D02*
X154820000Y-102940000D01*
X152220000Y-85040000D02*
X154820000Y-85040000D01*
X152220000Y-87640000D02*
X152220000Y-85040000D01*
X154820000Y-85040000D02*
X154820000Y-102940000D01*
%TO.C,Y2*%
X107812500Y-96660000D02*
X110262500Y-96660000D01*
X107822500Y-102690000D02*
X110272500Y-102690000D01*
X107952500Y-102690000D02*
X107952500Y-96670000D01*
X108352500Y-95510000D02*
X108352500Y-94650000D01*
X108657500Y-96650000D02*
X108352500Y-95510000D01*
X109402500Y-96660000D02*
X109602500Y-95510000D01*
X109602500Y-95510000D02*
X109602500Y-94650000D01*
X110132500Y-102690000D02*
X110132500Y-96670000D01*
%TO.C,Q1*%
X113157000Y-83185700D02*
X112507000Y-83185700D01*
X113157000Y-83185700D02*
X113807000Y-83185700D01*
X113157000Y-86305700D02*
X112507000Y-86305700D01*
X113157000Y-86305700D02*
X113807000Y-86305700D01*
X111994500Y-83235700D02*
X111754500Y-82905700D01*
X112234500Y-82905700D01*
X111994500Y-83235700D01*
G36*
X111994500Y-83235700D02*
G01*
X111754500Y-82905700D01*
X112234500Y-82905700D01*
X111994500Y-83235700D01*
G37*
%TO.C,R3*%
X123385000Y-83035436D02*
X123385000Y-83489564D01*
X124855000Y-83035436D02*
X124855000Y-83489564D01*
%TO.C,J2*%
X100270000Y-90955000D02*
X101600000Y-90955000D01*
X100270000Y-92285000D02*
X100270000Y-90955000D01*
X100270000Y-93555000D02*
X100270000Y-96155000D01*
X100270000Y-93555000D02*
X102930000Y-93555000D01*
X100270000Y-96155000D02*
X102930000Y-96155000D01*
X102930000Y-93555000D02*
X102930000Y-96155000D01*
%TO.C,J8*%
X120260000Y-110520000D02*
X138160000Y-110520000D01*
X120260000Y-113120000D02*
X120260000Y-110520000D01*
X120260000Y-115720000D02*
X120260000Y-114390000D01*
X121590000Y-115720000D02*
X120260000Y-115720000D01*
X122860000Y-113120000D02*
X120260000Y-113120000D01*
X122860000Y-115720000D02*
X122860000Y-113120000D01*
X122860000Y-115720000D02*
X138160000Y-115720000D01*
X138160000Y-115720000D02*
X138160000Y-110520000D01*
%TO.C,C11*%
X118971252Y-90145000D02*
X118448748Y-90145000D01*
X118971252Y-91615000D02*
X118448748Y-91615000D01*
%TO.C,C6*%
X120745000Y-103528748D02*
X120745000Y-104051252D01*
X122215000Y-103528748D02*
X122215000Y-104051252D01*
%TO.C,R7*%
X142075000Y-92205436D02*
X142075000Y-92659564D01*
X143545000Y-92205436D02*
X143545000Y-92659564D01*
%TO.C,SW1*%
X112789800Y-74550000D02*
X112789800Y-74600000D01*
X112789800Y-74550000D02*
X117689800Y-74550000D01*
X112789800Y-76250000D02*
X112789800Y-77750000D01*
X112789800Y-79450000D02*
X112789800Y-79400000D01*
X112789800Y-79450000D02*
X117689800Y-79450000D01*
X117689800Y-74550000D02*
X117689800Y-74600000D01*
X117689800Y-76250000D02*
X117689800Y-77750000D01*
X117689800Y-79450000D02*
X117689800Y-79400000D01*
%TO.C,JP2*%
X111310000Y-108300000D02*
X111310000Y-106900000D01*
X112010000Y-106200000D02*
X112610000Y-106200000D01*
X112610000Y-109000000D02*
X112010000Y-109000000D01*
X113310000Y-106900000D02*
X113310000Y-108300000D01*
X111310000Y-106900000D02*
G75*
G02*
X112010000Y-106200000I700000J0D01*
G01*
X112010000Y-109000000D02*
G75*
G02*
X111310000Y-108300000I-1J699999D01*
G01*
X112610000Y-106200000D02*
G75*
G02*
X113310000Y-106900000I0J-700000D01*
G01*
X113310000Y-108300000D02*
G75*
G02*
X112610000Y-109000000I-699999J-1D01*
G01*
%TO.C,C5*%
X118438748Y-87955000D02*
X118961252Y-87955000D01*
X118438748Y-89425000D02*
X118961252Y-89425000D01*
%TO.C,JP3*%
X108270000Y-108320000D02*
X108270000Y-106920000D01*
X108970000Y-106220000D02*
X109570000Y-106220000D01*
X109570000Y-109020000D02*
X108970000Y-109020000D01*
X110270000Y-106920000D02*
X110270000Y-108320000D01*
X108270000Y-106920000D02*
G75*
G02*
X108970000Y-106220000I700000J0D01*
G01*
X108970000Y-109020000D02*
G75*
G02*
X108270000Y-108320000I-1J699999D01*
G01*
X109570000Y-106220000D02*
G75*
G02*
X110270000Y-106920000I0J-700000D01*
G01*
X110270000Y-108320000D02*
G75*
G02*
X109570000Y-109020000I-699999J-1D01*
G01*
%TO.C,C10*%
X118428748Y-95475000D02*
X118951252Y-95475000D01*
X118428748Y-96945000D02*
X118951252Y-96945000D01*
%TO.C,R8*%
X141005000Y-97889564D02*
X141005000Y-97435436D01*
X142475000Y-97889564D02*
X142475000Y-97435436D01*
%TO.C,R10*%
X141705064Y-76735000D02*
X141250936Y-76735000D01*
X141705064Y-78205000D02*
X141250936Y-78205000D01*
%TO.C,J3*%
X100270000Y-98466600D02*
X101600000Y-98466600D01*
X100270000Y-99796600D02*
X100270000Y-98466600D01*
X100270000Y-101066600D02*
X100270000Y-103666600D01*
X100270000Y-101066600D02*
X102930000Y-101066600D01*
X100270000Y-103666600D02*
X102930000Y-103666600D01*
X102930000Y-101066600D02*
X102930000Y-103666600D01*
%TO.C,J1*%
X100370000Y-83755000D02*
X101700000Y-83755000D01*
X100370000Y-85085000D02*
X100370000Y-83755000D01*
X100370000Y-86355000D02*
X100370000Y-88955000D01*
X100370000Y-86355000D02*
X103030000Y-86355000D01*
X100370000Y-88955000D02*
X103030000Y-88955000D01*
X103030000Y-86355000D02*
X103030000Y-88955000D01*
%TD*%
M02*
