%TF.GenerationSoftware,KiCad,Pcbnew,8.0.5*%
%TF.CreationDate,2024-12-07T09:48:31-05:00*%
%TF.ProjectId,stm32_lqfp64_test_board,73746d33-325f-46c7-9166-7036345f7465,1.1*%
%TF.SameCoordinates,Original*%
%TF.FileFunction,Copper,L1,Top*%
%TF.FilePolarity,Positive*%
%FSLAX46Y46*%
G04 Gerber Fmt 4.6, Leading zero omitted, Abs format (unit mm)*
G04 Created by KiCad (PCBNEW 8.0.5) date 2024-12-07 09:48:31*
%MOMM*%
%LPD*%
G01*
G04 APERTURE LIST*
G04 Aperture macros list*
%AMRoundRect*
0 Rectangle with rounded corners*
0 $1 Rounding radius*
0 $2 $3 $4 $5 $6 $7 $8 $9 X,Y pos of 4 corners*
0 Add a 4 corners polygon primitive as box body*
4,1,4,$2,$3,$4,$5,$6,$7,$8,$9,$2,$3,0*
0 Add four circle primitives for the rounded corners*
1,1,$1+$1,$2,$3*
1,1,$1+$1,$4,$5*
1,1,$1+$1,$6,$7*
1,1,$1+$1,$8,$9*
0 Add four rect primitives between the rounded corners*
20,1,$1+$1,$2,$3,$4,$5,0*
20,1,$1+$1,$4,$5,$6,$7,0*
20,1,$1+$1,$6,$7,$8,$9,0*
20,1,$1+$1,$8,$9,$2,$3,0*%
%AMFreePoly0*
4,1,19,0.500000,-0.750000,0.000000,-0.750000,0.000000,-0.744911,-0.071157,-0.744911,-0.207708,-0.704816,-0.327430,-0.627875,-0.420627,-0.520320,-0.479746,-0.390866,-0.500000,-0.250000,-0.500000,0.250000,-0.479746,0.390866,-0.420627,0.520320,-0.327430,0.627875,-0.207708,0.704816,-0.071157,0.744911,0.000000,0.744911,0.000000,0.750000,0.500000,0.750000,0.500000,-0.750000,0.500000,-0.750000,
$1*%
%AMFreePoly1*
4,1,19,0.000000,0.744911,0.071157,0.744911,0.207708,0.704816,0.327430,0.627875,0.420627,0.520320,0.479746,0.390866,0.500000,0.250000,0.500000,-0.250000,0.479746,-0.390866,0.420627,-0.520320,0.327430,-0.627875,0.207708,-0.704816,0.071157,-0.744911,0.000000,-0.744911,0.000000,-0.750000,-0.500000,-0.750000,-0.500000,0.750000,0.000000,0.750000,0.000000,0.744911,0.000000,0.744911,
$1*%
G04 Aperture macros list end*
%TA.AperFunction,SMDPad,CuDef*%
%ADD10RoundRect,0.250000X-0.450000X0.262500X-0.450000X-0.262500X0.450000X-0.262500X0.450000X0.262500X0*%
%TD*%
%TA.AperFunction,SMDPad,CuDef*%
%ADD11RoundRect,0.250000X0.262500X0.450000X-0.262500X0.450000X-0.262500X-0.450000X0.262500X-0.450000X0*%
%TD*%
%TA.AperFunction,SMDPad,CuDef*%
%ADD12RoundRect,0.250000X-0.250000X-0.475000X0.250000X-0.475000X0.250000X0.475000X-0.250000X0.475000X0*%
%TD*%
%TA.AperFunction,ComponentPad*%
%ADD13C,3.600000*%
%TD*%
%TA.AperFunction,ConnectorPad*%
%ADD14C,6.400000*%
%TD*%
%TA.AperFunction,SMDPad,CuDef*%
%ADD15RoundRect,0.150000X-0.587500X-0.150000X0.587500X-0.150000X0.587500X0.150000X-0.587500X0.150000X0*%
%TD*%
%TA.AperFunction,SMDPad,CuDef*%
%ADD16RoundRect,0.250000X-0.475000X0.250000X-0.475000X-0.250000X0.475000X-0.250000X0.475000X0.250000X0*%
%TD*%
%TA.AperFunction,ComponentPad*%
%ADD17R,1.700000X1.700000*%
%TD*%
%TA.AperFunction,ComponentPad*%
%ADD18O,1.700000X1.700000*%
%TD*%
%TA.AperFunction,SMDPad,CuDef*%
%ADD19RoundRect,0.075000X-0.700000X-0.075000X0.700000X-0.075000X0.700000X0.075000X-0.700000X0.075000X0*%
%TD*%
%TA.AperFunction,SMDPad,CuDef*%
%ADD20RoundRect,0.075000X-0.075000X-0.700000X0.075000X-0.700000X0.075000X0.700000X-0.075000X0.700000X0*%
%TD*%
%TA.AperFunction,SMDPad,CuDef*%
%ADD21R,0.740000X2.400000*%
%TD*%
%TA.AperFunction,SMDPad,CuDef*%
%ADD22RoundRect,0.250000X0.450000X-0.262500X0.450000X0.262500X-0.450000X0.262500X-0.450000X-0.262500X0*%
%TD*%
%TA.AperFunction,SMDPad,CuDef*%
%ADD23R,2.000000X5.500000*%
%TD*%
%TA.AperFunction,SMDPad,CuDef*%
%ADD24FreePoly0,90.000000*%
%TD*%
%TA.AperFunction,SMDPad,CuDef*%
%ADD25FreePoly1,90.000000*%
%TD*%
%TA.AperFunction,SMDPad,CuDef*%
%ADD26RoundRect,0.243750X0.243750X0.456250X-0.243750X0.456250X-0.243750X-0.456250X0.243750X-0.456250X0*%
%TD*%
%TA.AperFunction,SMDPad,CuDef*%
%ADD27RoundRect,0.250000X0.475000X-0.250000X0.475000X0.250000X-0.475000X0.250000X-0.475000X-0.250000X0*%
%TD*%
%TA.AperFunction,ComponentPad*%
%ADD28C,1.000000*%
%TD*%
%TA.AperFunction,SMDPad,CuDef*%
%ADD29RoundRect,0.250000X0.250000X0.475000X-0.250000X0.475000X-0.250000X-0.475000X0.250000X-0.475000X0*%
%TD*%
%TA.AperFunction,SMDPad,CuDef*%
%ADD30RoundRect,0.250000X-0.525000X-0.250000X0.525000X-0.250000X0.525000X0.250000X-0.525000X0.250000X0*%
%TD*%
%TA.AperFunction,ViaPad*%
%ADD31C,0.508000*%
%TD*%
%TA.AperFunction,ViaPad*%
%ADD32C,0.762000*%
%TD*%
%TA.AperFunction,ViaPad*%
%ADD33C,0.600000*%
%TD*%
%TA.AperFunction,Conductor*%
%ADD34C,0.254000*%
%TD*%
%TA.AperFunction,Conductor*%
%ADD35C,0.381000*%
%TD*%
%TA.AperFunction,Conductor*%
%ADD36C,0.304800*%
%TD*%
%TA.AperFunction,Conductor*%
%ADD37C,0.203200*%
%TD*%
G04 APERTURE END LIST*
D10*
%TO.P,R14,1*%
%TO.N,Net-(Q1-D)*%
X119354600Y-83820000D03*
%TO.P,R14,2*%
%TO.N,/nrst*%
X119354600Y-85645000D03*
%TD*%
D11*
%TO.P,R13,1*%
%TO.N,/reset*%
X108966000Y-79933800D03*
%TO.P,R13,2*%
%TO.N,VSS*%
X107141000Y-79933800D03*
%TD*%
D12*
%TO.P,C8,1*%
%TO.N,/OSC_OUT*%
X117730000Y-99190000D03*
%TO.P,C8,2*%
%TO.N,VSS*%
X119630000Y-99190000D03*
%TD*%
D13*
%TO.P,H3,1*%
%TO.N,N/C*%
X152146000Y-112500000D03*
D14*
X152146000Y-112500000D03*
%TD*%
D15*
%TO.P,Q2,1,B*%
%TO.N,Net-(Q2-B)*%
X107012500Y-87670600D03*
%TO.P,Q2,2,E*%
%TO.N,VSS*%
X107012500Y-89570600D03*
%TO.P,Q2,3,C*%
%TO.N,Net-(Q2-C)*%
X108887500Y-88620600D03*
%TD*%
D10*
%TO.P,R11,1*%
%TO.N,/PB8*%
X106857800Y-84128600D03*
%TO.P,R11,2*%
%TO.N,Net-(Q2-B)*%
X106857800Y-85953600D03*
%TD*%
D16*
%TO.P,C2,1*%
%TO.N,VDD*%
X126950000Y-103150000D03*
%TO.P,C2,2*%
%TO.N,VSS*%
X126950000Y-105050000D03*
%TD*%
D12*
%TO.P,C1,1*%
%TO.N,VDD*%
X135981400Y-102184200D03*
%TO.P,C1,2*%
%TO.N,VSS*%
X137881400Y-102184200D03*
%TD*%
D10*
%TO.P,R6,1*%
%TO.N,VDD*%
X140270000Y-91520000D03*
%TO.P,R6,2*%
%TO.N,/PA9*%
X140270000Y-93345000D03*
%TD*%
D17*
%TO.P,J9,1,Pin_1*%
%TO.N,/PB0*%
X137670000Y-73660000D03*
D18*
%TO.P,J9,2,Pin_2*%
%TO.N,/PB14*%
X137670000Y-76200000D03*
%TO.P,J9,3,Pin_3*%
%TO.N,/PB1*%
X135130000Y-73660000D03*
%TO.P,J9,4,Pin_4*%
%TO.N,/PB13*%
X135130000Y-76200000D03*
%TO.P,J9,5,Pin_5*%
%TO.N,/PB2*%
X132590000Y-73660000D03*
%TO.P,J9,6,Pin_6*%
%TO.N,/PB12*%
X132590000Y-76200000D03*
%TO.P,J9,7,Pin_7*%
%TO.N,/PB4*%
X130050000Y-73660000D03*
%TO.P,J9,8,Pin_8*%
%TO.N,/PB11*%
X130050000Y-76200000D03*
%TO.P,J9,9,Pin_9*%
%TO.N,/PB5*%
X127510000Y-73660000D03*
%TO.P,J9,10,Pin_10*%
%TO.N,/PB10*%
X127510000Y-76200000D03*
%TO.P,J9,11,Pin_11*%
%TO.N,/PB6*%
X124970000Y-73660000D03*
%TO.P,J9,12,Pin_12*%
%TO.N,/PB9*%
X124970000Y-76200000D03*
%TO.P,J9,13,Pin_13*%
%TO.N,/PB7*%
X122430000Y-73660000D03*
%TO.P,J9,14,Pin_14*%
%TO.N,/PB8*%
X122430000Y-76200000D03*
%TD*%
D19*
%TO.P,U1,1,VBAT*%
%TO.N,/VBAT*%
X123905000Y-90925000D03*
%TO.P,U1,2,PC13*%
%TO.N,/PC13*%
X123905000Y-91425000D03*
%TO.P,U1,3,PC14*%
%TO.N,/OSC32_IN*%
X123905000Y-91925000D03*
%TO.P,U1,4,PC15*%
%TO.N,/OSC32_OUT*%
X123905000Y-92425000D03*
%TO.P,U1,5,PF0*%
%TO.N,/OSC_IN*%
X123905000Y-92925000D03*
%TO.P,U1,6,PF1*%
%TO.N,/OSC_OUT*%
X123905000Y-93425000D03*
%TO.P,U1,7,NRST*%
%TO.N,/nrst*%
X123905000Y-93925000D03*
%TO.P,U1,8,PC0*%
%TO.N,/PC0*%
X123905000Y-94425000D03*
%TO.P,U1,9,PC1*%
%TO.N,/PC1*%
X123905000Y-94925000D03*
%TO.P,U1,10,PC2*%
%TO.N,/PC2*%
X123905000Y-95425000D03*
%TO.P,U1,11,PC3*%
%TO.N,/PC3*%
X123905000Y-95925000D03*
%TO.P,U1,12,VSSA*%
%TO.N,VSSA*%
X123905000Y-96425000D03*
%TO.P,U1,13,VDDA*%
%TO.N,VDDA*%
X123905000Y-96925000D03*
%TO.P,U1,14,PA0*%
%TO.N,/PA0*%
X123905000Y-97425000D03*
%TO.P,U1,15,PA1*%
%TO.N,/PA1*%
X123905000Y-97925000D03*
%TO.P,U1,16,PA2*%
%TO.N,/PA2*%
X123905000Y-98425000D03*
D20*
%TO.P,U1,17,PA3*%
%TO.N,/PA3*%
X125830000Y-100350000D03*
%TO.P,U1,18,VSS*%
%TO.N,VSS*%
X126330000Y-100350000D03*
%TO.P,U1,19,VDD*%
%TO.N,VDD*%
X126830000Y-100350000D03*
%TO.P,U1,20,PA4*%
%TO.N,/PA4*%
X127330000Y-100350000D03*
%TO.P,U1,21,PA5*%
%TO.N,/PA5*%
X127830000Y-100350000D03*
%TO.P,U1,22,PA6*%
%TO.N,/PA6*%
X128330000Y-100350000D03*
%TO.P,U1,23,PA7*%
%TO.N,/PA7*%
X128830000Y-100350000D03*
%TO.P,U1,24,PC4*%
%TO.N,/PC4*%
X129330000Y-100350000D03*
%TO.P,U1,25,PC5*%
%TO.N,/PC5*%
X129830000Y-100350000D03*
%TO.P,U1,26,PB0*%
%TO.N,/PB0*%
X130330000Y-100350000D03*
%TO.P,U1,27,PB1*%
%TO.N,/PB1*%
X130830000Y-100350000D03*
%TO.P,U1,28,PB2*%
%TO.N,/PB2*%
X131330000Y-100350000D03*
%TO.P,U1,29,PB10*%
%TO.N,/PB10*%
X131830000Y-100350000D03*
%TO.P,U1,30,PB11*%
%TO.N,/PB11*%
X132330000Y-100350000D03*
%TO.P,U1,31,VSS*%
%TO.N,VSS*%
X132830000Y-100350000D03*
%TO.P,U1,32,VDD*%
%TO.N,VDD*%
X133330000Y-100350000D03*
D19*
%TO.P,U1,33,PB12*%
%TO.N,/PB12*%
X135255000Y-98425000D03*
%TO.P,U1,34,PB13*%
%TO.N,/PB13*%
X135255000Y-97925000D03*
%TO.P,U1,35,PB14*%
%TO.N,/PB14*%
X135255000Y-97425000D03*
%TO.P,U1,36,PB15*%
%TO.N,/PB15*%
X135255000Y-96925000D03*
%TO.P,U1,37,PC6*%
%TO.N,/PC6*%
X135255000Y-96425000D03*
%TO.P,U1,38,PC7*%
%TO.N,/PC7*%
X135255000Y-95925000D03*
%TO.P,U1,39,PC8*%
%TO.N,/PC8*%
X135255000Y-95425000D03*
%TO.P,U1,40,PC9*%
%TO.N,/PC9*%
X135255000Y-94925000D03*
%TO.P,U1,41,PA8*%
%TO.N,/PA8*%
X135255000Y-94425000D03*
%TO.P,U1,42,PA9*%
%TO.N,/PA9*%
X135255000Y-93925000D03*
%TO.P,U1,43,PA10*%
%TO.N,/PA10*%
X135255000Y-93425000D03*
%TO.P,U1,44,PA11*%
%TO.N,/PA11*%
X135255000Y-92925000D03*
%TO.P,U1,45,PA12*%
%TO.N,/PA12*%
X135255000Y-92425000D03*
%TO.P,U1,46,PA13*%
%TO.N,/SYS_JTMS-SWDIO*%
X135255000Y-91925000D03*
%TO.P,U1,47,VSS*%
%TO.N,VSS*%
X135255000Y-91425000D03*
%TO.P,U1,48,VDD*%
%TO.N,VDD*%
X135255000Y-90925000D03*
D20*
%TO.P,U1,49,PA14*%
%TO.N,/SYS_JTCK-SWCLK*%
X133330000Y-89000000D03*
%TO.P,U1,50,PA15*%
%TO.N,/SYS_JTDI*%
X132830000Y-89000000D03*
%TO.P,U1,51,PC10*%
%TO.N,/PC10*%
X132330000Y-89000000D03*
%TO.P,U1,52,PC11*%
%TO.N,/PC11*%
X131830000Y-89000000D03*
%TO.P,U1,53,PC12*%
%TO.N,/PC12*%
X131330000Y-89000000D03*
%TO.P,U1,54,PD2*%
%TO.N,/PD2*%
X130830000Y-89000000D03*
%TO.P,U1,55,PB3*%
%TO.N,/SYS_JTDO-TRACESWO*%
X130330000Y-89000000D03*
%TO.P,U1,56,PB4*%
%TO.N,/PB4*%
X129830000Y-89000000D03*
%TO.P,U1,57,PB5*%
%TO.N,/PB5*%
X129330000Y-89000000D03*
%TO.P,U1,58,PB6*%
%TO.N,/PB6*%
X128830000Y-89000000D03*
%TO.P,U1,59,PB7*%
%TO.N,/PB7*%
X128330000Y-89000000D03*
%TO.P,U1,60,BOOT0*%
%TO.N,Net-(U1-BOOT0)*%
X127830000Y-89000000D03*
%TO.P,U1,61,PB8*%
%TO.N,/PB8*%
X127330000Y-89000000D03*
%TO.P,U1,62,PB9*%
%TO.N,/PB9*%
X126830000Y-89000000D03*
%TO.P,U1,63,VSS*%
%TO.N,VSS*%
X126330000Y-89000000D03*
%TO.P,U1,64,VDD*%
%TO.N,VDD*%
X125830000Y-89000000D03*
%TD*%
D21*
%TO.P,J4,1,Pin_1*%
%TO.N,unconnected-(J4-Pin_1-Pad1)*%
X146177000Y-80936000D03*
%TO.P,J4,2,Pin_2*%
%TO.N,unconnected-(J4-Pin_2-Pad2)*%
X146177000Y-84836000D03*
%TO.P,J4,3,Pin_3*%
%TO.N,VDD*%
X144907000Y-80936000D03*
%TO.P,J4,4,Pin_4*%
%TO.N,/SYS_JTMS-SWDIO*%
X144907000Y-84836000D03*
%TO.P,J4,5,Pin_5*%
%TO.N,VSS*%
X143637000Y-80936000D03*
%TO.P,J4,6,Pin_6*%
%TO.N,/SYS_JTCK-SWCLK*%
X143637000Y-84836000D03*
%TO.P,J4,7,Pin_7*%
%TO.N,VSS*%
X142367000Y-80936000D03*
%TO.P,J4,8,Pin_8*%
%TO.N,/SYS_JTDO-TRACESWO*%
X142367000Y-84836000D03*
%TO.P,J4,9,Pin_9*%
%TO.N,unconnected-(J4-Pin_9-Pad9)*%
X141097000Y-80936000D03*
%TO.P,J4,10,Pin_10*%
%TO.N,/SYS_JTDI*%
X141097000Y-84836000D03*
%TO.P,J4,11,Pin_11*%
%TO.N,Net-(J4-Pin_11)*%
X139827000Y-80936000D03*
%TO.P,J4,12,Pin_12*%
%TO.N,/nrst*%
X139827000Y-84836000D03*
%TO.P,J4,13,Pin_13*%
%TO.N,unconnected-(J4-Pin_13-Pad13)*%
X138557000Y-80936000D03*
%TO.P,J4,14,Pin_14*%
%TO.N,unconnected-(J4-Pin_14-Pad14)*%
X138557000Y-84836000D03*
%TD*%
D22*
%TO.P,R2,1*%
%TO.N,Net-(U1-BOOT0)*%
X122020000Y-84162500D03*
%TO.P,R2,2*%
%TO.N,VSS*%
X122020000Y-82337500D03*
%TD*%
D10*
%TO.P,R1,1*%
%TO.N,VDD*%
X116560600Y-83845400D03*
%TO.P,R1,2*%
%TO.N,Net-(Q1-D)*%
X116560600Y-85670400D03*
%TD*%
D23*
%TO.P,Y1,1,1*%
%TO.N,/OSC_OUT*%
X113920000Y-100200000D03*
%TO.P,Y1,2,2*%
%TO.N,/OSC_IN*%
X113925000Y-90645000D03*
%TD*%
D24*
%TO.P,JP1,1,A*%
%TO.N,VSSA*%
X115440000Y-108200000D03*
D25*
%TO.P,JP1,2,B*%
%TO.N,VSS*%
X115440000Y-106900000D03*
%TD*%
D13*
%TO.P,H4,1*%
%TO.N,N/C*%
X152146000Y-76200000D03*
D14*
X152146000Y-76200000D03*
%TD*%
D12*
%TO.P,C4,1*%
%TO.N,VDD*%
X140080000Y-89390000D03*
%TO.P,C4,2*%
%TO.N,VSS*%
X141980000Y-89390000D03*
%TD*%
D10*
%TO.P,R5,1*%
%TO.N,VDD*%
X130800000Y-82360000D03*
%TO.P,R5,2*%
%TO.N,/PB7*%
X130800000Y-84185000D03*
%TD*%
D16*
%TO.P,C7,1*%
%TO.N,VDDA*%
X119340000Y-102840000D03*
%TO.P,C7,2*%
%TO.N,VSSA*%
X119340000Y-104740000D03*
%TD*%
D26*
%TO.P,D1,1,K*%
%TO.N,Net-(D1-K)*%
X109042200Y-82245200D03*
%TO.P,D1,2,A*%
%TO.N,VDD*%
X107167200Y-82245200D03*
%TD*%
D22*
%TO.P,R12,1*%
%TO.N,Net-(Q2-C)*%
X108889800Y-85979000D03*
%TO.P,R12,2*%
%TO.N,Net-(D1-K)*%
X108889800Y-84154000D03*
%TD*%
D10*
%TO.P,R4,1*%
%TO.N,VDD*%
X133185000Y-82362500D03*
%TO.P,R4,2*%
%TO.N,/PB6*%
X133185000Y-84187500D03*
%TD*%
D12*
%TO.P,C9,1*%
%TO.N,/OSC32_IN*%
X117770000Y-93910000D03*
%TO.P,C9,2*%
%TO.N,VSS*%
X119670000Y-93910000D03*
%TD*%
D22*
%TO.P,R9,1*%
%TO.N,VDD*%
X139310000Y-98575000D03*
%TO.P,R9,2*%
%TO.N,/PC9*%
X139310000Y-96750000D03*
%TD*%
D27*
%TO.P,C3,1*%
%TO.N,VDD*%
X127820000Y-84260000D03*
%TO.P,C3,2*%
%TO.N,VSS*%
X127820000Y-82360000D03*
%TD*%
D17*
%TO.P,J10,1,Pin_1*%
%TO.N,/PA0*%
X150950000Y-86370000D03*
D18*
%TO.P,J10,2,Pin_2*%
%TO.N,/PB15*%
X153490000Y-86370000D03*
%TO.P,J10,3,Pin_3*%
%TO.N,/PA1*%
X150950000Y-88910000D03*
%TO.P,J10,4,Pin_4*%
%TO.N,/PA12*%
X153490000Y-88910000D03*
%TO.P,J10,5,Pin_5*%
%TO.N,/PA2*%
X150950000Y-91450000D03*
%TO.P,J10,6,Pin_6*%
%TO.N,/PA11*%
X153490000Y-91450000D03*
%TO.P,J10,7,Pin_7*%
%TO.N,/PA3*%
X150950000Y-93990000D03*
%TO.P,J10,8,Pin_8*%
%TO.N,/PA10*%
X153490000Y-93990000D03*
%TO.P,J10,9,Pin_9*%
%TO.N,/PA4*%
X150950000Y-96530000D03*
%TO.P,J10,10,Pin_10*%
%TO.N,/PA9*%
X153490000Y-96530000D03*
%TO.P,J10,11,Pin_11*%
%TO.N,/PA5*%
X150950000Y-99070000D03*
%TO.P,J10,12,Pin_12*%
%TO.N,/PA8*%
X153490000Y-99070000D03*
%TO.P,J10,13,Pin_13*%
%TO.N,/PA6*%
X150950000Y-101610000D03*
%TO.P,J10,14,Pin_14*%
%TO.N,/PA7*%
X153490000Y-101610000D03*
%TD*%
D28*
%TO.P,Y2,1,1*%
%TO.N,/OSC32_OUT*%
X108342500Y-93860000D03*
%TO.P,Y2,2,2*%
%TO.N,/OSC32_IN*%
X109612500Y-93870000D03*
%TD*%
D15*
%TO.P,Q1,1,G*%
%TO.N,/reset*%
X112219500Y-83795700D03*
%TO.P,Q1,2,S*%
%TO.N,VSS*%
X112219500Y-85695700D03*
%TO.P,Q1,3,D*%
%TO.N,Net-(Q1-D)*%
X114094500Y-84745700D03*
%TD*%
D10*
%TO.P,R3,1*%
%TO.N,VDD*%
X124120000Y-82350000D03*
%TO.P,R3,2*%
%TO.N,Net-(U1-BOOT0)*%
X124120000Y-84175000D03*
%TD*%
D17*
%TO.P,J2,1,Pin_1*%
%TO.N,VDDA*%
X101600000Y-92285000D03*
D18*
%TO.P,J2,2,Pin_2*%
%TO.N,VSSA*%
X101600000Y-94825000D03*
%TD*%
D17*
%TO.P,J8,1,Pin_1*%
%TO.N,/PC0*%
X121590000Y-114390000D03*
D18*
%TO.P,J8,2,Pin_2*%
%TO.N,/PC13*%
X121590000Y-111850000D03*
%TO.P,J8,3,Pin_3*%
%TO.N,/PC1*%
X124130000Y-114390000D03*
%TO.P,J8,4,Pin_4*%
%TO.N,/PC12*%
X124130000Y-111850000D03*
%TO.P,J8,5,Pin_5*%
%TO.N,/PC2*%
X126670000Y-114390000D03*
%TO.P,J8,6,Pin_6*%
%TO.N,/PC11*%
X126670000Y-111850000D03*
%TO.P,J8,7,Pin_7*%
%TO.N,/PC3*%
X129210000Y-114390000D03*
%TO.P,J8,8,Pin_8*%
%TO.N,/PC10*%
X129210000Y-111850000D03*
%TO.P,J8,9,Pin_9*%
%TO.N,/PC4*%
X131750000Y-114390000D03*
%TO.P,J8,10,Pin_10*%
%TO.N,/PC9*%
X131750000Y-111850000D03*
%TO.P,J8,11,Pin_11*%
%TO.N,/PC5*%
X134290000Y-114390000D03*
%TO.P,J8,12,Pin_12*%
%TO.N,/PC8*%
X134290000Y-111850000D03*
%TO.P,J8,13,Pin_13*%
%TO.N,/PC6*%
X136830000Y-114390000D03*
%TO.P,J8,14,Pin_14*%
%TO.N,/PC7*%
X136830000Y-111850000D03*
%TD*%
D29*
%TO.P,C11,1*%
%TO.N,/VBAT*%
X119660000Y-90880000D03*
%TO.P,C11,2*%
%TO.N,VSS*%
X117760000Y-90880000D03*
%TD*%
D16*
%TO.P,C6,1*%
%TO.N,VDDA*%
X121480000Y-102840000D03*
%TO.P,C6,2*%
%TO.N,VSSA*%
X121480000Y-104740000D03*
%TD*%
D10*
%TO.P,R7,1*%
%TO.N,VDD*%
X142810000Y-91520000D03*
%TO.P,R7,2*%
%TO.N,/PA10*%
X142810000Y-93345000D03*
%TD*%
D30*
%TO.P,SW1,1,1*%
%TO.N,Net-(Q1-D)*%
X112614800Y-75400000D03*
%TO.P,SW1,2,2*%
X117864800Y-75400000D03*
%TO.P,SW1,3,K*%
%TO.N,VSS*%
X112614800Y-78600000D03*
%TO.P,SW1,4,A*%
X117864800Y-78600000D03*
%TD*%
D24*
%TO.P,JP2,1,A*%
%TO.N,VDDA*%
X112310000Y-108250000D03*
D25*
%TO.P,JP2,2,B*%
%TO.N,VDD*%
X112310000Y-106950000D03*
%TD*%
D12*
%TO.P,C5,1*%
%TO.N,/OSC_IN*%
X117750000Y-88690000D03*
%TO.P,C5,2*%
%TO.N,VSS*%
X119650000Y-88690000D03*
%TD*%
D24*
%TO.P,JP3,1,A*%
%TO.N,/VBAT*%
X109270000Y-108270000D03*
D25*
%TO.P,JP3,2,B*%
%TO.N,VDD*%
X109270000Y-106970000D03*
%TD*%
D13*
%TO.P,H2,1*%
%TO.N,N/C*%
X101854000Y-112522000D03*
D14*
X101854000Y-112522000D03*
%TD*%
D12*
%TO.P,C10,1*%
%TO.N,/OSC32_OUT*%
X117740000Y-96210000D03*
%TO.P,C10,2*%
%TO.N,VSS*%
X119640000Y-96210000D03*
%TD*%
D22*
%TO.P,R8,1*%
%TO.N,VDD*%
X141740000Y-98575000D03*
%TO.P,R8,2*%
%TO.N,/PA8*%
X141740000Y-96750000D03*
%TD*%
D11*
%TO.P,R10,1*%
%TO.N,VSS*%
X142390500Y-77470000D03*
%TO.P,R10,2*%
%TO.N,Net-(J4-Pin_11)*%
X140565500Y-77470000D03*
%TD*%
D17*
%TO.P,J3,1,Pin_1*%
%TO.N,/reset*%
X101600000Y-99796600D03*
D18*
%TO.P,J3,2,Pin_2*%
%TO.N,/VBAT*%
X101600000Y-102336600D03*
%TD*%
D13*
%TO.P,H1,1*%
%TO.N,N/C*%
X101854000Y-76200000D03*
D14*
X101854000Y-76200000D03*
%TD*%
D17*
%TO.P,J1,1,Pin_1*%
%TO.N,VDD*%
X101700000Y-85085000D03*
D18*
%TO.P,J1,2,Pin_2*%
%TO.N,VSS*%
X101700000Y-87625000D03*
%TD*%
D31*
%TO.N,VSS*%
X105079800Y-80416400D03*
D32*
X127770000Y-81150000D03*
D31*
X136770000Y-90870000D03*
X133560000Y-102090000D03*
D32*
X121580000Y-81090000D03*
D31*
X139192000Y-88265000D03*
D32*
X119100600Y-81483200D03*
X143510000Y-78486000D03*
D31*
X120960000Y-93740000D03*
X120880000Y-100490000D03*
X111690000Y-86830000D03*
X115840000Y-87570000D03*
X131260000Y-96830000D03*
X118640000Y-100480000D03*
X124155200Y-100482400D03*
D32*
%TO.N,VDD*%
X123460000Y-80420000D03*
X137871200Y-100838000D03*
X145161200Y-92303800D03*
X131440000Y-80360000D03*
X117983000Y-83286600D03*
X138930000Y-105390000D03*
X135420000Y-80290000D03*
X143220000Y-97820000D03*
D31*
X125830000Y-86614000D03*
D32*
%TO.N,VDDA*%
X113930000Y-108890000D03*
X117868000Y-103560000D03*
%TO.N,VSSA*%
X117670000Y-105030000D03*
X113850000Y-106960000D03*
D31*
X125270000Y-96600000D03*
X122504200Y-99568000D03*
%TO.N,/OSC32_IN*%
X116720000Y-92850000D03*
X121460000Y-91740000D03*
%TO.N,/OSC32_OUT*%
X120610000Y-96220000D03*
X122075726Y-92316200D03*
%TO.N,Net-(U1-BOOT0)*%
X123180000Y-85230000D03*
X130098800Y-85217000D03*
%TO.N,/PA9*%
X141510000Y-92220000D03*
%TO.N,/PC9*%
X133680000Y-94940000D03*
%TO.N,/PB2*%
X131010000Y-102580000D03*
X132490000Y-107810000D03*
%TO.N,/PB0*%
X130330000Y-98900000D03*
%TO.N,/PC8*%
X133630000Y-96040000D03*
%TO.N,/PC1*%
X125395000Y-95285000D03*
%TO.N,/PC4*%
X129405000Y-101985000D03*
X129890000Y-108640000D03*
%TO.N,/PC2*%
X122590000Y-95510000D03*
%TO.N,/PC3*%
X122635830Y-96285830D03*
%TO.N,/PB15*%
X138176000Y-99050000D03*
%TO.N,/PB10*%
X137193400Y-103903400D03*
%TO.N,/PA0*%
X137731500Y-87820500D03*
X129630000Y-95880000D03*
%TO.N,/SYS_JTDI*%
X137033000Y-86360000D03*
X134493000Y-87503000D03*
%TO.N,/PC11*%
X131330000Y-90870000D03*
%TO.N,/PB11*%
X132385600Y-101960000D03*
X133600000Y-108425600D03*
%TO.N,/PC12*%
X130530000Y-90750000D03*
%TO.N,/PC5*%
X130090000Y-102540000D03*
X129928343Y-107770000D03*
%TO.N,/SYS_JTCK-SWCLK*%
X134366000Y-88646000D03*
X136969500Y-87312500D03*
%TO.N,/PC10*%
X132065830Y-90955830D03*
%TO.N,/PC13*%
X125505000Y-92085000D03*
%TO.N,/PB8*%
X105333800Y-83591400D03*
%TO.N,/PB12*%
X132841802Y-90966653D03*
%TO.N,/PC7*%
X137341000Y-95791000D03*
%TO.N,/PB5*%
X123530000Y-90010000D03*
X129170000Y-90520000D03*
D33*
%TO.N,/SYS_JTDO-TRACESWO*%
X137668000Y-82550000D03*
D31*
X134416800Y-85928200D03*
%TO.N,/PB1*%
X130671000Y-101780945D03*
%TO.N,/PA12*%
X138633200Y-91922600D03*
%TO.N,/PC6*%
X136760000Y-96344000D03*
%TO.N,/SYS_JTMS-SWDIO*%
X144335500Y-86931500D03*
X137083800Y-91694000D03*
%TO.N,/PA11*%
X138772900Y-92824300D03*
%TO.N,/PC0*%
X127152400Y-92278200D03*
%TO.N,/nrst*%
X125480000Y-93730000D03*
X134493000Y-86795000D03*
X131953000Y-87376000D03*
X137033000Y-84836000D03*
X122170000Y-89420000D03*
%TD*%
D34*
%TO.N,VSS*%
X105562400Y-79933800D02*
X105079800Y-80416400D01*
X107141000Y-79933800D02*
X105562400Y-79933800D01*
%TO.N,/reset*%
X108966000Y-79933800D02*
X111704300Y-82672100D01*
X111704300Y-82672100D02*
X111704300Y-83795700D01*
%TO.N,Net-(Q1-D)*%
X117864800Y-75400000D02*
X119913400Y-77448600D01*
X119913400Y-77448600D02*
X119913400Y-83261200D01*
X119913400Y-83261200D02*
X119354600Y-83820000D01*
D35*
%TO.N,VSS*%
X117983000Y-80365600D02*
X117983000Y-78663800D01*
X117983000Y-78663800D02*
X117919200Y-78600000D01*
X119100600Y-81483200D02*
X117983000Y-80365600D01*
X117919200Y-78600000D02*
X117864800Y-78600000D01*
D34*
%TO.N,/nrst*%
X119354600Y-85645000D02*
X119455000Y-85645000D01*
X119455000Y-85645000D02*
X122170000Y-88360000D01*
%TO.N,Net-(Q1-D)*%
X116560600Y-85670400D02*
X117504200Y-85670400D01*
X117504200Y-85670400D02*
X119354600Y-83820000D01*
%TO.N,VSS*%
X124002800Y-103378000D02*
X125674800Y-105050000D01*
X124002800Y-100634800D02*
X124002800Y-103378000D01*
X112614800Y-78600000D02*
X113157000Y-79142200D01*
X121580000Y-81090000D02*
X121580000Y-81897500D01*
X119670000Y-96180000D02*
X119640000Y-96210000D01*
X117940000Y-90400000D02*
X119650000Y-88690000D01*
X119630000Y-99490000D02*
X119630000Y-99190000D01*
X142390500Y-80832500D02*
X142494000Y-80936000D01*
D35*
X115440000Y-106900000D02*
X115440000Y-103680000D01*
D34*
X120870000Y-100480000D02*
X120880000Y-100490000D01*
X119670000Y-93910000D02*
X119670000Y-96180000D01*
X121580000Y-81897500D02*
X122020000Y-82337500D01*
X117920000Y-90400000D02*
X117940000Y-90400000D01*
X131260000Y-96830000D02*
X131250000Y-96840000D01*
X132830000Y-101360000D02*
X133560000Y-102090000D01*
X142390500Y-77470000D02*
X142494000Y-77470000D01*
D35*
X142494000Y-77470000D02*
X143510000Y-78486000D01*
D34*
X136215000Y-91425000D02*
X136770000Y-90870000D01*
D36*
X128905000Y-83685000D02*
X127820000Y-82600000D01*
D34*
X114655600Y-85725000D02*
X111760000Y-85725000D01*
X115341400Y-82296000D02*
X115341400Y-85039200D01*
D36*
X126330000Y-87780000D02*
X126330000Y-87411000D01*
D34*
X124155200Y-100482400D02*
X124002800Y-100634800D01*
X117864800Y-78600000D02*
X117851800Y-78613000D01*
X127820000Y-82600000D02*
X127820000Y-82360000D01*
D35*
X142494000Y-80936000D02*
X143764000Y-80936000D01*
D34*
X133586000Y-102090000D02*
X133560000Y-102090000D01*
X126073592Y-99248000D02*
X126330000Y-99504408D01*
X125674800Y-105050000D02*
X126950000Y-105050000D01*
X139192000Y-88265000D02*
X140855000Y-88265000D01*
X115840000Y-87570000D02*
X118530000Y-87570000D01*
X113157000Y-79142200D02*
X113157000Y-80111600D01*
X127770000Y-82310000D02*
X127820000Y-82360000D01*
X111760000Y-85725000D02*
X111760000Y-86760000D01*
X115341400Y-85039200D02*
X114655600Y-85725000D01*
X135255000Y-91425000D02*
X136215000Y-91425000D01*
X137860000Y-102760000D02*
X137360000Y-103260000D01*
D35*
X142390500Y-77470000D02*
X142390500Y-80832500D01*
D36*
X128905000Y-84836000D02*
X128905000Y-83685000D01*
D34*
X137360000Y-103260000D02*
X134756000Y-103260000D01*
X111760000Y-86760000D02*
X111690000Y-86830000D01*
X120960000Y-93740000D02*
X119840000Y-93740000D01*
D35*
X118640000Y-100480000D02*
X120870000Y-100480000D01*
X115440000Y-103680000D02*
X118640000Y-100480000D01*
D34*
X129390000Y-96850000D02*
X126992000Y-99248000D01*
X125586408Y-99248000D02*
X126073592Y-99248000D01*
X117760000Y-90560000D02*
X117920000Y-90400000D01*
X125265592Y-99248000D02*
X124155200Y-100358392D01*
D36*
X103645600Y-89570600D02*
X107012500Y-89570600D01*
D34*
X112627800Y-78613000D02*
X112614800Y-78600000D01*
X113157000Y-80111600D02*
X115341400Y-82296000D01*
X131250000Y-96850000D02*
X129390000Y-96850000D01*
D36*
X126330000Y-87411000D02*
X128905000Y-84836000D01*
X101700000Y-87625000D02*
X103645600Y-89570600D01*
D34*
X126330000Y-99504408D02*
X126330000Y-100350000D01*
X134756000Y-103260000D02*
X133586000Y-102090000D01*
X132830000Y-100350000D02*
X132830000Y-101360000D01*
X131250000Y-96840000D02*
X131250000Y-96850000D01*
X117851800Y-78613000D02*
X112627800Y-78613000D01*
X127770000Y-81150000D02*
X127770000Y-82310000D01*
X126992000Y-99248000D02*
X125265592Y-99248000D01*
X140855000Y-88265000D02*
X141980000Y-89390000D01*
X119840000Y-93740000D02*
X119670000Y-93910000D01*
X126330000Y-89000000D02*
X126330000Y-87780000D01*
X118530000Y-87570000D02*
X119650000Y-88690000D01*
D35*
X118640000Y-100480000D02*
X119630000Y-99490000D01*
D34*
X137860000Y-101800000D02*
X137860000Y-102760000D01*
X117760000Y-90880000D02*
X117760000Y-90560000D01*
D35*
%TO.N,VDD*%
X133182500Y-82360000D02*
X133185000Y-82362500D01*
X138693200Y-105613200D02*
X138700000Y-105620000D01*
D34*
X135981400Y-102184200D02*
X135087200Y-101290000D01*
D35*
X131440000Y-81720000D02*
X130800000Y-82360000D01*
D36*
X117424200Y-83845400D02*
X116560600Y-83845400D01*
D35*
X144881600Y-78333600D02*
X142748000Y-76200000D01*
D36*
X101700000Y-85085000D02*
X101884400Y-85085000D01*
X104724200Y-82245200D02*
X107167200Y-82245200D01*
D34*
X136922000Y-100838000D02*
X135981400Y-101778600D01*
D36*
X117983000Y-83286600D02*
X117424200Y-83845400D01*
D35*
X137142000Y-89390000D02*
X138963400Y-89390000D01*
X142748000Y-76200000D02*
X140081000Y-76200000D01*
X139272000Y-91520000D02*
X140270000Y-91520000D01*
D36*
X101884400Y-85085000D02*
X104724200Y-82245200D01*
D35*
X135991000Y-80290000D02*
X135420000Y-80290000D01*
D34*
X138700000Y-105620000D02*
X138930000Y-105390000D01*
D35*
X110129363Y-109661500D02*
X110870000Y-108920863D01*
X130800000Y-82360000D02*
X133182500Y-82360000D01*
X138073400Y-90321400D02*
X139272000Y-91520000D01*
X126950000Y-103150000D02*
X127762600Y-103150000D01*
D34*
X134270000Y-101290000D02*
X134391400Y-101290000D01*
X135255000Y-90925000D02*
X135900000Y-90280000D01*
D35*
X143220000Y-97820000D02*
X142465000Y-98575000D01*
X130225800Y-105613200D02*
X138693200Y-105613200D01*
X144377400Y-91520000D02*
X142810000Y-91520000D01*
X111800677Y-106950000D02*
X112310000Y-106950000D01*
D34*
X125830000Y-86614000D02*
X125830000Y-89000000D01*
D35*
X125830000Y-86614000D02*
X125986000Y-86614000D01*
X123460000Y-81690000D02*
X124120000Y-82350000D01*
D36*
X127820000Y-84260000D02*
X127620000Y-84260000D01*
D35*
X127762600Y-103150000D02*
X130225800Y-105613200D01*
X100090000Y-86695000D02*
X100090000Y-102786666D01*
X101700000Y-85085000D02*
X100090000Y-86695000D01*
D34*
X126830000Y-103030000D02*
X126950000Y-103150000D01*
D35*
X145161200Y-92303800D02*
X144377400Y-91520000D01*
X135420000Y-80290000D02*
X135763600Y-80290000D01*
X106964834Y-109661500D02*
X110129363Y-109661500D01*
X138073400Y-90280000D02*
X138963400Y-89390000D01*
X136271000Y-80797400D02*
X136271000Y-88519000D01*
D34*
X138736673Y-98703327D02*
X138865000Y-98575000D01*
D35*
X135763600Y-80290000D02*
X136271000Y-80797400D01*
D34*
X135900000Y-90280000D02*
X138073400Y-90280000D01*
D35*
X136271000Y-88519000D02*
X137142000Y-89390000D01*
X109280000Y-107000000D02*
X112300000Y-107000000D01*
D34*
X137871200Y-100838000D02*
X136922000Y-100838000D01*
D35*
X140270000Y-91520000D02*
X142810000Y-91520000D01*
D34*
X138865000Y-98575000D02*
X139310000Y-98575000D01*
X141705000Y-98610000D02*
X141740000Y-98575000D01*
D35*
X127820000Y-84780000D02*
X127820000Y-84260000D01*
X140081000Y-76200000D02*
X135991000Y-80290000D01*
X138963400Y-89390000D02*
X140080000Y-89390000D01*
X123460000Y-80420000D02*
X123460000Y-81690000D01*
X131440000Y-80360000D02*
X131440000Y-81720000D01*
X110870000Y-107880677D02*
X111800677Y-106950000D01*
X144881600Y-80783600D02*
X144881600Y-78333600D01*
X142465000Y-98575000D02*
X141740000Y-98575000D01*
D34*
X133330000Y-100350000D02*
X134270000Y-101290000D01*
X135981400Y-101778600D02*
X135981400Y-102184200D01*
X126830000Y-100350000D02*
X126830000Y-103030000D01*
X135087200Y-101290000D02*
X134391400Y-101290000D01*
D35*
X110870000Y-108920863D02*
X110870000Y-107880677D01*
D34*
X138073400Y-90280000D02*
X138073400Y-90321400D01*
D35*
X139310000Y-98575000D02*
X141740000Y-98575000D01*
X100090000Y-102786666D02*
X106964834Y-109661500D01*
X125986000Y-86614000D02*
X127820000Y-84780000D01*
D36*
%TO.N,/OSC_IN*%
X120880000Y-92480000D02*
X121322600Y-92922600D01*
D34*
X122194626Y-92922600D02*
X123905000Y-92922600D01*
D36*
X121322600Y-92922600D02*
X122194626Y-92922600D01*
D34*
X115795000Y-90645000D02*
X117750000Y-88690000D01*
D36*
X115605000Y-90645000D02*
X117440000Y-92480000D01*
X117440000Y-92480000D02*
X120880000Y-92480000D01*
X113925000Y-90645000D02*
X115605000Y-90645000D01*
D34*
X113925000Y-90645000D02*
X115795000Y-90645000D01*
D35*
%TO.N,VDDA*%
X112950000Y-108890000D02*
X112310000Y-108250000D01*
X113930000Y-108890000D02*
X112950000Y-108890000D01*
D34*
X121670000Y-102650000D02*
X121480000Y-102840000D01*
X121716800Y-98267608D02*
X123059408Y-96925000D01*
X121716800Y-102603200D02*
X121716800Y-98267608D01*
D36*
X119340000Y-102840000D02*
X121480000Y-102840000D01*
D34*
X121480000Y-102840000D02*
X121716800Y-102603200D01*
D35*
X118620000Y-103560000D02*
X119340000Y-102840000D01*
X117868000Y-103560000D02*
X118620000Y-103560000D01*
D34*
X123059408Y-96925000D02*
X123905000Y-96925000D01*
%TO.N,VSSA*%
X122580400Y-99644200D02*
X122580400Y-103639600D01*
D35*
X113850000Y-107365000D02*
X113850000Y-106960000D01*
X119050000Y-105030000D02*
X119340000Y-104740000D01*
D36*
X119340000Y-104740000D02*
X121480000Y-104740000D01*
D34*
X122504200Y-99568000D02*
X122580400Y-99644200D01*
D35*
X115440000Y-108200000D02*
X114685000Y-108200000D01*
D34*
X122580400Y-103639600D02*
X121480000Y-104740000D01*
X125095000Y-96425000D02*
X123905000Y-96425000D01*
X125270000Y-96600000D02*
X125095000Y-96425000D01*
D35*
X117670000Y-105030000D02*
X119050000Y-105030000D01*
X114685000Y-108200000D02*
X113850000Y-107365000D01*
D36*
%TO.N,/OSC_OUT*%
X121520000Y-94470000D02*
X122588000Y-93402000D01*
X121520000Y-96990000D02*
X121520000Y-94470000D01*
X120397400Y-98112600D02*
X121520000Y-96990000D01*
X117730000Y-99190000D02*
X118807400Y-98112600D01*
X118807400Y-98112600D02*
X120397400Y-98112600D01*
D34*
X116720000Y-100200000D02*
X113920000Y-100200000D01*
X122588000Y-93402000D02*
X123860000Y-93402000D01*
X117730000Y-99190000D02*
X116720000Y-100200000D01*
%TO.N,/OSC32_IN*%
X110210500Y-94680000D02*
X117000000Y-94680000D01*
X117200000Y-93910000D02*
X117770000Y-93910000D01*
X121500000Y-91700000D02*
X122834408Y-91700000D01*
X117000000Y-94680000D02*
X117770000Y-93910000D01*
X116720000Y-93430000D02*
X117200000Y-93910000D01*
X109612500Y-93870000D02*
X109612500Y-94082000D01*
X121460000Y-91740000D02*
X121500000Y-91700000D01*
X122834408Y-91700000D02*
X123059408Y-91925000D01*
X109612500Y-94082000D02*
X110210500Y-94680000D01*
X123059408Y-91925000D02*
X123905000Y-91925000D01*
X116720000Y-92850000D02*
X116720000Y-93430000D01*
%TO.N,/OSC32_OUT*%
X122184526Y-92425000D02*
X123905000Y-92425000D01*
X108342500Y-95242500D02*
X108810000Y-95710000D01*
X118792000Y-97262000D02*
X117740000Y-96210000D01*
X120610000Y-96220000D02*
X120610000Y-96787928D01*
X122075726Y-92316200D02*
X122184526Y-92425000D01*
X117240000Y-95710000D02*
X117740000Y-96210000D01*
X120135928Y-97262000D02*
X118792000Y-97262000D01*
X120610000Y-96787928D02*
X120135928Y-97262000D01*
X108810000Y-95710000D02*
X117240000Y-95710000D01*
X108342500Y-93860000D02*
X108342500Y-95242500D01*
%TO.N,/reset*%
X110388400Y-85111600D02*
X110388400Y-89230200D01*
X106172000Y-95732600D02*
X102108000Y-99796600D01*
X110388400Y-89230200D02*
X106172000Y-93446600D01*
X101600000Y-99771200D02*
X102133400Y-99771200D01*
X106172000Y-93446600D02*
X106172000Y-95732600D01*
X111704300Y-83795700D02*
X110388400Y-85111600D01*
X111675000Y-83825000D02*
X111760000Y-83825000D01*
X102108000Y-99796600D02*
X101600000Y-99796600D01*
D36*
X112219500Y-83795700D02*
X111704300Y-83795700D01*
%TO.N,/VBAT*%
X119660000Y-90880000D02*
X119702600Y-90922600D01*
D34*
X123928000Y-90948000D02*
X124360000Y-90948000D01*
X107137200Y-93776800D02*
X110998000Y-89916000D01*
X120477000Y-87969072D02*
X120477000Y-90063000D01*
D35*
X109280000Y-108300000D02*
X107709000Y-108300000D01*
D34*
X107137200Y-96653800D02*
X107137200Y-93776800D01*
X119407928Y-86900000D02*
X120477000Y-87969072D01*
X110998000Y-89103200D02*
X113201200Y-86900000D01*
X110998000Y-89916000D02*
X110998000Y-89103200D01*
X102403500Y-101387500D02*
X101600000Y-102191000D01*
X120477000Y-90063000D02*
X119660000Y-90880000D01*
D36*
X119702600Y-90922600D02*
X123817400Y-90922600D01*
D34*
X123905000Y-90925000D02*
X123928000Y-90948000D01*
X101600000Y-102191000D02*
X101600000Y-102336600D01*
X102403500Y-101387500D02*
X107137200Y-96653800D01*
X113201200Y-86900000D02*
X119407928Y-86900000D01*
D35*
X101745600Y-102336600D02*
X101600000Y-102336600D01*
X107709000Y-108300000D02*
X101745600Y-102336600D01*
D34*
%TO.N,Net-(U1-BOOT0)*%
X122032500Y-84175000D02*
X122020000Y-84162500D01*
X127830000Y-87562000D02*
X127830000Y-89000000D01*
X123180000Y-85115000D02*
X124120000Y-84175000D01*
X124120000Y-84175000D02*
X122032500Y-84175000D01*
X130098800Y-85217000D02*
X130098800Y-85293200D01*
X123180000Y-85230000D02*
X123180000Y-85115000D01*
X130098800Y-85293200D02*
X127830000Y-87562000D01*
%TO.N,/PB6*%
X126147000Y-74837000D02*
X126147000Y-76847000D01*
X129650000Y-82745428D02*
X130250072Y-83345500D01*
X126147000Y-76847000D02*
X129650000Y-80350000D01*
X128830000Y-88009800D02*
X128830000Y-89000000D01*
X132652300Y-84187500D02*
X128830000Y-88009800D01*
X130250072Y-83345500D02*
X132343000Y-83345500D01*
X133185000Y-84187500D02*
X132652300Y-84187500D01*
X124970000Y-73660000D02*
X126147000Y-74837000D01*
X129650000Y-80350000D02*
X129650000Y-82745428D01*
X132343000Y-83345500D02*
X133185000Y-84187500D01*
%TO.N,/PB7*%
X128330000Y-89000000D02*
X128330000Y-87990000D01*
X128330000Y-89891592D02*
X128330000Y-89000000D01*
X127401592Y-90820000D02*
X128330000Y-89891592D01*
X124200000Y-85630428D02*
X124200000Y-89400000D01*
X130800000Y-85354000D02*
X128330000Y-87824000D01*
X125620000Y-90820000D02*
X127401592Y-90820000D01*
X130800000Y-84185000D02*
X130800000Y-85354000D01*
X128330000Y-87824000D02*
X128330000Y-89000000D01*
X125880000Y-83950428D02*
X124200000Y-85630428D01*
X125880000Y-81314530D02*
X125880000Y-83950428D01*
X121253000Y-74837000D02*
X121253000Y-76687530D01*
X121253000Y-76687530D02*
X125880000Y-81314530D01*
X122430000Y-73660000D02*
X121253000Y-74837000D01*
X124200000Y-89400000D02*
X125620000Y-90820000D01*
%TO.N,/PA9*%
X141395000Y-92220000D02*
X140270000Y-93345000D01*
X152206000Y-95246000D02*
X138936000Y-95246000D01*
X141510000Y-92220000D02*
X141395000Y-92220000D01*
X153490000Y-96530000D02*
X152206000Y-95246000D01*
X138936000Y-95246000D02*
X137615000Y-93925000D01*
X137615000Y-93925000D02*
X135255000Y-93925000D01*
%TO.N,/PA10*%
X139092052Y-94760000D02*
X141395000Y-94760000D01*
X152313000Y-92813000D02*
X150462470Y-92813000D01*
X143015000Y-93550000D02*
X142810000Y-93345000D01*
X135255000Y-93425000D02*
X137757052Y-93425000D01*
X150462470Y-92813000D02*
X149725470Y-93550000D01*
X137757052Y-93425000D02*
X139092052Y-94760000D01*
X149725470Y-93550000D02*
X143015000Y-93550000D01*
X153490000Y-93990000D02*
X152313000Y-92813000D01*
X141395000Y-94760000D02*
X142810000Y-93345000D01*
%TO.N,/PA8*%
X137457052Y-94425000D02*
X138732052Y-95700000D01*
X135255000Y-94425000D02*
X137457052Y-94425000D01*
X141740000Y-96750000D02*
X147907000Y-96750000D01*
X147907000Y-96750000D02*
X148108500Y-96951500D01*
X148927000Y-97770000D02*
X148108500Y-96951500D01*
X152190000Y-97770000D02*
X148927000Y-97770000D01*
X140690000Y-95700000D02*
X141740000Y-96750000D01*
X153490000Y-99070000D02*
X152190000Y-97770000D01*
X138732052Y-95700000D02*
X140690000Y-95700000D01*
%TO.N,/PC9*%
X133680000Y-94940000D02*
X135240000Y-94940000D01*
X135240000Y-94940000D02*
X135255000Y-94925000D01*
X139140000Y-96750000D02*
X137315000Y-94925000D01*
X139310000Y-96750000D02*
X139140000Y-96750000D01*
X137315000Y-94925000D02*
X135255000Y-94925000D01*
%TO.N,/PA6*%
X150950000Y-101610000D02*
X148699400Y-103860600D01*
X138621059Y-103860600D02*
X137884459Y-104597200D01*
X148699400Y-103860600D02*
X138621059Y-103860600D01*
X128330000Y-101900000D02*
X128330000Y-100350000D01*
X131027200Y-104597200D02*
X128330000Y-101900000D01*
X137884459Y-104597200D02*
X131027200Y-104597200D01*
D37*
%TO.N,/PB2*%
X131010000Y-102580000D02*
X131330000Y-102260000D01*
D34*
X156483000Y-87395000D02*
X156483000Y-102849741D01*
D37*
X131330000Y-102260000D02*
X131330000Y-100350000D01*
D34*
X132510000Y-107830000D02*
X132490000Y-107810000D01*
X132550000Y-107870000D02*
X132490000Y-107810000D01*
X141538000Y-72450000D02*
X156483000Y-87395000D01*
X132590000Y-73660000D02*
X133800000Y-72450000D01*
X156483000Y-102849741D02*
X151502741Y-107830000D01*
X151502741Y-107830000D02*
X132510000Y-107830000D01*
D37*
X132490000Y-107810000D02*
X132540000Y-107860000D01*
D34*
X133800000Y-72450000D02*
X141538000Y-72450000D01*
%TO.N,/PA3*%
X127730000Y-104130000D02*
X129881000Y-106281000D01*
X125830000Y-100350000D02*
X125684600Y-100350000D01*
X125684600Y-100350000D02*
X124460000Y-101574600D01*
X129881000Y-106281000D02*
X151125583Y-106281000D01*
X125542200Y-104130000D02*
X127730000Y-104130000D01*
X124460000Y-101574600D02*
X124460000Y-103047800D01*
X151639470Y-93990000D02*
X150950000Y-93990000D01*
X155121000Y-96496470D02*
X153977530Y-95353000D01*
X155121000Y-102285583D02*
X155121000Y-96496470D01*
X124460000Y-103047800D02*
X125542200Y-104130000D01*
X153977530Y-95353000D02*
X153002470Y-95353000D01*
X153002470Y-95353000D02*
X151639470Y-93990000D01*
X151125583Y-106281000D02*
X155121000Y-102285583D01*
%TO.N,/PB0*%
X130353000Y-98923000D02*
X130353000Y-100630000D01*
X130330000Y-98900000D02*
X130353000Y-98923000D01*
%TO.N,/PC8*%
X134245000Y-95425000D02*
X135255000Y-95425000D01*
X133630000Y-96040000D02*
X134245000Y-95425000D01*
%TO.N,/PB13*%
X133580000Y-77750000D02*
X135130000Y-76200000D01*
X133580000Y-80510000D02*
X133580000Y-77750000D01*
X135400000Y-97948000D02*
X135354000Y-97902000D01*
X133496000Y-93394000D02*
X133496000Y-90347319D01*
X135128000Y-82058000D02*
X133580000Y-80510000D01*
X135354000Y-97902000D02*
X133731540Y-97902000D01*
X133496000Y-90347319D02*
X135128000Y-88715319D01*
X133731540Y-97902000D02*
X132496000Y-96666460D01*
X132496000Y-96666460D02*
X132496000Y-94394000D01*
X132496000Y-94394000D02*
X133496000Y-93394000D01*
X135128000Y-88715319D02*
X135128000Y-82058000D01*
%TO.N,/PC1*%
X125035000Y-94925000D02*
X123905000Y-94925000D01*
X125395000Y-95285000D02*
X125035000Y-94925000D01*
%TO.N,/PC4*%
X129890000Y-108640000D02*
X130480000Y-109230000D01*
X130480000Y-109230000D02*
X130480000Y-113120000D01*
X129405000Y-101985000D02*
X129425000Y-101985000D01*
X130480000Y-113120000D02*
X131750000Y-114390000D01*
X129405000Y-101985000D02*
X129330000Y-101910000D01*
X129330000Y-101910000D02*
X129330000Y-100350000D01*
%TO.N,/PC2*%
X122590000Y-95510000D02*
X122675000Y-95425000D01*
X122675000Y-95425000D02*
X123905000Y-95425000D01*
%TO.N,/PC3*%
X122996660Y-95925000D02*
X123905000Y-95925000D01*
X122635830Y-96285830D02*
X122996660Y-95925000D01*
%TO.N,/PB15*%
X138176000Y-99000408D02*
X136100592Y-96925000D01*
X138176000Y-99050000D02*
X138176000Y-99000408D01*
X136100592Y-96925000D02*
X135255000Y-96925000D01*
D37*
%TO.N,/PB10*%
X137193400Y-103903400D02*
X136976800Y-104120000D01*
X133670000Y-104120000D02*
X131830000Y-102280000D01*
X136976800Y-104120000D02*
X133670000Y-104120000D01*
X131830000Y-102280000D02*
X131830000Y-100350000D01*
D34*
%TO.N,/PA0*%
X129630000Y-95880000D02*
X129610000Y-95880000D01*
X149690000Y-87630000D02*
X150950000Y-86370000D01*
X137731500Y-87820500D02*
X137922000Y-87630000D01*
X128065000Y-97425000D02*
X123905000Y-97425000D01*
X137922000Y-87630000D02*
X149690000Y-87630000D01*
X129610000Y-95880000D02*
X128065000Y-97425000D01*
%TO.N,/PB4*%
X129830000Y-87670200D02*
X129830000Y-89000000D01*
X132030200Y-85470000D02*
X129830000Y-87670200D01*
X130050000Y-73660000D02*
X131310000Y-74920000D01*
X133550328Y-85470000D02*
X132030200Y-85470000D01*
X131310000Y-74920000D02*
X131310000Y-78920000D01*
X131310000Y-78920000D02*
X134230000Y-81840000D01*
X134230000Y-81840000D02*
X134230000Y-84790328D01*
X134230000Y-84790328D02*
X133550328Y-85470000D01*
%TO.N,/PB9*%
X129020000Y-82997000D02*
X129413000Y-83390000D01*
X129413000Y-85168500D02*
X126870000Y-87711500D01*
X129020000Y-80750000D02*
X129020000Y-82997000D01*
X124970000Y-76700000D02*
X129020000Y-80750000D01*
X129413000Y-83390000D02*
X129413000Y-85168500D01*
X124970000Y-76200000D02*
X124970000Y-76700000D01*
X126870000Y-87711500D02*
X126870000Y-88180000D01*
X126807000Y-88243000D02*
X126807000Y-88400000D01*
X126870000Y-88180000D02*
X126807000Y-88243000D01*
%TO.N,/SYS_JTDI*%
X137160000Y-86487000D02*
X140843000Y-86487000D01*
X140843000Y-86487000D02*
X141097000Y-86233000D01*
X134493000Y-87503000D02*
X133197600Y-87503000D01*
X137033000Y-86360000D02*
X137160000Y-86487000D01*
X133197600Y-87503000D02*
X132842000Y-87858600D01*
X132842000Y-87858600D02*
X132842000Y-88988000D01*
X132842000Y-88988000D02*
X132830000Y-89000000D01*
X141097000Y-86233000D02*
X141097000Y-84836000D01*
%TO.N,/PC11*%
X131830000Y-90370000D02*
X131830000Y-89000000D01*
X131330000Y-90870000D02*
X131830000Y-90370000D01*
D37*
%TO.N,/PB11*%
X132385600Y-101960000D02*
X132330000Y-101904400D01*
D34*
X128820000Y-74970000D02*
X130050000Y-76200000D01*
X156937000Y-103037794D02*
X156937000Y-86680600D01*
D37*
X132330000Y-101904400D02*
X132330000Y-100350000D01*
D34*
X128820000Y-72590000D02*
X128820000Y-74970000D01*
X133644400Y-108470000D02*
X151504794Y-108470000D01*
X156937000Y-86680600D02*
X142246400Y-71990000D01*
X151504794Y-108470000D02*
X156937000Y-103037794D01*
X129420000Y-71990000D02*
X128820000Y-72590000D01*
D37*
X133600000Y-108425600D02*
X133644400Y-108470000D01*
D34*
X142246400Y-71990000D02*
X129420000Y-71990000D01*
%TO.N,/PC12*%
X130530000Y-90750000D02*
X131330000Y-89950000D01*
X131330000Y-89950000D02*
X131330000Y-89000000D01*
%TO.N,/PC5*%
X130090000Y-102540000D02*
X130090000Y-101638341D01*
X133010000Y-113110000D02*
X133010000Y-110851657D01*
X133010000Y-110851657D02*
X129928343Y-107770000D01*
X130090000Y-101638341D02*
X129830000Y-101378341D01*
X129830000Y-101378341D02*
X129830000Y-100350000D01*
X134290000Y-114390000D02*
X133010000Y-113110000D01*
%TO.N,/SYS_JTCK-SWCLK*%
X134366000Y-88646000D02*
X133684000Y-88646000D01*
X143764000Y-84836000D02*
X143764000Y-86233000D01*
X142875000Y-87122000D02*
X137160000Y-87122000D01*
X133684000Y-88646000D02*
X133330000Y-89000000D01*
X137160000Y-87122000D02*
X136969500Y-87312500D01*
X143764000Y-86233000D02*
X142875000Y-87122000D01*
%TO.N,/PC10*%
X132065830Y-90955830D02*
X132330000Y-90691660D01*
X132330000Y-90691660D02*
X132330000Y-89000000D01*
%TO.N,/PC13*%
X125505000Y-92085000D02*
X124845000Y-91425000D01*
X124845000Y-91425000D02*
X123905000Y-91425000D01*
%TO.N,/PB8*%
X127058053Y-90294000D02*
X127324000Y-90028053D01*
X106320600Y-83591400D02*
X106857800Y-84128600D01*
X126492000Y-80262000D02*
X126492000Y-84040072D01*
X105333800Y-83591400D02*
X106320600Y-83591400D01*
X122430000Y-76200000D02*
X126492000Y-80262000D01*
X127324000Y-90028053D02*
X127324000Y-88571000D01*
X124710000Y-85822072D02*
X124710000Y-89225592D01*
X124710000Y-89225592D02*
X125778408Y-90294000D01*
X126492000Y-84040072D02*
X124710000Y-85822072D01*
X127324000Y-88571000D02*
X127353000Y-88600000D01*
X125778408Y-90294000D02*
X127058053Y-90294000D01*
%TO.N,/PB12*%
X132042000Y-97172000D02*
X133210000Y-98340000D01*
D37*
X134275600Y-98360000D02*
X133230000Y-98360000D01*
D34*
X132042000Y-94048000D02*
X132042000Y-97172000D01*
X132841802Y-93248198D02*
X132042000Y-94048000D01*
D37*
X135255000Y-98425000D02*
X134340600Y-98425000D01*
D34*
X132841802Y-90966653D02*
X132841802Y-93248198D01*
D37*
X133230000Y-98360000D02*
X133210000Y-98340000D01*
X134340600Y-98425000D02*
X134275600Y-98360000D01*
D34*
%TO.N,/PC7*%
X137250000Y-95700000D02*
X136390000Y-95700000D01*
X137341000Y-95791000D02*
X137250000Y-95700000D01*
X136142000Y-95948000D02*
X135350000Y-95948000D01*
X136390000Y-95700000D02*
X136142000Y-95948000D01*
%TO.N,/PB5*%
X129330000Y-90360000D02*
X129330000Y-89000000D01*
X126333000Y-72483000D02*
X121942470Y-72483000D01*
X129170000Y-90520000D02*
X129330000Y-90360000D01*
X120530000Y-73895470D02*
X120530000Y-85350000D01*
X120530000Y-85350000D02*
X123530000Y-88350000D01*
X121942470Y-72483000D02*
X120530000Y-73895470D01*
X123530000Y-88350000D02*
X123530000Y-90010000D01*
X127510000Y-73660000D02*
X126333000Y-72483000D01*
%TO.N,/SYS_JTDO-TRACESWO*%
X142494000Y-83566000D02*
X142494000Y-84836000D01*
X141478000Y-82550000D02*
X142494000Y-83566000D01*
X134366000Y-85979000D02*
X132207000Y-85979000D01*
X137668000Y-82550000D02*
X141478000Y-82550000D01*
X130330000Y-87856000D02*
X130330000Y-89000000D01*
X134416800Y-85928200D02*
X134366000Y-85979000D01*
X132207000Y-85979000D02*
X130330000Y-87856000D01*
%TO.N,/PB1*%
X130830000Y-101621945D02*
X130671000Y-101780945D01*
X130830000Y-100350000D02*
X130830000Y-101621945D01*
%TO.N,/PA12*%
X138633200Y-91922600D02*
X138130800Y-92425000D01*
X138130800Y-92425000D02*
X135255000Y-92425000D01*
%TO.N,/PA1*%
X126296947Y-107189000D02*
X123088400Y-103980453D01*
X123088400Y-103980453D02*
X123088400Y-98953992D01*
X152313000Y-90273000D02*
X153977530Y-90273000D01*
X122803000Y-98668592D02*
X122803000Y-98181408D01*
X123088400Y-98953992D02*
X122803000Y-98668592D01*
X156029000Y-92324470D02*
X156029000Y-102661689D01*
X150950000Y-88910000D02*
X152313000Y-90273000D01*
X123059408Y-97925000D02*
X123905000Y-97925000D01*
X153977530Y-90273000D02*
X156029000Y-92324470D01*
X151501689Y-107189000D02*
X126296947Y-107189000D01*
X156029000Y-102661689D02*
X151501689Y-107189000D01*
X122803000Y-98181408D02*
X123059408Y-97925000D01*
%TO.N,/PC6*%
X135255000Y-96425000D02*
X136679000Y-96425000D01*
X136679000Y-96425000D02*
X136760000Y-96344000D01*
%TO.N,/PA2*%
X153002470Y-92813000D02*
X153977530Y-92813000D01*
X155575000Y-94410470D02*
X155575000Y-102473636D01*
X155575000Y-102473636D02*
X151313636Y-106735000D01*
X123545600Y-103795600D02*
X123545600Y-98784400D01*
X151639470Y-91450000D02*
X153002470Y-92813000D01*
X123545600Y-98784400D02*
X123905000Y-98425000D01*
X151313636Y-106735000D02*
X126485000Y-106735000D01*
X126485000Y-106735000D02*
X123545600Y-103795600D01*
X150950000Y-91450000D02*
X151639470Y-91450000D01*
X153977530Y-92813000D02*
X155575000Y-94410470D01*
%TO.N,/PA4*%
X152319730Y-104444800D02*
X138678911Y-104444800D01*
X127353000Y-101218592D02*
X127353000Y-100070000D01*
X127353000Y-101218592D02*
X127330000Y-101195592D01*
X127353000Y-101683000D02*
X127353000Y-101218592D01*
X153003000Y-97893000D02*
X153977530Y-97893000D01*
X127330000Y-101195592D02*
X127330000Y-100350000D01*
X154667000Y-102097530D02*
X152319730Y-104444800D01*
X150950000Y-96530000D02*
X151640000Y-96530000D01*
X151640000Y-96530000D02*
X153003000Y-97893000D01*
X138069311Y-105054400D02*
X130724400Y-105054400D01*
X154667000Y-98582470D02*
X154667000Y-102097530D01*
X138678911Y-104444800D02*
X138069311Y-105054400D01*
X130724400Y-105054400D02*
X127353000Y-101683000D01*
X153977530Y-97893000D02*
X154667000Y-98582470D01*
%TO.N,/PA7*%
X133614200Y-99248000D02*
X132278000Y-99248000D01*
X129933600Y-98260000D02*
X128830000Y-99363600D01*
X148742400Y-100380800D02*
X148463000Y-100101400D01*
X148463000Y-100101400D02*
X134467600Y-100101400D01*
X128830000Y-99363600D02*
X128830000Y-100350000D01*
X134467600Y-100101400D02*
X133614200Y-99248000D01*
X152260800Y-100380800D02*
X148742400Y-100380800D01*
X153490000Y-101610000D02*
X152260800Y-100380800D01*
X131290000Y-98260000D02*
X129933600Y-98260000D01*
X132278000Y-99248000D02*
X131290000Y-98260000D01*
%TO.N,/SYS_JTMS-SWDIO*%
X145034000Y-86233000D02*
X145034000Y-84836000D01*
X136852800Y-91925000D02*
X137083800Y-91694000D01*
X135255000Y-91925000D02*
X136852800Y-91925000D01*
X144335500Y-86931500D02*
X145034000Y-86233000D01*
%TO.N,/PA11*%
X138772900Y-92824300D02*
X138672200Y-92925000D01*
X138672200Y-92925000D02*
X135255000Y-92925000D01*
%TO.N,/PA5*%
X131412052Y-97740000D02*
X132466052Y-98794000D01*
X132466052Y-98794000D02*
X133896800Y-98794000D01*
X150375800Y-99644200D02*
X150950000Y-99070000D01*
X127830000Y-100350000D02*
X127830000Y-99410000D01*
X133896800Y-98794000D02*
X134747000Y-99644200D01*
X134747000Y-99644200D02*
X150375800Y-99644200D01*
X127830000Y-99410000D02*
X129500000Y-97740000D01*
X129500000Y-97740000D02*
X131412052Y-97740000D01*
%TO.N,/PB14*%
X137670000Y-76200000D02*
X134430000Y-79440000D01*
X135636000Y-88944000D02*
X133950000Y-90630000D01*
X134430000Y-80680000D02*
X135636000Y-81886000D01*
X133950000Y-93750000D02*
X132950000Y-94750000D01*
X135636000Y-81886000D02*
X135636000Y-88944000D01*
X132950000Y-96478408D02*
X133896592Y-97425000D01*
X133896592Y-97425000D02*
X135255000Y-97425000D01*
X132950000Y-94750000D02*
X132950000Y-96478408D01*
X134430000Y-79440000D02*
X134430000Y-80680000D01*
X133950000Y-90630000D02*
X133950000Y-93750000D01*
%TO.N,/PC0*%
X127152400Y-92278200D02*
X127152400Y-93065600D01*
X123917200Y-94437200D02*
X123905000Y-94425000D01*
X127152400Y-93065600D02*
X125780800Y-94437200D01*
X125780800Y-94437200D02*
X123917200Y-94437200D01*
%TO.N,Net-(Q2-B)*%
X106857800Y-85953600D02*
X106857800Y-87515900D01*
D36*
X106857800Y-87515900D02*
X107012500Y-87670600D01*
D34*
%TO.N,Net-(Q2-C)*%
X108889800Y-85979000D02*
X108889800Y-88618300D01*
D36*
X108889800Y-88618300D02*
X108887500Y-88620600D01*
D34*
%TO.N,Net-(D1-K)*%
X109042200Y-82245200D02*
X109042200Y-84001600D01*
D36*
X109042200Y-84001600D02*
X108889800Y-84154000D01*
D34*
%TO.N,Net-(J4-Pin_11)*%
X139954000Y-78081500D02*
X139954000Y-80809000D01*
X139954000Y-80809000D02*
X139827000Y-80936000D01*
X139954000Y-78081500D02*
X140565500Y-77470000D01*
%TO.N,/nrst*%
X125285000Y-93925000D02*
X123905000Y-93925000D01*
%TO.N,Net-(Q1-D)*%
X114094500Y-82617428D02*
X114094500Y-84745700D01*
D36*
X114071400Y-84722600D02*
X114094500Y-84745700D01*
D34*
%TO.N,/nrst*%
X139954000Y-83439000D02*
X139700000Y-83185000D01*
X132534000Y-86795000D02*
X131953000Y-87376000D01*
X137033000Y-84099400D02*
X137033000Y-84836000D01*
X137947400Y-83185000D02*
X137033000Y-84099400D01*
X134493000Y-86795000D02*
X132534000Y-86795000D01*
X139700000Y-83185000D02*
X137947400Y-83185000D01*
X122170000Y-88360000D02*
X122170000Y-89420000D01*
X125480000Y-93730000D02*
X125285000Y-93925000D01*
%TO.N,Net-(Q1-D)*%
X111201200Y-79724128D02*
X111201200Y-76813600D01*
X111201200Y-79724128D02*
X114094500Y-82617428D01*
X112614800Y-75400000D02*
X117864800Y-75400000D01*
X116560600Y-85670400D02*
X116586000Y-85645000D01*
%TO.N,/nrst*%
X139954000Y-84836000D02*
X139954000Y-83439000D01*
%TO.N,Net-(Q1-D)*%
X111201200Y-76813600D02*
X112614800Y-75400000D01*
%TD*%
M02*
