%TF.GenerationSoftware,KiCad,Pcbnew,8.0.5*%
%TF.CreationDate,2024-12-07T09:48:31-05:00*%
%TF.ProjectId,stm32_lqfp64_test_board,73746d33-325f-46c7-9166-7036345f7465,1.1*%
%TF.SameCoordinates,Original*%
%TF.FileFunction,Soldermask,Bot*%
%TF.FilePolarity,Negative*%
%FSLAX46Y46*%
G04 Gerber Fmt 4.6, Leading zero omitted, Abs format (unit mm)*
G04 Created by KiCad (PCBNEW 8.0.5) date 2024-12-07 09:48:31*
%MOMM*%
%LPD*%
G01*
G04 APERTURE LIST*
%ADD10C,3.600000*%
%ADD11C,6.400000*%
%ADD12R,1.700000X1.700000*%
%ADD13O,1.700000X1.700000*%
%ADD14C,1.000000*%
G04 APERTURE END LIST*
D10*
%TO.C,H3*%
X152146000Y-112500000D03*
D11*
X152146000Y-112500000D03*
%TD*%
D12*
%TO.C,J9*%
X137670000Y-73660000D03*
D13*
X137670000Y-76200000D03*
X135130000Y-73660000D03*
X135130000Y-76200000D03*
X132590000Y-73660000D03*
X132590000Y-76200000D03*
X130050000Y-73660000D03*
X130050000Y-76200000D03*
X127510000Y-73660000D03*
X127510000Y-76200000D03*
X124970000Y-73660000D03*
X124970000Y-76200000D03*
X122430000Y-73660000D03*
X122430000Y-76200000D03*
%TD*%
D10*
%TO.C,H4*%
X152146000Y-76200000D03*
D11*
X152146000Y-76200000D03*
%TD*%
D12*
%TO.C,J10*%
X150950000Y-86370000D03*
D13*
X153490000Y-86370000D03*
X150950000Y-88910000D03*
X153490000Y-88910000D03*
X150950000Y-91450000D03*
X153490000Y-91450000D03*
X150950000Y-93990000D03*
X153490000Y-93990000D03*
X150950000Y-96530000D03*
X153490000Y-96530000D03*
X150950000Y-99070000D03*
X153490000Y-99070000D03*
X150950000Y-101610000D03*
X153490000Y-101610000D03*
%TD*%
D14*
%TO.C,Y2*%
X108342500Y-93860000D03*
X109612500Y-93870000D03*
%TD*%
D12*
%TO.C,J2*%
X101600000Y-92285000D03*
D13*
X101600000Y-94825000D03*
%TD*%
D12*
%TO.C,J8*%
X121590000Y-114390000D03*
D13*
X121590000Y-111850000D03*
X124130000Y-114390000D03*
X124130000Y-111850000D03*
X126670000Y-114390000D03*
X126670000Y-111850000D03*
X129210000Y-114390000D03*
X129210000Y-111850000D03*
X131750000Y-114390000D03*
X131750000Y-111850000D03*
X134290000Y-114390000D03*
X134290000Y-111850000D03*
X136830000Y-114390000D03*
X136830000Y-111850000D03*
%TD*%
D10*
%TO.C,H2*%
X101854000Y-112522000D03*
D11*
X101854000Y-112522000D03*
%TD*%
D12*
%TO.C,J3*%
X101600000Y-99796600D03*
D13*
X101600000Y-102336600D03*
%TD*%
D10*
%TO.C,H1*%
X101854000Y-76200000D03*
D11*
X101854000Y-76200000D03*
%TD*%
D12*
%TO.C,J1*%
X101700000Y-85085000D03*
D13*
X101700000Y-87625000D03*
%TD*%
M02*
